<svg width="1920" height="368" viewBox="0 0 1920 368" fill="none" xmlns="http://www.w3.org/2000/svg">
<mask id="mask0_554_62" style="mask-type:alpha" maskUnits="userSpaceOnUse" x="0" y="103" width="265" height="265">
<rect x="0.000976562" y="103.773" width="264" height="264" fill="#E93223"/>
</mask>
<g mask="url(#mask0_554_62)">
<path d="M-7.44434 193.508L128.278 141.015L264 193.508M-7.44434 119.276L128.278 66.7826L264 119.276M-7.44434 45.043L128.278 -7.45015L264 45.043M-7.44434 -29.1897L128.278 -81.6829L264 -29.1897M-7.44434 484.607L128.278 432.114L264 484.607M-7.44434 410.374L128.278 357.881L264 410.374M-7.44434 336.141L128.278 283.648L264 336.141M-7.44434 261.909L128.278 209.415L264 261.909" stroke="#DE5952" stroke-width="43.1681"/>
</g>
<g clip-path="url(#clip0_554_62)">
<path d="M1554.01 0.988725C1554.01 25.0157 1558.75 48.8073 1567.94 71.0053C1577.14 93.2033 1590.61 113.373 1607.6 130.363C1624.59 147.352 1644.76 160.829 1666.96 170.024C1689.16 179.218 1712.95 183.951 1736.98 183.951L1736.98 0.988709L1554.01 0.988725Z" fill="#DE5952"/>
<path d="M1919.94 0.988985C1895.91 0.988985 1872.12 5.72144 1849.92 14.9162C1827.73 24.1109 1807.56 37.5878 1790.57 54.5774C1773.58 71.567 1760.1 91.7366 1750.91 113.935C1741.71 136.133 1736.98 159.924 1736.98 183.951L1919.94 183.951L1919.94 0.988985Z" fill="#DE5952"/>
<path d="M1919.94 365.923C1919.94 341.896 1915.21 318.104 1906.01 295.906C1896.82 273.708 1883.34 253.539 1866.35 236.549C1849.36 219.56 1829.19 206.083 1806.99 196.888C1784.8 187.693 1761 182.961 1736.98 182.961L1736.98 365.923L1919.94 365.923Z" fill="#DE5952"/>
<path d="M1554.01 365.923C1578.04 365.923 1601.83 361.19 1624.03 351.996C1646.23 342.801 1666.4 329.324 1683.39 312.334C1700.38 295.345 1713.85 275.175 1723.05 252.977C1732.24 230.779 1736.97 206.987 1736.97 182.961L1554.01 182.961L1554.01 365.923Z" fill="#DE5952"/>
</g>
<g clip-path="url(#clip1_554_62)">
<mask id="mask1_554_62" style="mask-type:alpha" maskUnits="userSpaceOnUse" x="262" y="227" width="140" height="139">
<circle cx="332.302" cy="296.304" r="69.304" fill="#D9D9D9"/>
</mask>
<g mask="url(#mask1_554_62)">
<circle cx="401.981" cy="227.374" r="69.304" fill="#DE5952"/>
<circle cx="401.981" cy="365.983" r="69.304" fill="#DE5952"/>
<circle cx="263.371" cy="227.374" r="69.304" fill="#DE5952"/>
<circle cx="263.371" cy="365.983" r="69.304" fill="#DE5952"/>
</g>
</g>
<defs>
<clipPath id="clip0_554_62">
<rect width="365.924" height="365.924" fill="white" transform="translate(1555)"/>
</clipPath>
<clipPath id="clip1_554_62">
<rect width="138.608" height="138.608" fill="white" transform="translate(263 227)"/>
</clipPath>
</defs>
</svg>
