<svg width="1920" height="278" viewBox="0 0 1920 278" fill="none" xmlns="http://www.w3.org/2000/svg">
<g clip-path="url(#clip0_1_19)">
<rect width="1920" height="9843" transform="translate(0 -9291)" fill="#FEFCF0"/>
<rect y="2" width="1920" height="550" fill="#DE5952"/>
<g clip-path="url(#clip1_1_19)">
<path d="M1744.21 83.4368L1855.94 41.3179L1967.67 83.4368M1744.21 23.8748L1855.94 -18.2441L1967.67 23.8748M1744.21 -35.6873L1855.94 -77.8061L1967.67 -35.6873M1744.21 -95.2493L1855.94 -137.368L1967.67 -95.2493M1744.21 317.005L1855.94 274.886L1967.67 317.005M1744.21 257.443L1855.94 215.324L1967.67 257.443M1744.21 197.881L1855.94 155.762L1967.67 197.881M1744.21 138.319L1855.94 96.2001L1967.67 138.319M1744.21 112.301L1855.94 70.1818L1967.67 112.301M1744.21 52.7386L1855.94 10.6198L1967.67 52.7386M1744.21 -6.82341L1855.94 -48.9423L1967.67 -6.82341M1744.21 -66.3854L1855.94 -108.504L1967.67 -66.3854M1744.21 345.869L1855.94 303.75L1967.67 345.869M1744.21 286.307L1855.94 244.188L1967.67 286.307M1744.21 226.745L1855.94 184.626L1967.67 226.745M1744.21 167.183L1855.94 125.064L1967.67 167.183" stroke="#FEFCF0" stroke-width="16.9552"/>
</g>
<rect x="1246" y="1" width="44.9996" height="44.9996" fill="#FEFCF0"/>
<rect x="1426" y="1" width="44.9996" height="44.9996" fill="#FEFCF0"/>
<rect x="1336" y="1" width="44.9996" height="44.9996" fill="#FEFCF0"/>
<rect x="1291" y="46" width="44.9996" height="44.9996" fill="#FEFCF0"/>
<rect x="1381" y="46" width="44.9996" height="44.9996" fill="#FEFCF0"/>
<rect x="1246" y="91" width="44.9996" height="44.9996" fill="#FEFCF0"/>
<rect x="1426" y="91" width="44.9996" height="44.9996" fill="#FEFCF0"/>
<rect x="1336" y="91" width="44.9996" height="44.9996" fill="#FEFCF0"/>
<rect x="1291" y="136" width="44.9996" height="44.9996" fill="#FEFCF0"/>
<rect x="1381" y="136" width="44.9996" height="44.9996" fill="#FEFCF0"/>
<rect x="1246" y="181" width="44.9996" height="44.9996" fill="#FEFCF0"/>
<rect x="1426" y="181" width="44.9996" height="44.9996" fill="#FEFCF0"/>
<rect x="1336" y="181" width="44.9996" height="44.9996" fill="#FEFCF0"/>
<g clip-path="url(#clip2_1_19)">
<mask id="mask0_1_19" style="mask-type:alpha" maskUnits="userSpaceOnUse" x="1133" y="1" width="113" height="113">
<circle cx="1189.5" cy="57.5" r="56.5" fill="#D9D9D9"/>
</mask>
<g mask="url(#mask0_1_19)">
<circle cx="1246.3" cy="1.30518" r="56.5" fill="#FEFCF0"/>
<circle cx="1246.3" cy="114.305" r="56.5" fill="#FEFCF0"/>
<circle cx="1133.3" cy="1.30518" r="56.5" fill="#FEFCF0"/>
<circle cx="1133.3" cy="114.305" r="56.5" fill="#FEFCF0"/>
</g>
</g>
<g clip-path="url(#clip3_1_19)">
<rect x="993.93" y="103.49" width="16.4875" height="170.77" transform="rotate(-135 993.93 103.49)" fill="#FEFCF0"/>
<rect x="973.516" y="83.0825" width="25.2162" height="170.77" transform="rotate(-135 973.516 83.0825)" fill="#FEFCF0"/>
<rect x="1011.24" y="120.811" width="12.1232" height="170.77" transform="rotate(-135 1011.24 120.811)" fill="#FEFCF0"/>
<rect x="1025.3" y="134.862" width="7.51638" height="170.77" transform="rotate(-135 1025.3 134.862)" fill="#FEFCF0"/>
<rect x="1036.61" y="146.181" width="3.87942" height="170.77" transform="rotate(-135 1036.61 146.181)" fill="#FEFCF0"/>
<rect x="1046.55" y="156.124" width="1.45478" height="170.77" transform="rotate(-135 1046.55 156.124)" fill="#FEFCF0"/>
<rect x="1055.7" y="164.066" width="0.533761" height="170.77" transform="rotate(-135 1055.7 164.066)" fill="#FEFCF0"/>
</g>
<circle cx="852.251" cy="57.2514" r="56.2514" fill="#FEFCF0"/>
<circle cx="852.251" cy="169.755" r="56.2514" fill="#FEFCF0"/>
<circle cx="964.747" cy="57.2514" r="56.2514" fill="#FEFCF0"/>
<circle cx="964.747" cy="169.755" r="56.2514" fill="#FEFCF0"/>
<g clip-path="url(#clip4_1_19)">
<circle cx="796.406" cy="76.5" r="75.5" fill="#FEFCF0"/>
<circle cx="645.406" cy="76.5" r="75.5" fill="#FEFCF0"/>
</g>
<g clip-path="url(#clip5_1_19)">
<circle cx="1747.25" cy="47" r="46" fill="#FEFCF0"/>
<circle cx="1655.25" cy="47" r="46" fill="#FEFCF0"/>
</g>
<mask id="mask1_1_19" style="mask-type:alpha" maskUnits="userSpaceOnUse" x="368" y="1" width="277" height="277">
<rect x="368" y="1" width="277" height="277" fill="#E93223"/>
</mask>
<g mask="url(#mask1_1_19)">
<path d="M360.191 95.1539L506.62 40.0759L653.049 95.1539M360.191 17.2658L506.62 -37.8122L653.049 17.2658M360.191 -60.6223L506.62 -115.7L653.049 -60.6223M360.191 -138.51L506.62 -193.588L653.049 -138.51M360.191 400.587L506.62 345.509L653.049 400.587M360.191 322.698L506.62 267.62L653.049 322.698M360.191 244.81L506.62 189.732L653.049 244.81M360.191 166.922L506.62 111.844L653.049 166.922" stroke="#FEFCF0" stroke-width="45.2938"/>
</g>
<g clip-path="url(#clip6_1_19)">
<path d="M183.5 0.500016C183.5 12.6473 185.893 24.6756 190.541 35.8982C195.19 47.1208 202.003 57.318 210.593 65.9074C219.182 74.4968 229.379 81.3103 240.602 85.9589C251.824 90.6074 263.853 93 276 93L276 0.500008L183.5 0.500016Z" fill="#FEFCF0"/>
<path d="M368.5 0.500001C356.353 0.500001 344.324 2.89258 333.102 7.54114C321.879 12.1897 311.682 19.0032 303.093 27.5926C294.503 36.182 287.69 46.3792 283.041 57.6018C278.393 68.8244 276 80.8527 276 93L368.5 93L368.5 0.500001Z" fill="#FEFCF0"/>
<path d="M368.5 185C368.5 172.853 366.107 160.824 361.459 149.602C356.81 138.379 349.997 128.182 341.407 119.593C332.818 111.003 322.621 104.19 311.398 99.5411C300.176 94.8926 288.147 92.5 276 92.5L276 185L368.5 185Z" fill="#FEFCF0"/>
<path d="M183.5 185C195.647 185 207.676 182.607 218.898 177.959C230.121 173.31 240.318 166.497 248.907 157.907C257.497 149.318 264.31 139.121 268.959 127.898C273.607 116.676 276 104.647 276 92.5L183.5 92.5L183.5 185Z" fill="#FEFCF0"/>
</g>
<g clip-path="url(#clip7_1_19)">
<path d="M1470.5 0.500016C1470.5 12.6473 1472.89 24.6756 1477.54 35.8982C1482.19 47.1208 1489 57.318 1497.59 65.9074C1506.18 74.4968 1516.38 81.3103 1527.6 85.9589C1538.82 90.6074 1550.85 93 1563 93L1563 0.500008L1470.5 0.500016Z" fill="#FEFCF0"/>
<path d="M1655.5 0.500001C1643.35 0.500001 1631.32 2.89258 1620.1 7.54114C1608.88 12.1897 1598.68 19.0032 1590.09 27.5926C1581.5 36.182 1574.69 46.3792 1570.04 57.6018C1565.39 68.8244 1563 80.8527 1563 93L1655.5 93L1655.5 0.500001Z" fill="#FEFCF0"/>
<path d="M1655.5 185C1655.5 172.853 1653.11 160.824 1648.46 149.602C1643.81 138.379 1637 128.182 1628.41 119.593C1619.82 111.003 1609.62 104.19 1598.4 99.5411C1587.18 94.8926 1575.15 92.5 1563 92.5L1563 185L1655.5 185Z" fill="#FEFCF0"/>
<path d="M1470.5 185C1482.65 185 1494.68 182.607 1505.9 177.959C1517.12 173.31 1527.32 166.497 1535.91 157.907C1544.5 149.318 1551.31 139.121 1555.96 127.898C1560.61 116.676 1563 104.647 1563 92.5L1470.5 92.5L1470.5 185Z" fill="#FEFCF0"/>
</g>
<g clip-path="url(#clip8_1_19)">
<circle cx="184.5" cy="1.5" r="92.5" fill="#FEFCF0"/>
<circle cx="184.5" cy="186.5" r="92.5" fill="#FEFCF0"/>
<circle cx="-0.5" cy="1.5" r="92.5" fill="#FEFCF0"/>
<circle cx="-0.5" cy="186.5" r="92.5" fill="#FEFCF0"/>
</g>
</g>
<defs>
<clipPath id="clip0_1_19">
<rect width="1920" height="9843" fill="white" transform="translate(0 -9291)"/>
</clipPath>
<clipPath id="clip1_1_19">
<rect width="172" height="172" fill="white" transform="translate(1747 1.36426)"/>
</clipPath>
<clipPath id="clip2_1_19">
<rect width="113" height="113" fill="white" transform="translate(1133 1)"/>
</clipPath>
<clipPath id="clip3_1_19">
<rect width="113" height="113" fill="white" transform="translate(1020 1)"/>
</clipPath>
<clipPath id="clip4_1_19">
<rect width="151" height="151" fill="white" transform="translate(645 1)"/>
</clipPath>
<clipPath id="clip5_1_19">
<rect width="92" height="92" fill="white" transform="translate(1655 1)"/>
</clipPath>
<clipPath id="clip6_1_19">
<rect width="185" height="185" fill="white" transform="translate(184)"/>
</clipPath>
<clipPath id="clip7_1_19">
<rect width="185" height="185" fill="white" transform="translate(1471)"/>
</clipPath>
<clipPath id="clip8_1_19">
<rect width="185" height="185" fill="white" transform="translate(-1 1)"/>
</clipPath>
</defs>
</svg>
