<svg width="69" height="65" viewBox="0 0 69 65" fill="none" xmlns="http://www.w3.org/2000/svg">
<rect x="-32" y="-9" width="1921" height="100" fill="#DE5952"/>
<path d="M9.56407 55.3721C9.42252 55.3723 9.2824 55.3437 9.15229 55.288C9.02217 55.2323 8.90479 55.1506 8.80733 55.0479C3.14102 49.1076 -0.0139634 41.2095 4.64597e-05 33C4.64597e-05 15.3557 14.3557 1 32 1C32.2772 1 32.5431 1.11011 32.7391 1.30612C32.9351 1.50213 33.0452 1.76797 33.0452 2.04516C33.0452 2.32235 32.9351 2.58819 32.7391 2.7842C32.5431 2.9802 32.2772 3.09032 32 3.09032C15.5079 3.09032 2.09036 16.5079 2.09036 33C2.07675 40.6732 5.02571 48.0554 10.3223 53.6073C10.4652 53.7548 10.5612 53.9413 10.5983 54.1432C10.6355 54.3452 10.612 54.5536 10.531 54.7422C10.4499 54.9309 10.3149 55.0914 10.1428 55.2034C9.97075 55.3155 9.76939 55.3742 9.56407 55.3721V55.3721Z" fill="#FEFCF0"/>
<path d="M32.002 64.9997C28.8729 65.0023 25.7604 64.5465 22.7635 63.6468C22.498 63.5668 22.2751 63.3845 22.1439 63.1402C22.0127 62.8958 21.984 62.6093 22.064 62.3437C22.1441 62.0782 22.3263 61.8553 22.5707 61.7241C22.8151 61.5929 23.1016 61.5642 23.3671 61.6442C26.1681 62.4857 29.0773 62.912 32.002 62.9094C48.4941 62.9094 61.9116 49.4919 61.9116 32.9998C61.921 28.7707 61.0268 24.5884 59.2891 20.7329C59.2331 20.6077 59.2024 20.4728 59.1986 20.3358C59.1948 20.1987 59.2181 20.0623 59.267 19.9343C59.3159 19.8062 59.3896 19.6891 59.4838 19.5895C59.5781 19.4899 59.691 19.4099 59.8161 19.354C59.9413 19.298 60.0762 19.2673 60.2132 19.2635C60.3503 19.2597 60.4867 19.283 60.6147 19.3319C60.7428 19.3808 60.8599 19.4545 60.9595 19.5487C61.0591 19.643 61.1391 19.7559 61.195 19.881C63.0554 24.0059 64.0124 28.4808 64.002 33.0057C64.002 50.6455 49.6477 64.9997 32.002 64.9997ZM56.9787 15.7613C56.8143 15.762 56.652 15.7237 56.5052 15.6495C56.3584 15.5753 56.2313 15.4674 56.1343 15.3346C55.8577 14.957 55.5678 14.5809 55.272 14.2137C55.1858 14.1069 55.1215 13.9841 55.0827 13.8525C55.0439 13.7208 55.0315 13.5828 55.046 13.4464C55.0606 13.3099 55.1019 13.1776 55.1676 13.0571C55.2333 12.9366 55.322 12.8302 55.4288 12.744C55.6445 12.57 55.9205 12.4887 56.1961 12.5181C56.4717 12.5475 56.7244 12.6852 56.8984 12.9009C57.2136 13.2919 57.5243 13.6948 57.8202 14.0992C57.9358 14.2544 58.0058 14.4388 58.0223 14.6316C58.0389 14.8244 58.0013 15.018 57.9139 15.1907C57.8265 15.3634 57.6927 15.5082 57.5275 15.609C57.3623 15.7098 57.1722 15.7626 56.9787 15.7613V15.7613ZM51.5225 10.0211C51.2824 10.0211 51.0497 9.93815 50.8639 9.78623C50.4996 9.48888 50.1205 9.19154 49.7459 8.91947C49.6358 8.83796 49.543 8.73558 49.4725 8.61817C49.4021 8.50076 49.3554 8.37063 49.3353 8.2352C49.3151 8.09977 49.3218 7.96169 49.355 7.82886C49.3883 7.69602 49.4473 7.57103 49.5288 7.46101C49.6103 7.35099 49.7127 7.25811 49.8301 7.18766C49.9475 7.11721 50.0777 7.07058 50.2131 7.05042C50.3485 7.03027 50.4866 7.03698 50.6194 7.07019C50.7523 7.10339 50.8773 7.16244 50.9873 7.24395C51.3917 7.54129 51.7931 7.8535 52.1766 8.17017C52.3472 8.30502 52.4712 8.48988 52.5313 8.6988C52.5914 8.90773 52.5845 9.13022 52.5117 9.33506C52.4389 9.5399 52.3038 9.71679 52.1253 9.8409C51.9468 9.96502 51.7339 10.0301 51.5165 10.0271L51.5225 10.0211Z" fill="#FEFCF0"/>
<path d="M23.393 32.0722C21.0143 32.0722 18.5612 31.5271 16.0338 30.4368C15.8884 30.374 15.7592 30.2788 15.6561 30.1585C15.5531 30.0382 15.4789 29.8959 15.4391 29.7426C15.3529 29.414 13.3904 21.6355 18.5716 14.7669C23.2905 8.5123 32.2494 5.19991 45.1838 4.92338C45.3422 4.92203 45.499 4.95618 45.6426 5.02332C45.7861 5.09047 45.9128 5.18891 46.0134 5.31141C46.114 5.43679 46.1843 5.5838 46.2186 5.74089C46.2529 5.89798 46.2503 6.06088 46.2111 6.21682C46.0208 6.97653 41.4164 24.9137 30.1784 30.4636C28.0725 31.5204 25.7492 32.0712 23.393 32.0722V32.0722ZM17.36 28.7212C21.612 30.4324 25.6097 30.3893 29.2537 28.5918C37.9405 24.2982 42.5181 11.2806 43.7996 7.05086C32.3237 7.51026 24.407 10.5149 20.2576 15.9964C16.3743 21.1241 17.0537 27.0085 17.36 28.7182V28.7212Z" fill="#FEFCF0"/>
<path d="M16.0551 60.2963C15.5705 60.2963 15.1468 60.3855 15.0368 59.9083C11.9042 46.2231 12.3874 35.4266 16.4699 27.3998C19.592 21.2686 23.6939 19.4043 23.8663 19.3225C24.3897 19.0787 25.0126 19.3582 25.2564 19.8815C25.3736 20.136 25.3869 20.4262 25.2933 20.6903C25.1997 20.9544 25.0067 21.1715 24.7554 21.2954C24.6885 21.3281 21.0178 23.1627 18.2495 28.7111C15.9035 33.4165 13.7894 41.7436 16.1681 55.3456C16.7218 53.6549 17.3975 52.0068 18.1901 50.4141C20.5435 45.679 25.0944 39.298 33.3813 35.7893C33.5082 35.736 33.6444 35.7083 33.782 35.7076C33.9196 35.7069 34.0561 35.7333 34.1835 35.7854C34.3109 35.8374 34.4268 35.9141 34.5247 36.0109C34.6225 36.1078 34.7002 36.2229 34.7535 36.3498C34.8068 36.4767 34.8346 36.6129 34.8353 36.7505C34.836 36.8882 34.8095 37.0246 34.7575 37.152C34.7054 37.2795 34.6288 37.3954 34.532 37.4932C34.4351 37.591 34.3199 37.6688 34.193 37.7221C19.4449 43.9663 17.1152 59.6526 17.0958 59.8146C17.0289 60.3156 16.6127 60.2963 16.1087 60.2963H16.0551Z" fill="#FEFCF0"/>
<path d="M36.1979 45.1553C32.9272 45.1553 29.7397 43.9526 26.683 41.5605C26.5544 41.4605 26.4511 41.3317 26.3814 41.1845C26.3117 41.0373 26.2775 40.8758 26.2816 40.713C26.2816 40.4499 26.4912 34.231 31.9088 30.2124C37.0335 26.4227 44.9012 25.9559 55.3081 28.8535C55.4614 28.8951 55.6032 28.9712 55.7225 29.0761C55.8419 29.1809 55.9356 29.3116 55.9966 29.4583C56.0576 29.605 56.0842 29.7637 56.0744 29.9222C56.0646 30.0807 56.0186 30.2349 55.94 30.3729C55.6516 30.8844 48.7815 42.9148 38.9008 44.8877C38.0108 45.0653 37.1055 45.155 36.1979 45.1553V45.1553ZM28.415 40.2492C31.6709 42.6487 35.0576 43.5199 38.4905 42.8331C45.7397 41.385 51.4561 33.504 53.4007 30.5038C44.3318 28.186 37.5211 28.6513 33.1546 31.8909C29.3814 34.6933 28.5815 38.8219 28.415 40.2492Z" fill="#FEFCF0"/>
</svg>
