<svg width="93" height="93" viewBox="0 0 93 93" fill="none" xmlns="http://www.w3.org/2000/svg">
<path fill-rule="evenodd" clip-rule="evenodd" d="M46.5 93C72.1812 93 93 72.1812 93 46.5C93 20.8188 72.1812 0 46.5 0C20.8188 0 0 20.8188 0 46.5C0 72.1812 20.8188 93 46.5 93ZM59.3245 18.2026C59.5356 17.7363 60.127 17.5899 60.5313 17.9037L74.672 28.8785C75.0569 29.1773 75.0833 29.7496 74.7273 30.0824L50.2082 53.0103C49.7193 53.4675 48.9189 53.1494 48.8771 52.4813L48.5292 46.9148C48.5194 46.758 48.5565 46.6018 48.6357 46.4661L59.1925 28.3905C59.2929 28.2185 59.3249 28.0149 59.2819 27.8203L57.9246 21.6769C57.8877 21.5098 57.9059 21.3353 57.9765 21.1794L59.3245 18.2026ZM54.6951 30.4613C55.3065 30.4613 55.6872 31.1248 55.3787 31.6527L45.6748 48.2572C45.5949 48.3939 45.5578 48.5514 45.5684 48.7094L46.0729 56.2771C46.0887 56.514 45.9973 56.7455 45.824 56.9078L42.5425 59.9798C42.471 60.0467 42.3877 60.0998 42.2969 60.1363L17.4741 70.1251C16.9794 70.3241 16.4334 69.9873 16.3893 69.456L15.9032 64.4913C15.8834 64.2525 15.9728 64.0176 16.1464 63.8524L29.5606 50.1863C29.6706 50.0816 29.7481 49.9475 29.784 49.7999L31.5376 42.588C31.6438 42.1513 32.0918 41.8904 32.5241 42.0136L37.9165 43.5504C38.3334 43.6692 38.7682 43.4308 38.8923 43.0155L39.0831 42.3769C39.2093 41.9541 38.9657 41.5097 38.5414 41.3887L32.9966 39.8085C32.5876 39.692 32.3437 39.2731 32.4442 38.8599L33.058 36.3357C33.1641 35.8992 33.6117 35.6383 34.0439 35.7611L39.8769 37.4191C40.2934 37.5374 40.7278 37.2994 40.852 36.8846L41.043 36.2469C41.1697 35.8238 40.9258 35.3788 40.5009 35.258L34.5172 33.5573C34.1079 33.4409 33.8637 33.022 33.9643 32.6085L35.8662 24.787C35.9279 24.5332 36.1108 24.3262 36.3551 24.2336L45.258 20.8613C45.7542 20.6734 46.2912 21.017 46.3284 21.5463L46.9035 29.725C46.9326 30.1398 47.2776 30.4613 47.6934 30.4613H54.6951ZM19.0914 74.9071C19.2952 75.2165 19.6864 75.3433 20.033 75.2121L50.4157 63.7139C50.4985 63.6826 50.5755 63.6376 50.6434 63.5808L83.9662 35.7108C84.3888 35.3573 84.3303 34.6911 83.8525 34.4167L77.4749 30.7543C77.172 30.5804 76.7909 30.6254 76.5369 30.8653L43.4829 62.0787C43.4081 62.1493 43.3204 62.2046 43.2245 62.2417L18.2517 71.8868C17.7807 72.0688 17.598 72.6392 17.8757 73.061L19.0914 74.9071Z" fill="#FEFCF0"/>
</svg>
