<svg width="504" height="156" viewBox="0 0 504 156" fill="none" xmlns="http://www.w3.org/2000/svg">
<g clip-path="url(#clip0_10_527)">
<path d="M160.244 -4.15418L191.013 77.6464L160.244 159.447M203.756 -4.15418L234.524 77.6464L203.756 159.447M247.267 -4.15418L278.036 77.6464L247.267 159.447M290.778 -4.15418L321.547 77.6464L290.778 159.447M33.1295 -4.15419L63.8981 77.6464L33.1294 159.447M76.6407 -4.15419L107.409 77.6464L76.6407 159.447M120.152 -4.15418L150.921 77.6464L120.152 159.447" stroke="#D7FD8A" stroke-width="18.0744"/>
<path d="M502.963 -4.15418L533.732 77.6464L502.963 159.447M546.474 -4.15418L577.243 77.6464L546.474 159.447M589.986 -4.15418L620.754 77.6464L589.986 159.447M633.497 -4.15418L664.266 77.6464L633.497 159.447M332.337 -4.15419L363.106 77.6464L332.337 159.447M375.848 -4.15419L406.617 77.6464L375.848 159.447M419.359 -4.15419L450.128 77.6464L419.359 159.447M462.871 -4.15418L493.639 77.6464L462.871 159.447" stroke="#D7FD8A" stroke-width="18.0744"/>
</g>
<defs>
<clipPath id="clip0_10_527">
<rect width="997" height="155.781" fill="white"/>
</clipPath>
</defs>
</svg>
