<svg width="504" height="156" viewBox="0 0 504 156" fill="none" xmlns="http://www.w3.org/2000/svg">
<g clip-path="url(#clip0_10_523)">
<path d="M9.96321 -4.15418L40.7319 77.6464L9.9632 159.447M53.4745 -4.15418L84.2431 77.6464L53.4744 159.447M96.9857 -4.15418L127.754 77.6464L96.9857 159.447M140.497 -4.15418L171.266 77.6464L140.497 159.447M-160.663 -4.15419L-129.894 77.6464L-160.663 159.447M-117.152 -4.15419L-86.3832 77.6464L-117.152 159.447M-73.6406 -4.15419L-42.8719 77.6464L-73.6406 159.447M-30.1293 -4.15418L0.639354 77.6464L-30.1293 159.447" stroke="#D7FD8A" stroke-width="18.0744"/>
<path d="M312.627 -5.00001L343.396 76.8006L312.627 158.601M356.139 -5.00001L386.907 76.8006L356.139 158.601M399.65 -5L430.418 76.8006L399.65 158.601M443.161 -5L473.93 76.8006L443.161 158.601M142.001 -5.00001L172.77 76.8006L142.001 158.601M185.512 -5.00001L216.281 76.8006L185.512 158.601M229.024 -5.00001L259.792 76.8006L229.024 158.601M272.535 -5.00001L303.303 76.8006L272.535 158.601" stroke="#D7FD8A" stroke-width="18.0744"/>
</g>
<defs>
<clipPath id="clip0_10_523">
<rect width="997" height="155.781" fill="white" transform="translate(-493)"/>
</clipPath>
</defs>
</svg>
