<svg width="318" height="833" viewBox="0 0 318 833" fill="none" xmlns="http://www.w3.org/2000/svg">
<g clip-path="url(#clip0_508_212)">
<path d="M0.388021 139.613C0.388022 154.513 3.32281 169.267 9.02482 183.033C14.7268 196.799 23.0844 209.307 33.6203 219.843C44.1563 230.379 56.6643 238.737 70.4301 244.439C84.196 250.141 98.9502 253.075 113.85 253.075L113.85 139.613L0.388021 139.613Z" fill="#DE5952"/>
<path d="M227.314 139.613C212.414 139.613 197.66 142.548 183.894 148.25C170.128 153.952 157.62 162.31 147.084 172.845C136.548 183.381 128.19 195.889 122.488 209.655C116.786 223.421 113.852 238.175 113.852 253.075L227.314 253.075L227.314 139.613Z" fill="#DE5952"/>
<path d="M227.307 365.923C227.307 351.023 224.372 336.269 218.67 322.503C212.968 308.737 204.611 296.229 194.075 285.694C183.539 275.158 171.031 266.8 157.265 261.098C143.499 255.396 128.745 252.461 113.845 252.461L113.845 365.923L227.307 365.923Z" fill="#DE5952"/>
<path d="M0.381493 365.923C15.2816 365.923 30.0357 362.988 43.8016 357.286C57.5675 351.584 70.0755 343.227 80.6114 332.691C91.1474 322.155 99.5049 309.647 105.207 295.881C110.909 282.115 113.844 267.361 113.844 252.461L0.381504 252.461L0.381493 365.923Z" fill="#DE5952"/>
</g>
<circle cx="34.9979" cy="34.9979" r="34.9979" fill="#D7FD8A"/>
<circle cx="34.9979" cy="104.995" r="34.9979" fill="#D7FD8A"/>
<circle cx="104.99" cy="34.9979" r="34.9979" fill="#D7FD8A"/>
<circle cx="104.99" cy="104.995" r="34.9979" fill="#D7FD8A"/>
<g clip-path="url(#clip1_508_212)">
<circle cx="252.398" cy="620.501" r="73.5" fill="#DE5952"/>
<circle cx="105.398" cy="620.501" r="73.5" fill="#DE5952"/>
</g>
<mask id="mask0_508_212" style="mask-type:alpha" maskUnits="userSpaceOnUse" x="-2" y="366" width="181" height="181">
<rect x="-2" y="366" width="181" height="181" fill="#E93223"/>
</mask>
<g mask="url(#mask0_508_212)">
<path d="M-7.10938 427.522L88.5714 391.532L184.252 427.522M-7.10938 376.628L88.5714 340.638L184.252 376.628M-7.10938 325.733L88.5714 289.744L184.252 325.733M-7.10938 274.839L88.5714 238.849L184.252 274.839M-7.10938 627.101L88.5714 591.111L184.252 627.101M-7.10938 576.206L88.5714 540.217L184.252 576.206M-7.10938 525.312L88.5714 489.322L184.252 525.312M-7.10938 474.417L88.5714 438.428L184.252 474.417" stroke="#D7FD8A" stroke-width="29.5963"/>
</g>
<g clip-path="url(#clip2_508_212)">
<mask id="mask1_508_212" style="mask-type:alpha" maskUnits="userSpaceOnUse" x="179" y="366" width="139" height="139">
<circle cx="248.304" cy="435.304" r="69.304" fill="#D9D9D9"/>
</mask>
<g mask="url(#mask1_508_212)">
<circle cx="317.984" cy="366.374" r="69.304" fill="#DE5952"/>
<circle cx="317.984" cy="504.983" r="69.304" fill="#DE5952"/>
<circle cx="179.374" cy="366.374" r="69.304" fill="#DE5952"/>
<circle cx="179.374" cy="504.983" r="69.304" fill="#DE5952"/>
</g>
</g>
<g clip-path="url(#clip3_508_212)">
<rect x="-11.9766" y="819.714" width="20.2239" height="209.47" transform="rotate(-135 -11.9766 819.714)" fill="#DE5952"/>
<rect x="-37.0156" y="794.683" width="30.9307" height="209.47" transform="rotate(-135 -37.0156 794.683)" fill="#DE5952"/>
<rect x="9.25781" y="840.961" width="14.8705" height="209.47" transform="rotate(-135 9.25781 840.961)" fill="#DE5952"/>
<rect x="26.5" y="858.197" width="9.21973" height="209.47" transform="rotate(-135 26.5 858.197)" fill="#DE5952"/>
<rect x="40.3828" y="872.081" width="4.75857" height="209.47" transform="rotate(-135 40.3828 872.081)" fill="#DE5952"/>
<rect x="52.5781" y="884.277" width="1.78446" height="209.47" transform="rotate(-135 52.5781 884.277)" fill="#DE5952"/>
<rect x="63.7891" y="894.019" width="0.654721" height="209.47" transform="rotate(-135 63.7891 894.019)" fill="#DE5952"/>
</g>
<defs>
<clipPath id="clip0_508_212">
<rect width="226.924" height="226.924" fill="white" transform="translate(1 139)"/>
</clipPath>
<clipPath id="clip1_508_212">
<rect width="147" height="147" fill="white" transform="translate(105 547)"/>
</clipPath>
<clipPath id="clip2_508_212">
<rect width="138.608" height="138.608" fill="white" transform="translate(179 366)"/>
</clipPath>
<clipPath id="clip3_508_212">
<rect width="138.608" height="138.608" fill="white" transform="translate(20 694)"/>
</clipPath>
</defs>
</svg>
