<svg width="318" height="734" viewBox="0 0 318 734" fill="none" xmlns="http://www.w3.org/2000/svg">
<rect x="318.359" y="0.00402832" width="45.0259" height="45.0259" transform="rotate(90 318.359 0.00402832)" fill="#DE5952"/>
<rect x="318.359" y="180.106" width="45.0259" height="45.0259" transform="rotate(90 318.359 180.106)" fill="#DE5952"/>
<rect x="318.359" y="90.0531" width="45.0259" height="45.0259" transform="rotate(90 318.359 90.0531)" fill="#DE5952"/>
<rect x="273.336" y="45.0302" width="45.0259" height="45.0259" transform="rotate(90 273.336 45.0302)" fill="#DE5952"/>
<rect x="273.336" y="135.087" width="45.0259" height="45.0259" transform="rotate(90 273.336 135.087)" fill="#DE5952"/>
<rect x="228.305" y="0.00402832" width="45.0259" height="45.0259" transform="rotate(90 228.305 0.00402832)" fill="#DE5952"/>
<rect x="228.305" y="180.106" width="45.0259" height="45.0259" transform="rotate(90 228.305 180.106)" fill="#DE5952"/>
<rect x="228.305" y="90.0531" width="45.0259" height="45.0259" transform="rotate(90 228.305 90.0531)" fill="#DE5952"/>
<rect x="183.273" y="45.0302" width="45.0259" height="45.0259" transform="rotate(90 183.273 45.0302)" fill="#DE5952"/>
<rect x="183.281" y="135.087" width="45.0259" height="45.0259" transform="rotate(90 183.281 135.087)" fill="#DE5952"/>
<rect x="138.258" y="0.00402832" width="45.0259" height="45.0259" transform="rotate(90 138.258 0.00402832)" fill="#DE5952"/>
<rect x="138.25" y="180.106" width="45.0259" height="45.0259" transform="rotate(90 138.25 180.106)" fill="#DE5952"/>
<rect x="138.25" y="90.0531" width="45.0259" height="45.0259" transform="rotate(90 138.25 90.0531)" fill="#DE5952"/>
<g clip-path="url(#clip0_508_213)">
<path d="M147.194 395.037C147.194 406.243 149.401 417.339 153.69 427.692C157.978 438.045 164.264 447.452 172.187 455.376C180.111 463.3 189.518 469.585 199.871 473.874C210.224 478.162 221.321 480.369 232.527 480.369L232.527 395.037L147.194 395.037Z" fill="#D7FD8A"/>
<path d="M317.856 395.037C306.65 395.037 295.554 397.244 285.201 401.533C274.848 405.821 265.441 412.107 257.517 420.03C249.593 427.954 243.307 437.361 239.019 447.714C234.731 458.067 232.523 469.164 232.523 480.37L317.856 480.37L317.856 395.037Z" fill="#D7FD8A"/>
<path d="M317.853 565.241C317.853 554.035 315.646 542.939 311.357 532.586C307.069 522.233 300.783 512.826 292.859 504.902C284.936 496.978 275.529 490.692 265.176 486.404C254.823 482.116 243.726 479.909 232.52 479.909L232.52 565.241L317.853 565.241Z" fill="#D7FD8A"/>
<path d="M147.191 565.241C158.397 565.241 169.493 563.034 179.846 558.745C190.199 554.457 199.606 548.171 207.53 540.248C215.454 532.324 221.739 522.917 226.028 512.564C230.316 502.211 232.523 491.114 232.523 479.908L147.191 479.908L147.191 565.241Z" fill="#D7FD8A"/>
</g>
<circle cx="74.3611" cy="423.613" r="61.4958" transform="rotate(90 74.3611 423.613)" stroke="#DE5952" stroke-width="25.7237"/>
<rect x="101.289" y="423.776" width="38.5856" height="38.5856" transform="rotate(135 101.289 423.776)" fill="#DE5952"/>
<g clip-path="url(#clip1_508_213)">
<path d="M-26.2422 260.713C-12.4254 249.957 25.0262 234.898 64.298 260.713C103.57 286.528 144.511 271.469 160.073 260.713" stroke="#D7FD8A" stroke-width="10.0495" stroke-linecap="round" stroke-linejoin="round"/>
<path d="M-26.2422 236.766C-12.4254 226.01 25.0262 210.951 64.298 236.766C103.57 262.581 144.511 247.522 160.073 236.766" stroke="#D7FD8A" stroke-width="10.0495" stroke-linecap="round" stroke-linejoin="round"/>
<path d="M-26.2422 213.105C-12.4254 202.564 25.0262 187.806 64.298 213.105C103.57 238.403 144.511 223.646 160.073 213.105" stroke="#D7FD8A" stroke-width="10.0495" stroke-linecap="round" stroke-linejoin="round"/>
<path d="M-28.8906 284.087C-15.0248 273.761 22.5596 259.305 61.9706 284.087C101.382 308.869 142.468 294.413 158.085 284.087" stroke="#D7FD8A" stroke-width="10.0495" stroke-linecap="round" stroke-linejoin="round"/>
<path d="M-30.8672 307.179C-17.0504 296.638 20.4012 281.881 59.673 307.179C98.9448 332.477 139.886 317.72 155.448 307.179" stroke="#D7FD8A" stroke-width="10.0495" stroke-linecap="round" stroke-linejoin="round"/>
<path d="M-30.8672 330.841C-17.0504 320.084 20.4012 305.026 59.673 330.841C98.9448 356.655 139.886 341.597 155.448 330.841" stroke="#D7FD8A" stroke-width="10.0495" stroke-linecap="round" stroke-linejoin="round"/>
<path d="M-30.8672 354.5C-17.0504 343.959 20.4012 329.202 59.673 354.5C98.9448 379.799 139.886 365.041 155.448 354.5" stroke="#D7FD8A" stroke-width="10.0495" stroke-linecap="round" stroke-linejoin="round"/>
</g>
<g clip-path="url(#clip2_508_213)">
<circle cx="318.741" cy="225.225" r="85.3423" fill="#DE5952"/>
<circle cx="318.741" cy="395.909" r="85.3423" fill="#DE5952"/>
<circle cx="148.053" cy="225.225" r="85.3423" fill="#DE5952"/>
<circle cx="148.053" cy="395.909" r="85.3423" fill="#DE5952"/>
</g>
<mask id="mask0_508_213" style="mask-type:alpha" maskUnits="userSpaceOnUse" x="65" y="566" width="169" height="169">
<rect x="233.211" y="566.133" width="167.868" height="167.868" transform="rotate(90 233.211 566.133)" fill="#E93223"/>
</mask>
<g mask="url(#mask0_508_213)">
<path d="M176.149 561.405L209.527 650.143L176.149 738.882M223.351 561.405L256.729 650.143L223.351 738.882M270.552 561.405L303.931 650.143L270.552 738.882M317.754 561.405L351.133 650.143L317.754 738.882M-8.95011 561.405L24.4284 650.143L-8.95012 738.882M38.2518 561.405L71.6302 650.143L38.2518 738.882M85.4537 561.405L118.832 650.143L85.4536 738.882M132.656 561.405L166.034 650.143L132.656 738.882" stroke="#DE5952" stroke-width="19.6075"/>
</g>
<defs>
<clipPath id="clip0_508_213">
<rect width="170.665" height="170.665" fill="white" transform="translate(147.664 394.576)"/>
</clipPath>
<clipPath id="clip1_508_213">
<rect width="122.101" height="122.101" fill="white" transform="translate(25.9141 224.763)"/>
</clipPath>
<clipPath id="clip2_508_213">
<rect width="170.685" height="170.685" fill="white" transform="translate(147.594 224.763)"/>
</clipPath>
</defs>
</svg>
