<svg width="1920" height="365" viewBox="0 0 1920 365" fill="none" xmlns="http://www.w3.org/2000/svg">
<circle cx="1417.5" cy="227.499" r="45.4992" fill="#FEFCF0"/>
<circle cx="1417.5" cy="318.499" r="45.4992" fill="#FEFCF0"/>
<circle cx="1508.49" cy="227.499" r="45.4992" fill="#FEFCF0"/>
<circle cx="1508.49" cy="318.499" r="45.4992" fill="#FEFCF0"/>
<g clip-path="url(#clip0_10_245)">
<circle cx="1372.26" cy="317" r="48" fill="#FEFCF0"/>
<circle cx="1276.26" cy="317" r="48" fill="#FEFCF0"/>
<circle cx="1372.26" cy="317" r="48" fill="#FEFCF0"/>
<circle cx="1276.26" cy="317" r="48" fill="#FEFCF0"/>
</g>
<g clip-path="url(#clip1_10_245)">
<path d="M1553.01 0.988725C1553.01 25.0157 1557.75 48.8073 1566.94 71.0053C1576.13 93.2033 1589.61 113.373 1606.6 130.363C1623.59 147.352 1643.76 160.829 1665.96 170.024C1688.16 179.218 1711.95 183.951 1735.98 183.951L1735.98 0.988709L1553.01 0.988725Z" fill="#FEFCF0"/>
<path d="M1918.94 0.988863C1894.91 0.988863 1871.12 5.72132 1848.92 14.916C1826.72 24.1107 1806.55 37.5876 1789.56 54.5773C1772.58 71.5669 1759.1 91.7365 1749.9 113.934C1740.71 136.132 1735.98 159.924 1735.98 183.951L1918.94 183.951L1918.94 0.988863Z" fill="#FEFCF0"/>
<path d="M1918.93 365.923C1918.93 341.896 1914.2 318.104 1905.01 295.906C1895.81 273.708 1882.33 253.539 1865.34 236.549C1848.35 219.559 1828.18 206.083 1805.99 196.888C1783.79 187.693 1760 182.961 1735.97 182.961L1735.97 365.923L1918.93 365.923Z" fill="#FEFCF0"/>
<path d="M1553.01 365.922C1577.03 365.923 1600.83 361.19 1623.02 351.995C1645.22 342.801 1665.39 329.324 1682.38 312.334C1699.37 295.344 1712.85 275.175 1722.04 252.977C1731.24 230.779 1735.97 206.987 1735.97 182.96L1553.01 182.96L1553.01 365.922Z" fill="#FEFCF0"/>
</g>
<mask id="mask0_10_245" style="mask-type:alpha" maskUnits="userSpaceOnUse" x="0" y="108" width="264" height="256">
<rect y="108" width="264" height="255.563" fill="#E93223"/>
</mask>
<g mask="url(#mask0_10_245)">
<path d="M-7.44531 194.868L132.111 144.052L271.668 194.868M-7.44531 123.008L132.111 72.1919L271.668 123.008M-7.44531 51.1471L132.111 0.331437L271.668 51.1471M-7.44531 -20.7134L132.111 -71.5291L271.668 -20.7134M-7.44531 476.664L132.111 425.848L271.668 476.664M-7.44531 404.803L132.111 353.988L271.668 404.803M-7.44531 332.943L132.111 282.127L271.668 332.943M-7.44531 261.082L132.111 210.267L271.668 261.082" stroke="#FEFCF0" stroke-width="43.1681"/>
</g>
<g clip-path="url(#clip2_10_245)">
<mask id="mask1_10_245" style="mask-type:alpha" maskUnits="userSpaceOnUse" x="264" y="226" width="139" height="139">
<circle cx="333.304" cy="295.304" r="69.304" fill="#D9D9D9"/>
</mask>
<g mask="url(#mask1_10_245)">
<circle cx="402.984" cy="226.374" r="69.304" fill="#FEFCF0"/>
<circle cx="402.984" cy="364.982" r="69.304" fill="#FEFCF0"/>
<circle cx="264.374" cy="226.374" r="69.304" fill="#FEFCF0"/>
<circle cx="264.374" cy="364.982" r="69.304" fill="#FEFCF0"/>
</g>
</g>
<defs>
<clipPath id="clip0_10_245">
<rect width="96" height="95.4951" fill="white" transform="translate(1276 269)"/>
</clipPath>
<clipPath id="clip1_10_245">
<rect width="365.924" height="364" fill="white" transform="translate(1554)"/>
</clipPath>
<clipPath id="clip2_10_245">
<rect width="138.608" height="137.879" fill="white" transform="translate(264 226)"/>
</clipPath>
</defs>
</svg>
