<svg width="1920" height="343" viewBox="0 0 1920 343" fill="none" xmlns="http://www.w3.org/2000/svg">
<rect x="1305.69" y="3.22607" width="55.1973" height="55.1973" fill="#DE5952"/>
<rect x="1526.48" y="3.22607" width="55.1973" height="55.1973" fill="#DE5952"/>
<rect x="1416.08" y="3.22607" width="55.1973" height="55.1973" fill="#DE5952"/>
<rect x="1360.89" y="58.4241" width="55.1973" height="55.1973" fill="#DE5952"/>
<rect x="1471.28" y="58.4241" width="55.1973" height="55.1973" fill="#DE5952"/>
<rect x="1305.69" y="113.622" width="55.1973" height="55.1973" fill="#DE5952"/>
<rect x="1526.48" y="113.622" width="55.1973" height="55.1973" fill="#DE5952"/>
<rect x="1416.08" y="113.622" width="55.1973" height="55.1973" fill="#DE5952"/>
<rect x="1360.89" y="168.82" width="55.1973" height="55.1973" fill="#DE5952"/>
<rect x="1471.28" y="168.82" width="55.1973" height="55.1973" fill="#DE5952"/>
<rect x="1305.69" y="224.018" width="55.1973" height="55.1973" fill="#DE5952"/>
<rect x="1526.48" y="224.018" width="55.1973" height="55.1973" fill="#DE5952"/>
<rect x="1416.08" y="224.018" width="55.1973" height="55.1973" fill="#DE5952"/>
<g clip-path="url(#clip0_10_58)">
<mask id="mask0_10_58" style="mask-type:alpha" maskUnits="userSpaceOnUse" x="1167" y="3" width="139" height="139">
<circle cx="1236.38" cy="72.5308" r="69.304" fill="#D9D9D9"/>
</mask>
<g mask="url(#mask0_10_58)">
<circle cx="1306.06" cy="3.60083" r="69.304" fill="#DE5952"/>
<circle cx="1306.06" cy="142.209" r="69.304" fill="#DE5952"/>
<circle cx="1167.45" cy="3.60083" r="69.304" fill="#DE5952"/>
<circle cx="1167.45" cy="142.209" r="69.304" fill="#DE5952"/>
</g>
</g>
<g clip-path="url(#clip1_10_58)">
<rect x="996.492" y="128.941" width="20.2239" height="209.47" transform="rotate(-135 996.492 128.941)" fill="#DE5952"/>
<rect x="971.453" y="103.91" width="30.9307" height="209.47" transform="rotate(-135 971.453 103.91)" fill="#DE5952"/>
<rect x="1017.73" y="150.188" width="14.8705" height="209.47" transform="rotate(-135 1017.73 150.188)" fill="#DE5952"/>
<rect x="1034.97" y="167.423" width="9.21973" height="209.47" transform="rotate(-135 1034.97 167.423)" fill="#DE5952"/>
<rect x="1048.85" y="181.307" width="4.75857" height="209.47" transform="rotate(-135 1048.85 181.307)" fill="#DE5952"/>
<rect x="1061.05" y="193.504" width="1.78446" height="209.47" transform="rotate(-135 1061.05 193.504)" fill="#DE5952"/>
<rect x="1072.26" y="203.246" width="0.654721" height="209.47" transform="rotate(-135 1072.26 203.246)" fill="#DE5952"/>
</g>
<circle cx="821.702" cy="72.226" r="68.999" fill="#DE5952"/>
<circle cx="821.702" cy="210.226" r="68.999" fill="#DE5952"/>
<circle cx="959.694" cy="72.226" r="68.999" fill="#DE5952"/>
<circle cx="959.694" cy="210.226" r="68.999" fill="#DE5952"/>
<g clip-path="url(#clip2_10_58)">
<circle cx="753.719" cy="95.6102" r="92.6097" fill="#DE5952"/>
<circle cx="568.5" cy="95.6102" r="92.6097" fill="#DE5952"/>
</g>
<g clip-path="url(#clip3_10_58)">
<circle cx="1920.53" cy="57.6515" r="56.4245" fill="#DE5952"/>
<circle cx="1807.67" cy="57.6515" r="56.4245" fill="#DE5952"/>
</g>
<mask id="mask1_10_58" style="mask-type:alpha" maskUnits="userSpaceOnUse" x="228" y="3" width="341" height="340">
<rect x="228.703" y="3.22571" width="339.773" height="339.773" fill="#E93223"/>
</mask>
<g mask="url(#mask1_10_58)">
<path d="M219.125 118.717L398.737 51.1575L578.349 118.717M219.125 23.1783L398.737 -44.3815L578.349 23.1783M219.125 -72.3607L398.737 -139.92L578.349 -72.3607M219.125 -167.9L398.737 -235.459L578.349 -167.9M219.125 493.367L398.737 425.807L578.349 493.367M219.125 397.828L398.737 330.268L578.349 397.828M219.125 302.289L398.737 234.729L578.349 302.289M219.125 206.75L398.737 139.19L578.349 206.75" stroke="#DE5952" stroke-width="55.5582"/>
</g>
<g clip-path="url(#clip4_10_58)">
<path d="M-0.62501 3.62307C-0.625009 18.7251 2.34956 33.6792 8.12885 47.6317C13.9081 61.5841 22.379 74.2616 33.0577 84.9403C43.7365 95.6191 56.414 104.09 70.3664 109.869C84.3188 115.648 99.273 118.623 114.375 118.623L114.375 3.62306L-0.62501 3.62307Z" fill="#DE5952"/>
<path d="M229.375 3.62323C214.273 3.62323 199.319 6.59779 185.366 12.3771C171.414 18.1564 158.736 26.6272 148.058 37.306C137.379 47.9847 128.908 60.6622 123.129 74.6146C117.35 88.5671 114.375 103.521 114.375 118.623L229.375 118.623L229.375 3.62323Z" fill="#DE5952"/>
<path d="M229.383 233.001C229.383 217.899 226.408 202.945 220.629 188.992C214.85 175.04 206.379 162.362 195.7 151.684C185.021 141.005 172.344 132.534 158.391 126.755C144.439 120.976 129.485 118.001 114.383 118.001L114.383 233.001L229.383 233.001Z" fill="#DE5952"/>
<path d="M-0.61721 233.001C14.4848 233.001 29.4389 230.026 43.3914 224.247C57.3438 218.468 70.0213 209.997 80.7001 199.318C91.3788 188.639 99.8497 175.962 105.629 162.009C111.408 148.057 114.383 133.103 114.383 118.001L-0.617199 118.001L-0.61721 233.001Z" fill="#DE5952"/>
</g>
<g clip-path="url(#clip5_10_58)">
<path d="M1581.06 0.613103C1581.06 15.5132 1583.99 30.2673 1589.7 44.0332C1595.4 57.7991 1603.76 70.3071 1614.29 80.843C1624.83 91.379 1637.34 99.7365 1651.1 105.439C1664.87 111.141 1679.62 114.075 1694.52 114.075L1694.52 0.613093L1581.06 0.613103Z" fill="#DE5952"/>
<path d="M1807.99 0.613252C1793.09 0.613252 1778.33 3.54804 1764.57 9.25005C1750.8 14.9521 1738.29 23.3096 1727.76 33.8456C1717.22 44.3815 1708.86 56.8895 1703.16 70.6554C1697.46 84.4212 1694.52 99.1754 1694.52 114.075L1807.99 114.075L1807.99 0.613252Z" fill="#DE5952"/>
<path d="M1807.98 226.924C1807.98 212.023 1805.04 197.269 1799.34 183.503C1793.64 169.738 1785.28 157.23 1774.75 146.694C1764.21 136.158 1751.7 127.8 1737.94 122.098C1724.17 116.396 1709.42 113.461 1694.52 113.461L1694.52 226.924L1807.98 226.924Z" fill="#DE5952"/>
<path d="M1581.05 226.923C1595.95 226.923 1610.71 223.989 1624.47 218.287C1638.24 212.585 1650.75 204.227 1661.28 193.691C1671.82 183.155 1680.18 170.647 1685.88 156.881C1691.58 143.115 1694.52 128.361 1694.52 113.461L1581.05 113.461L1581.05 226.923Z" fill="#DE5952"/>
</g>
<defs>
<clipPath id="clip0_10_58">
<rect width="138.608" height="138.608" fill="white" transform="translate(1167.08 3.22656)"/>
</clipPath>
<clipPath id="clip1_10_58">
<rect width="138.608" height="138.608" fill="white" transform="translate(1028.47 3.22656)"/>
</clipPath>
<clipPath id="clip2_10_58">
<rect width="185.219" height="185.219" fill="white" transform="translate(568 3)"/>
</clipPath>
<clipPath id="clip3_10_58">
<rect width="112.849" height="112.849" fill="white" transform="translate(1807.37 1.22656)"/>
</clipPath>
<clipPath id="clip4_10_58">
<rect width="230" height="230" fill="white" transform="translate(0 3)"/>
</clipPath>
<clipPath id="clip5_10_58">
<rect width="226.924" height="226.924" fill="white" transform="translate(1581.67)"/>
</clipPath>
</defs>
</svg>
