<svg width="700" height="533" viewBox="0 0 700 533" fill="none" xmlns="http://www.w3.org/2000/svg">
<path d="M65.16 17.824V15.456L68.968 14.208L71.24 8.992H74.312V13.792H82.376V17.824H74.312V24.448C74.312 25.856 74.6 26.848 75.176 27.424C75.7733 27.9787 76.7973 28.256 78.248 28.256C79.1653 28.256 79.976 28.1707 80.68 28C81.384 27.8293 82.056 27.584 82.696 27.264V31.424C82.0773 31.68 81.256 31.9147 80.232 32.128C79.208 32.3627 78.152 32.48 77.064 32.48C75.1653 32.48 73.6187 32.1813 72.424 31.584C71.2507 30.9653 70.376 30.112 69.8 29.024C69.2453 27.936 68.968 26.6667 68.968 25.216V17.824H65.16ZM85.5473 7.36H90.8913V32H85.5473V7.36ZM97.8353 13.312C99.5633 13.312 101.035 13.664 102.251 14.368C103.467 15.0507 104.395 16.032 105.035 17.312C105.675 18.592 105.995 20.1173 105.995 21.888V32H100.651V22.688C100.651 21.0453 100.257 19.808 99.4673 18.976C98.6779 18.1227 97.5366 17.696 96.0433 17.696C94.9979 17.696 94.0806 17.9307 93.2913 18.4C92.5233 18.848 91.9259 19.4773 91.4993 20.288C91.0939 21.0987 90.8913 22.0693 90.8913 23.2L89.1313 22.272C89.3659 20.352 89.8779 18.7307 90.6673 17.408C91.4779 16.0853 92.5019 15.072 93.7393 14.368C94.9766 13.664 96.3419 13.312 97.8353 13.312ZM109.766 13.6L112.422 14.112L115.11 13.6V32H109.766V13.6ZM112.422 11.712C111.462 11.712 110.673 11.4667 110.054 10.976C109.457 10.464 109.158 9.792 109.158 8.96C109.158 8.10667 109.457 7.43467 110.054 6.944C110.673 6.432 111.462 6.176 112.422 6.176C113.403 6.176 114.193 6.432 114.79 6.944C115.387 7.43467 115.686 8.10667 115.686 8.96C115.686 9.792 115.387 10.464 114.79 10.976C114.193 11.4667 113.403 11.712 112.422 11.712ZM139.077 26.272C139.077 27.5733 138.693 28.6933 137.925 29.632C137.178 30.5707 136.058 31.2853 134.565 31.776C133.072 32.2453 131.248 32.48 129.093 32.48C126.874 32.48 124.944 32.2133 123.301 31.68C121.658 31.1253 120.378 30.3467 119.461 29.344C118.544 28.3413 118.053 27.1787 117.989 25.856H123.429C123.557 26.4533 123.877 26.976 124.389 27.424C124.901 27.8507 125.562 28.1813 126.373 28.416C127.205 28.6507 128.165 28.768 129.253 28.768C130.768 28.768 131.909 28.5973 132.677 28.256C133.466 27.9147 133.861 27.4027 133.861 26.72C133.861 26.2293 133.584 25.856 133.029 25.6C132.496 25.344 131.504 25.152 130.053 25.024L126.661 24.768C124.634 24.5973 123.024 24.256 121.829 23.744C120.634 23.232 119.781 22.592 119.269 21.824C118.778 21.0347 118.533 20.1707 118.533 19.232C118.533 17.9307 118.938 16.8427 119.749 15.968C120.56 15.0933 121.69 14.432 123.141 13.984C124.613 13.536 126.309 13.312 128.229 13.312C130.192 13.312 131.941 13.5787 133.477 14.112C135.013 14.6453 136.24 15.3813 137.157 16.32C138.096 17.2587 138.629 18.3467 138.757 19.584H133.317C133.232 19.136 132.986 18.72 132.581 18.336C132.197 17.9307 131.632 17.6 130.885 17.344C130.138 17.088 129.168 16.96 127.973 16.96C126.629 16.96 125.594 17.12 124.869 17.44C124.144 17.7387 123.781 18.1973 123.781 18.816C123.781 19.2427 124.005 19.5947 124.453 19.872C124.901 20.128 125.733 20.3093 126.949 20.416L131.365 20.768C133.328 20.9387 134.874 21.2693 136.005 21.76C137.136 22.2293 137.925 22.848 138.373 23.616C138.842 24.384 139.077 25.2693 139.077 26.272ZM147.691 17.824V15.456L151.499 14.208L153.771 8.992H156.843V13.792H164.907V17.824H156.843V24.448C156.843 25.856 157.131 26.848 157.707 27.424C158.305 27.9787 159.329 28.256 160.779 28.256C161.697 28.256 162.507 28.1707 163.211 28C163.915 27.8293 164.587 27.584 165.227 27.264V31.424C164.609 31.68 163.787 31.9147 162.763 32.128C161.739 32.3627 160.683 32.48 159.595 32.48C157.697 32.48 156.15 32.1813 154.955 31.584C153.782 30.9653 152.907 30.112 152.331 29.024C151.777 27.936 151.499 26.6667 151.499 25.216V17.824H147.691ZM168.079 13.6L170.735 14.112L173.423 13.6V32H168.079V13.6ZM170.735 11.712C169.775 11.712 168.985 11.4667 168.367 10.976C167.769 10.464 167.471 9.792 167.471 8.96C167.471 8.10667 167.769 7.43467 168.367 6.944C168.985 6.432 169.775 6.176 170.735 6.176C171.716 6.176 172.505 6.432 173.103 6.944C173.7 7.43467 173.999 8.10667 173.999 8.96C173.999 9.792 173.7 10.464 173.103 10.976C172.505 11.4667 171.716 11.712 170.735 11.712ZM176.59 13.792H181.934L183.086 20.736V32H177.742V19.936L176.59 13.792ZM189.582 13.312C191.203 13.312 192.59 13.664 193.742 14.368C194.894 15.0507 195.768 16.032 196.366 17.312C196.984 18.592 197.294 20.1173 197.294 21.888V32H191.95V22.688C191.95 21.0453 191.587 19.808 190.862 18.976C190.158 18.1227 189.123 17.696 187.758 17.696C186.798 17.696 185.966 17.9307 185.262 18.4C184.558 18.848 184.014 19.4773 183.63 20.288C183.267 21.0987 183.086 22.0693 183.086 23.2L181.326 22.272C181.539 20.352 182.03 18.7307 182.798 17.408C183.566 16.0853 184.526 15.072 185.678 14.368C186.851 13.664 188.152 13.312 189.582 13.312ZM203.758 13.312C205.379 13.312 206.766 13.664 207.918 14.368C209.091 15.0507 209.976 16.032 210.574 17.312C211.192 18.592 211.502 20.1173 211.502 21.888V32H206.158V22.688C206.158 21.0453 205.795 19.808 205.07 18.976C204.366 18.1227 203.331 17.696 201.966 17.696C201.006 17.696 200.174 17.9307 199.47 18.4C198.766 18.848 198.222 19.4773 197.838 20.288C197.475 21.0987 197.294 22.0693 197.294 23.2L195.534 22.272C195.747 20.352 196.238 18.7307 197.006 17.408C197.774 16.0853 198.734 15.072 199.886 14.368C201.059 13.664 202.35 13.312 203.758 13.312ZM225.538 32.48C223.383 32.48 221.453 32.0853 219.746 31.296C218.061 30.4853 216.727 29.3547 215.746 27.904C214.786 26.4533 214.306 24.768 214.306 22.848C214.306 20.9493 214.765 19.2853 215.682 17.856C216.621 16.4267 217.901 15.3173 219.522 14.528C221.143 13.7173 222.989 13.312 225.058 13.312C227.17 13.312 228.983 13.7813 230.498 14.72C232.013 15.6373 233.175 16.9387 233.986 18.624C234.818 20.3093 235.234 22.2933 235.234 24.576H218.594V21.024H232.354L230.274 22.304C230.189 21.2373 229.922 20.3307 229.474 19.584C229.047 18.8373 228.461 18.2613 227.714 17.856C226.967 17.4507 226.093 17.248 225.09 17.248C224.002 17.248 223.053 17.472 222.242 17.92C221.453 18.3467 220.834 18.9547 220.386 19.744C219.959 20.512 219.746 21.4187 219.746 22.464C219.746 23.7227 220.023 24.8 220.578 25.696C221.133 26.592 221.943 27.2747 223.01 27.744C224.077 28.2133 225.367 28.448 226.882 28.448C228.247 28.448 229.623 28.256 231.01 27.872C232.397 27.4667 233.645 26.9013 234.754 26.176V29.76C233.559 30.6133 232.162 31.2853 230.562 31.776C228.983 32.2453 227.309 32.48 225.538 32.48ZM237.56 36.576L240.536 30.272L240.824 32.224C240.248 32.224 239.714 32.0853 239.224 31.808C238.754 31.5093 238.381 31.1253 238.104 30.656C237.826 30.1867 237.688 29.664 237.688 29.088C237.688 28.512 237.826 27.9893 238.104 27.52C238.381 27.0507 238.754 26.688 239.224 26.432C239.714 26.1547 240.248 26.016 240.824 26.016C241.442 26.016 241.986 26.1547 242.456 26.432C242.925 26.7093 243.298 27.0933 243.576 27.584C243.853 28.0533 243.992 28.5973 243.992 29.216C243.992 29.7707 243.853 30.368 243.576 31.008C243.32 31.648 242.872 32.4693 242.232 33.472L240.312 36.576H237.56Z" fill="#101010"/>
<path d="M65.16 17.824H64.16V18.824H65.16V17.824ZM65.16 15.456L64.8486 14.5057L64.16 14.7314V15.456H65.16ZM68.968 14.208L69.2794 15.1583L69.7057 15.0186L69.8848 14.6073L68.968 14.208ZM71.24 8.992V7.992H70.5848L70.3232 8.59266L71.24 8.992ZM74.312 8.992H75.312V7.992H74.312V8.992ZM74.312 13.792H73.312V14.792H74.312V13.792ZM82.376 13.792H83.376V12.792H82.376V13.792ZM82.376 17.824V18.824H83.376V17.824H82.376ZM74.312 17.824V16.824H73.312V17.824H74.312ZM75.176 27.424L74.4689 28.1311L74.482 28.1442L74.4955 28.1568L75.176 27.424ZM80.68 28L80.9156 28.9718H80.9156L80.68 28ZM82.696 27.264H83.696V25.646L82.2488 26.3696L82.696 27.264ZM82.696 31.424L83.0784 32.348L83.696 32.0924V31.424H82.696ZM80.232 32.128L80.028 31.149L80.0183 31.151L80.0086 31.1533L80.232 32.128ZM72.424 31.584L71.9576 32.4686L71.9671 32.4736L71.9768 32.4784L72.424 31.584ZM69.8 29.024L68.9091 29.4782L68.9126 29.4851L68.9162 29.4919L69.8 29.024ZM68.968 17.824H69.968V16.824H68.968V17.824ZM66.16 17.824V15.456H64.16V17.824H66.16ZM65.4714 16.4063L69.2794 15.1583L68.6566 13.2577L64.8486 14.5057L65.4714 16.4063ZM69.8848 14.6073L72.1568 9.39134L70.3232 8.59266L68.0512 13.8087L69.8848 14.6073ZM71.24 9.992H74.312V7.992H71.24V9.992ZM73.312 8.992V13.792H75.312V8.992H73.312ZM74.312 14.792H82.376V12.792H74.312V14.792ZM81.376 13.792V17.824H83.376V13.792H81.376ZM82.376 16.824H74.312V18.824H82.376V16.824ZM73.312 17.824V24.448H75.312V17.824H73.312ZM73.312 24.448C73.312 25.9415 73.6081 27.2703 74.4689 28.1311L75.8831 26.7169C75.5919 26.4257 75.312 25.7705 75.312 24.448H73.312ZM74.4955 28.1568C75.3767 28.975 76.7237 29.256 78.248 29.256V27.256C76.871 27.256 76.17 26.9823 75.8565 26.6912L74.4955 28.1568ZM78.248 29.256C79.2247 29.256 80.1172 29.1654 80.9156 28.9718L80.4444 27.0282C79.8348 27.1759 79.1059 27.256 78.248 27.256V29.256ZM80.9156 28.9718C81.6919 28.7837 82.435 28.5125 83.1432 28.1584L82.2488 26.3696C81.677 26.6555 81.0761 26.875 80.4444 27.0282L80.9156 28.9718ZM81.696 27.264V31.424H83.696V27.264H81.696ZM82.3136 30.5C81.7753 30.7228 81.0209 30.9422 80.028 31.149L80.436 33.107C81.4911 32.8872 82.3794 32.6372 83.0784 32.348L82.3136 30.5ZM80.0086 31.1533C79.0605 31.3706 78.0795 31.48 77.064 31.48V33.48C78.2245 33.48 79.3555 33.3548 80.4554 33.1027L80.0086 31.1533ZM77.064 31.48C75.2594 31.48 73.8811 31.1945 72.8712 30.6896L71.9768 32.4784C73.3562 33.1682 75.0712 33.48 77.064 33.48V31.48ZM72.8904 30.6994C71.8805 30.1669 71.1583 29.4525 70.6838 28.5561L68.9162 29.4919C69.5937 30.7715 70.6209 31.7638 71.9576 32.4686L72.8904 30.6994ZM70.6909 28.5698C70.2202 27.6466 69.968 26.5383 69.968 25.216H67.968C67.968 26.7951 68.2704 28.2254 68.9091 29.4782L70.6909 28.5698ZM69.968 25.216V17.824H67.968V25.216H69.968ZM68.968 16.824H65.16V18.824H68.968V16.824ZM85.5473 7.36V6.36H84.5473V7.36H85.5473ZM90.8913 7.36H91.8913V6.36H90.8913V7.36ZM90.8913 32V33H91.8913V32H90.8913ZM85.5473 32H84.5473V33H85.5473V32ZM102.251 14.368L101.75 15.2335L101.762 15.24L102.251 14.368ZM105.035 17.312L105.93 16.8648L105.035 17.312ZM105.995 32V33H106.995V32H105.995ZM100.651 32H99.6513V33H100.651V32ZM99.4673 18.976L98.7331 19.6551L98.7418 19.6643L99.4673 18.976ZM93.2913 18.4L93.7951 19.2638L93.8023 19.2595L93.2913 18.4ZM91.4993 20.288L90.6143 19.8223L90.6095 19.8315L90.6048 19.8408L91.4993 20.288ZM90.8913 23.2L90.4248 24.0846L91.8913 24.8578V23.2H90.8913ZM89.1313 22.272L88.1386 22.1507L88.055 22.835L88.6648 23.1566L89.1313 22.272ZM90.6672 17.408L89.8146 16.8854L89.8085 16.8955L90.6672 17.408ZM93.7393 14.368L94.2338 15.2372L93.7393 14.368ZM85.5473 8.36H90.8913V6.36H85.5473V8.36ZM89.8913 7.36V32H91.8913V7.36H89.8913ZM90.8913 31H85.5473V33H90.8913V31ZM86.5473 32V7.36H84.5473V32H86.5473ZM97.8353 14.312C99.4275 14.312 100.718 14.6357 101.75 15.2334L102.752 13.5026C101.353 12.6923 99.699 12.312 97.8353 12.312V14.312ZM101.762 15.24C102.799 15.822 103.588 16.6531 104.141 17.7592L105.93 16.8648C105.203 15.4109 104.136 14.2793 102.741 13.496L101.762 15.24ZM104.141 17.7592C104.697 18.8713 104.995 20.2365 104.995 21.888H106.995C106.995 19.9982 106.654 18.3127 105.93 16.8648L104.141 17.7592ZM104.995 21.888V32H106.995V21.888H104.995ZM105.995 31H100.651V33H105.995V31ZM101.651 32V22.688H99.6513V32H101.651ZM101.651 22.688C101.651 20.8998 101.222 19.3727 100.193 18.2877L98.7418 19.6643C99.2912 20.2433 99.6513 21.1909 99.6513 22.688H101.651ZM100.201 18.297C99.1723 17.1845 97.7312 16.696 96.0433 16.696V18.696C97.3419 18.696 98.1835 19.0608 98.7332 19.655L100.201 18.297ZM96.0433 16.696C94.8434 16.696 93.7446 16.967 92.7802 17.5405L93.8023 19.2595C94.4166 18.8943 95.1524 18.696 96.0433 18.696V16.696ZM92.7874 17.5362C91.8525 18.0816 91.1254 18.8511 90.6143 19.8223L92.3842 20.7537C92.7264 20.1035 93.194 19.6144 93.7951 19.2638L92.7874 17.5362ZM90.6048 19.8408C90.115 20.8204 89.8913 21.9516 89.8913 23.2H91.8913C91.8913 22.187 92.0728 21.3769 92.3937 20.7352L90.6048 19.8408ZM91.3577 22.3154L89.5977 21.3874L88.6648 23.1566L90.4248 24.0846L91.3577 22.3154ZM90.1239 22.3933C90.3458 20.5774 90.8238 19.0971 91.526 17.9205L89.8085 16.8955C88.932 18.3643 88.386 20.1266 88.1386 22.1507L90.1239 22.3933ZM91.5199 17.9306C92.2504 16.7386 93.1561 15.8503 94.2338 15.2372L93.2447 13.4988C91.8478 14.2937 90.7054 15.4321 89.8146 16.8854L91.5199 17.9306ZM94.2338 15.2372C95.3129 14.6232 96.5065 14.312 97.8353 14.312V12.312C96.1773 12.312 94.6403 12.7048 93.2447 13.4988L94.2338 15.2372ZM109.766 13.6L109.955 12.6181L108.766 12.3888V13.6H109.766ZM112.422 14.112L112.233 15.0939L112.421 15.1302L112.609 15.0943L112.422 14.112ZM115.11 13.6H116.11V12.3915L114.923 12.6177L115.11 13.6ZM115.11 32V33H116.11V32H115.11ZM109.766 32H108.766V33H109.766V32ZM110.054 10.976L109.403 11.7353L109.418 11.7477L109.433 11.7595L110.054 10.976ZM110.054 6.944L110.689 7.71673L110.692 7.71439L110.054 6.944ZM114.79 6.944L114.139 7.70326L114.147 7.71007L114.155 7.71672L114.79 6.944ZM114.79 10.976L115.425 11.7487L115.433 11.7421L115.441 11.7353L114.79 10.976ZM109.577 14.5819L112.233 15.0939L112.611 13.1301L109.955 12.6181L109.577 14.5819ZM112.609 15.0943L115.297 14.5823L114.923 12.6177L112.235 13.1297L112.609 15.0943ZM114.11 13.6V32H116.11V13.6H114.11ZM115.11 31H109.766V33H115.11V31ZM110.766 32V13.6H108.766V32H110.766ZM112.422 10.712C111.637 10.712 111.082 10.5147 110.675 10.1925L109.433 11.7595C110.264 12.4187 111.287 12.712 112.422 12.712V10.712ZM110.705 10.2167C110.343 9.90684 110.158 9.51921 110.158 8.96H108.158C108.158 10.0648 108.57 11.0212 109.403 11.7353L110.705 10.2167ZM110.158 8.96C110.158 8.37065 110.349 7.99614 110.689 7.71672L109.419 6.17127C108.565 6.87319 108.158 7.84268 108.158 8.96H110.158ZM110.692 7.71439C111.097 7.37846 111.647 7.176 112.422 7.176V5.176C111.277 5.176 110.248 5.48554 109.416 6.1736L110.692 7.71439ZM112.422 7.176C113.226 7.176 113.765 7.38217 114.139 7.70326L115.441 6.18474C114.621 5.48182 113.581 5.176 112.422 5.176V7.176ZM114.155 7.71672C114.495 7.99614 114.686 8.37065 114.686 8.96H116.686C116.686 7.84268 116.279 6.87319 115.425 6.17127L114.155 7.71672ZM114.686 8.96C114.686 9.51921 114.501 9.90684 114.139 10.2167L115.441 11.7353C116.274 11.0212 116.686 10.0648 116.686 8.96H114.686ZM114.155 10.2033C113.781 10.5111 113.236 10.712 112.422 10.712V12.712C113.571 12.712 114.605 12.4223 115.425 11.7487L114.155 10.2033ZM137.925 29.632L137.151 28.9987L137.142 29.0095L137.925 29.632ZM134.565 31.776L134.865 32.7301L134.877 32.726L134.565 31.776ZM123.301 31.68L122.981 32.6275L122.992 32.6311L123.301 31.68ZM119.461 29.344L120.199 28.669L119.461 29.344ZM117.989 25.856V24.856H116.939L116.99 25.9043L117.989 25.856ZM123.429 25.856L124.407 25.6465L124.237 24.856H123.429V25.856ZM124.389 27.424L123.73 28.1766L123.74 28.1845L123.749 28.1922L124.389 27.424ZM126.373 28.416L126.095 29.3766L126.102 29.3785L126.373 28.416ZM132.677 28.256L132.28 27.3381L132.271 27.3422L132.677 28.256ZM133.029 25.6L132.596 26.5015L132.603 26.5048L132.61 26.508L133.029 25.6ZM130.053 25.024L130.141 24.0278L130.128 24.0268L130.053 25.024ZM126.661 24.768L126.577 25.7645L126.586 25.7652L126.661 24.768ZM121.829 23.744L122.223 22.8249L121.829 23.744ZM119.269 21.824L118.42 22.3519L118.428 22.3655L118.437 22.3787L119.269 21.824ZM119.749 15.968L119.016 15.2882H119.016L119.749 15.968ZM123.141 13.984L122.85 13.0273L122.846 13.0285L123.141 13.984ZM133.477 14.112L133.149 15.0567L133.477 14.112ZM137.157 16.32L136.442 17.019L136.45 17.0271L137.157 16.32ZM138.757 19.584V20.584H139.866L139.752 19.4811L138.757 19.584ZM133.317 19.584L132.335 19.7711L132.49 20.584H133.317V19.584ZM132.581 18.336L131.855 19.0237L131.874 19.0434L131.893 19.062L132.581 18.336ZM130.885 17.344L131.209 16.3981L130.885 17.344ZM124.869 17.44L125.25 18.3647L125.261 18.3599L125.273 18.3549L124.869 17.44ZM124.453 19.872L123.927 20.7223L123.942 20.7315L123.957 20.7402L124.453 19.872ZM126.949 20.416L126.862 21.4122L126.87 21.4128L126.949 20.416ZM131.365 20.768L131.452 19.7717L131.444 19.7712L131.365 20.768ZM136.005 21.76L135.607 22.6773L135.614 22.6805L135.622 22.6836L136.005 21.76ZM138.373 23.616L137.509 24.1199L137.514 24.1287L137.52 24.1374L138.373 23.616ZM138.077 26.272C138.077 27.3606 137.762 28.2523 137.151 28.9988L138.699 30.2652C139.624 29.1344 140.077 27.7861 140.077 26.272H138.077ZM137.142 29.0095C136.55 29.7546 135.617 30.3776 134.253 30.826L134.877 32.726C136.499 32.1931 137.807 31.3867 138.708 30.2545L137.142 29.0095ZM134.265 30.822C132.898 31.2518 131.181 31.48 129.093 31.48V33.48C131.314 33.48 133.246 33.2389 134.865 32.73L134.265 30.822ZM129.093 31.48C126.951 31.48 125.129 31.2221 123.61 30.7289L122.992 32.6311C124.758 33.2045 126.798 33.48 129.093 33.48V31.48ZM123.621 30.7326C122.095 30.2174 120.975 29.5172 120.199 28.669L118.723 30.019C119.782 31.1761 121.222 32.0333 122.981 32.6274L123.621 30.7326ZM120.199 28.669C119.434 27.8335 119.04 26.8908 118.988 25.8077L116.99 25.9043C117.066 27.4665 117.653 28.8492 118.723 30.019L120.199 28.669ZM117.989 26.856H123.429V24.856H117.989V26.856ZM122.451 26.0655C122.629 26.8974 123.076 27.6036 123.73 28.1766L125.048 26.6714C124.678 26.3484 124.485 26.0093 124.407 25.6465L122.451 26.0655ZM123.749 28.1922C124.391 28.7275 125.186 29.1134 126.095 29.3766L126.651 27.4554C125.939 27.2493 125.411 26.9738 125.029 26.6558L123.749 28.1922ZM126.102 29.3785C127.041 29.6435 128.096 29.768 129.253 29.768V27.768C128.234 27.768 127.369 27.6578 126.644 27.4536L126.102 29.3785ZM129.253 29.768C130.813 29.768 132.123 29.5967 133.083 29.1698L132.271 27.3422C131.695 27.5979 130.722 27.768 129.253 27.768V29.768ZM133.074 29.1739C133.575 28.9573 134.028 28.6539 134.357 28.2265C134.697 27.7853 134.861 27.269 134.861 26.72H132.861C132.861 26.8537 132.828 26.9347 132.773 27.0055C132.708 27.0901 132.569 27.2133 132.28 27.3381L133.074 29.1739ZM134.861 26.72C134.861 26.2725 134.73 25.8446 134.456 25.4757C134.191 25.1191 133.831 24.8689 133.448 24.692L132.61 26.508C132.781 26.5871 132.838 26.6516 132.85 26.6683C132.856 26.6758 132.857 26.6787 132.857 26.6796C132.857 26.6811 132.861 26.6926 132.861 26.72H134.861ZM133.462 24.6985C132.746 24.3551 131.586 24.1554 130.141 24.0279L129.965 26.0201C131.421 26.1486 132.245 26.3329 132.596 26.5015L133.462 24.6985ZM130.128 24.0268L126.736 23.7708L126.586 25.7652L129.978 26.0212L130.128 24.0268ZM126.745 23.7715C124.772 23.6054 123.28 23.2778 122.223 22.8249L121.435 24.6631C122.768 25.2342 124.497 25.5893 126.577 25.7645L126.745 23.7715ZM122.223 22.8249C121.137 22.3594 120.47 21.8226 120.101 21.2693L118.437 22.3787C119.092 23.3614 120.132 24.1046 121.435 24.6631L122.223 22.8249ZM120.118 21.2961C119.727 20.6669 119.533 19.986 119.533 19.232H117.533C117.533 20.3553 117.83 21.4025 118.42 22.3519L120.118 21.2961ZM119.533 19.232C119.533 18.1577 119.859 17.32 120.482 16.6478L119.016 15.2882C118.017 16.3654 117.533 17.7036 117.533 19.232H119.533ZM120.482 16.6478C121.145 15.9325 122.108 15.3496 123.436 14.9395L122.846 13.0285C121.272 13.5144 119.974 14.2541 119.016 15.2882L120.482 16.6478ZM123.432 14.9407C124.79 14.5275 126.384 14.312 128.229 14.312V12.312C126.234 12.312 124.436 12.5445 122.85 13.0273L123.432 14.9407ZM128.229 14.312C130.102 14.312 131.738 14.5667 133.149 15.0567L133.805 13.1673C132.144 12.5907 130.281 12.312 128.229 12.312V14.312ZM133.149 15.0567C134.573 15.5511 135.656 16.2144 136.442 17.0189L137.872 15.6211C136.824 14.5483 135.453 13.7396 133.805 13.1673L133.149 15.0567ZM136.45 17.0271C137.238 17.8151 137.66 18.694 137.762 19.6869L139.752 19.4811C139.598 17.9993 138.953 16.7022 137.864 15.6129L136.45 17.0271ZM138.757 18.584H133.317V20.584H138.757V18.584ZM134.299 19.3969C134.167 18.7003 133.792 18.1054 133.269 17.61L131.893 19.062C132.181 19.3346 132.297 19.5717 132.335 19.7711L134.299 19.3969ZM133.307 17.6483C132.776 17.0873 132.049 16.6861 131.209 16.3981L130.561 18.2899C131.214 18.5139 131.618 18.774 131.855 19.0237L133.307 17.6483ZM131.209 16.3981C130.319 16.0929 129.227 15.96 127.973 15.96V17.96C129.108 17.96 129.957 18.0831 130.561 18.2899L131.209 16.3981ZM127.973 15.96C126.574 15.96 125.377 16.123 124.465 16.5251L125.273 18.3549C125.812 18.117 126.684 17.96 127.973 17.96V15.96ZM124.488 16.5153C124.019 16.7084 123.586 16.9859 123.269 17.3878C122.939 17.8044 122.781 18.2956 122.781 18.816H124.781C124.781 18.7178 124.804 18.6703 124.837 18.6282C124.882 18.5714 124.993 18.4702 125.25 18.3647L124.488 16.5153ZM122.781 18.816C122.781 19.6735 123.264 20.3121 123.927 20.7223L124.979 19.0217C124.851 18.9421 124.805 18.8832 124.793 18.8631C124.786 18.8534 124.785 18.8482 124.784 18.8455C124.783 18.8427 124.781 18.8341 124.781 18.816H122.781ZM123.957 20.7402C124.614 21.1158 125.647 21.3056 126.862 21.4122L127.036 19.4198C125.819 19.3131 125.188 19.1402 124.949 19.0038L123.957 20.7402ZM126.87 21.4128L131.286 21.7648L131.444 19.7712L127.028 19.4192L126.87 21.4128ZM131.278 21.7642C133.19 21.9305 134.616 22.2474 135.607 22.6773L136.403 20.8427C135.132 20.2912 133.465 19.9469 131.452 19.7718L131.278 21.7642ZM135.622 22.6836C136.625 23.1002 137.206 23.6001 137.509 24.1199L139.237 23.1121C138.644 22.0959 137.646 21.3584 136.388 20.8364L135.622 22.6836ZM137.52 24.1374C137.882 24.731 138.077 25.4318 138.077 26.272H140.077C140.077 25.1069 139.802 24.037 139.226 23.0945L137.52 24.1374ZM147.691 17.824H146.691V18.824H147.691V17.824ZM147.691 15.456L147.38 14.5057L146.691 14.7314V15.456H147.691ZM151.499 14.208L151.811 15.1583L152.237 15.0186L152.416 14.6073L151.499 14.208ZM153.771 8.992V7.992H153.116L152.854 8.59266L153.771 8.992ZM156.843 8.992H157.843V7.992H156.843V8.992ZM156.843 13.792H155.843V14.792H156.843V13.792ZM164.907 13.792H165.907V12.792H164.907V13.792ZM164.907 17.824V18.824H165.907V17.824H164.907ZM156.843 17.824V16.824H155.843V17.824H156.843ZM157.707 27.424L157 28.1311L157.013 28.1442L157.027 28.1568L157.707 27.424ZM163.211 28L163.447 28.9718L163.211 28ZM165.227 27.264H166.227V25.646L164.78 26.3696L165.227 27.264ZM165.227 31.424L165.61 32.348L166.227 32.0924V31.424H165.227ZM162.763 32.128L162.559 31.149L162.55 31.151L162.54 31.1533L162.763 32.128ZM154.955 31.584L154.489 32.4686L154.498 32.4736L154.508 32.4784L154.955 31.584ZM152.331 29.024L151.44 29.4782L151.444 29.4851L151.447 29.4919L152.331 29.024ZM151.499 17.824H152.499V16.824H151.499V17.824ZM148.691 17.824V15.456H146.691V17.824H148.691ZM148.003 16.4063L151.811 15.1583L151.188 13.2577L147.38 14.5057L148.003 16.4063ZM152.416 14.6073L154.688 9.39134L152.854 8.59266L150.582 13.8087L152.416 14.6073ZM153.771 9.992H156.843V7.992H153.771V9.992ZM155.843 8.992V13.792H157.843V8.992H155.843ZM156.843 14.792H164.907V12.792H156.843V14.792ZM163.907 13.792V17.824H165.907V13.792H163.907ZM164.907 16.824H156.843V18.824H164.907V16.824ZM155.843 17.824V24.448H157.843V17.824H155.843ZM155.843 24.448C155.843 25.9415 156.139 27.2703 157 28.1311L158.414 26.7169C158.123 26.4257 157.843 25.7705 157.843 24.448H155.843ZM157.027 28.1568C157.908 28.975 159.255 29.256 160.779 29.256V27.256C159.402 27.256 158.701 26.9823 158.388 26.6912L157.027 28.1568ZM160.779 29.256C161.756 29.256 162.648 29.1654 163.447 28.9718L162.976 27.0282C162.366 27.1759 161.637 27.256 160.779 27.256V29.256ZM163.447 28.9718C164.223 28.7837 164.966 28.5125 165.674 28.1584L164.78 26.3696C164.208 26.6555 163.607 26.875 162.976 27.0282L163.447 28.9718ZM164.227 27.264V31.424H166.227V27.264H164.227ZM164.845 30.5C164.307 30.7228 163.552 30.9422 162.559 31.149L162.967 33.107C164.022 32.8872 164.911 32.6372 165.61 32.348L164.845 30.5ZM162.54 31.1533C161.592 31.3706 160.611 31.48 159.595 31.48V33.48C160.756 33.48 161.887 33.3548 162.987 33.1027L162.54 31.1533ZM159.595 31.48C157.791 31.48 156.412 31.1945 155.402 30.6896L154.508 32.4784C155.887 33.1682 157.602 33.48 159.595 33.48V31.48ZM155.422 30.6994C154.412 30.1669 153.69 29.4525 153.215 28.5561L151.447 29.4919C152.125 30.7715 153.152 31.7638 154.489 32.4686L155.422 30.6994ZM153.222 28.5698C152.751 27.6466 152.499 26.5383 152.499 25.216H150.499C150.499 26.7951 150.802 28.2254 151.44 29.4782L153.222 28.5698ZM152.499 25.216V17.824H150.499V25.216H152.499ZM151.499 16.824H147.691V18.824H151.499V16.824ZM168.078 13.6L168.268 12.6181L167.078 12.3888V13.6H168.078ZM170.734 14.112L170.545 15.0939L170.733 15.1302L170.922 15.0943L170.734 14.112ZM173.423 13.6H174.423V12.3915L173.235 12.6177L173.423 13.6ZM173.423 32V33H174.423V32H173.423ZM168.078 32H167.078V33H168.078V32ZM168.367 10.976L167.716 11.7353L167.73 11.7477L167.745 11.7595L168.367 10.976ZM168.367 6.944L169.001 7.71673L169.004 7.71439L168.367 6.944ZM173.103 6.944L172.452 7.70326L172.46 7.71007L172.468 7.71672L173.103 6.944ZM173.103 10.976L173.737 11.7487L173.745 11.7421L173.753 11.7353L173.103 10.976ZM167.889 14.5819L170.545 15.0939L170.924 13.1301L168.268 12.6181L167.889 14.5819ZM170.922 15.0943L173.61 14.5823L173.235 12.6177L170.547 13.1297L170.922 15.0943ZM172.423 13.6V32H174.423V13.6H172.423ZM173.423 31H168.078V33H173.423V31ZM169.078 32V13.6H167.078V32H169.078ZM170.734 10.712C169.95 10.712 169.394 10.5147 168.988 10.1925L167.745 11.7595C168.576 12.4187 169.599 12.712 170.734 12.712V10.712ZM169.017 10.2167C168.656 9.90684 168.47 9.51921 168.47 8.96H166.47C166.47 10.0648 166.883 11.0212 167.716 11.7353L169.017 10.2167ZM168.47 8.96C168.47 8.37065 168.661 7.99614 169.001 7.71672L167.732 6.17127C166.877 6.87319 166.47 7.84268 166.47 8.96H168.47ZM169.004 7.71439C169.41 7.37846 169.96 7.176 170.734 7.176V5.176C169.589 5.176 168.56 5.48554 167.729 6.1736L169.004 7.71439ZM170.734 7.176C171.538 7.176 172.077 7.38217 172.452 7.70326L173.753 6.18474C172.933 5.48182 171.894 5.176 170.734 5.176V7.176ZM172.468 7.71672C172.808 7.99614 172.998 8.37065 172.998 8.96H174.998C174.998 7.84268 174.592 6.87319 173.737 6.17127L172.468 7.71672ZM172.998 8.96C172.998 9.51921 172.813 9.90684 172.452 10.2167L173.753 11.7353C174.586 11.0212 174.998 10.0648 174.998 8.96H172.998ZM172.468 10.2033C172.093 10.5111 171.548 10.712 170.734 10.712V12.712C171.884 12.712 172.917 12.4223 173.737 11.7487L172.468 10.2033ZM176.59 13.792V12.792H175.385L175.607 13.9763L176.59 13.792ZM181.934 13.792L182.92 13.6283L182.781 12.792H181.934V13.792ZM183.086 20.736H184.086V20.6536L184.072 20.5723L183.086 20.736ZM183.086 32V33H184.086V32H183.086ZM177.742 32H176.742V33H177.742V32ZM177.742 19.936H178.742V19.8431L178.724 19.7517L177.742 19.936ZM193.742 14.368L193.22 15.2214L193.232 15.2283L193.742 14.368ZM196.366 17.312L195.459 17.7349L195.465 17.7472L196.366 17.312ZM197.294 32V33H198.294V32H197.294ZM191.95 32H190.95V33H191.95V32ZM190.862 18.976L190.09 19.6124L190.099 19.6229L190.108 19.6331L190.862 18.976ZM185.261 18.4L185.798 19.2437L185.807 19.2379L185.816 19.232L185.261 18.4ZM183.63 20.288L182.726 19.8599L182.721 19.8697L182.717 19.8796L183.63 20.288ZM183.086 23.2L182.619 24.0846L184.086 24.8578V23.2H183.086ZM181.326 22.272L180.332 22.1616L180.256 22.8388L180.859 23.1566L181.326 22.272ZM182.798 17.408L181.933 16.9059L182.798 17.408ZM185.677 14.368L185.163 13.5105L185.156 13.5147L185.677 14.368ZM207.918 14.368L207.396 15.2213L207.405 15.2269L207.415 15.2323L207.918 14.368ZM210.574 17.312L209.667 17.7349L209.673 17.7472L210.574 17.312ZM211.501 32V33H212.501V32H211.501ZM206.158 32H205.158V33H206.158V32ZM205.07 18.976L204.298 19.6124L204.307 19.6229L204.316 19.6331L205.07 18.976ZM199.469 18.4L200.006 19.2437L200.015 19.2379L200.024 19.232L199.469 18.4ZM197.837 20.288L196.934 19.8599L196.929 19.8697L196.925 19.8796L197.837 20.288ZM197.294 23.2L196.827 24.0846L198.294 24.8578V23.2H197.294ZM195.534 22.272L194.54 22.1616L194.464 22.8388L195.067 23.1566L195.534 22.272ZM197.005 17.408L196.141 16.9059L197.005 17.408ZM199.885 14.368L199.371 13.5105L199.364 13.5147L199.885 14.368ZM176.59 14.792H181.934V12.792H176.59V14.792ZM180.947 13.9557L182.099 20.8997L184.072 20.5723L182.92 13.6283L180.947 13.9557ZM182.086 20.736V32H184.086V20.736H182.086ZM183.086 31H177.742V33H183.086V31ZM178.742 32V19.936H176.742V32H178.742ZM178.724 19.7517L177.572 13.6077L175.607 13.9763L176.759 20.1203L178.724 19.7517ZM189.581 14.312C191.056 14.312 192.254 14.6309 193.22 15.2213L194.263 13.5147C192.925 12.6971 191.35 12.312 189.581 12.312V14.312ZM193.232 15.2283C194.201 15.8026 194.942 16.6267 195.459 17.7349L197.272 16.8891C196.594 15.4373 195.586 14.2988 194.251 13.5077L193.232 15.2283ZM195.465 17.7472C196.004 18.8623 196.294 20.2319 196.294 21.888H198.294C198.294 20.0027 197.964 18.3217 197.266 16.8768L195.465 17.7472ZM196.294 21.888V32H198.294V21.888H196.294ZM197.294 31H191.95V33H197.294V31ZM192.95 32V22.688H190.95V32H192.95ZM192.95 22.688C192.95 20.9184 192.561 19.404 191.615 18.3189L190.108 19.6331C190.612 20.212 190.95 21.1723 190.95 22.688H192.95ZM191.633 18.3396C190.695 17.2028 189.345 16.696 187.757 16.696V18.696C188.901 18.696 189.62 19.0425 190.09 19.6124L191.633 18.3396ZM187.757 16.696C186.628 16.696 185.596 16.9748 184.707 17.5679L185.816 19.232C186.335 18.8865 186.967 18.696 187.757 18.696V16.696ZM184.725 17.5563C183.85 18.1131 183.184 18.8922 182.726 19.8599L184.533 20.7161C184.843 20.0624 185.265 19.5829 185.798 19.2437L184.725 17.5563ZM182.717 19.8796C182.283 20.8488 182.086 21.9657 182.086 23.2H184.086C184.086 22.173 184.251 21.3486 184.542 20.6964L182.717 19.8796ZM183.552 22.3154L181.792 21.3874L180.859 23.1566L182.619 24.0846L183.552 22.3154ZM182.319 22.3824C182.521 20.5655 182.98 19.0854 183.662 17.9101L181.933 16.9059C181.079 18.3759 180.556 20.1385 180.332 22.1616L182.319 22.3824ZM183.662 17.9101C184.358 16.7119 185.207 15.8276 186.199 15.2213L185.156 13.5147C183.844 14.3164 182.773 15.4588 181.933 16.9059L183.662 17.9101ZM186.192 15.2255C187.203 14.619 188.325 14.312 189.581 14.312V12.312C187.979 12.312 186.499 12.709 185.163 13.5105L186.192 15.2255ZM203.758 14.312C205.232 14.312 206.43 14.6309 207.396 15.2213L208.439 13.5147C207.101 12.6971 205.526 12.312 203.758 12.312V14.312ZM207.415 15.2323C208.404 15.8081 209.153 16.6318 209.667 17.7349L211.48 16.8891C210.8 15.4322 209.777 14.2932 208.42 13.5037L207.415 15.2323ZM209.673 17.7472C210.212 18.8623 210.501 20.2319 210.501 21.888H212.501C212.501 20.0027 212.172 18.3217 211.474 16.8768L209.673 17.7472ZM210.501 21.888V32H212.501V21.888H210.501ZM211.501 31H206.158V33H211.501V31ZM207.158 32V22.688H205.158V32H207.158ZM207.158 22.688C207.158 20.9184 206.769 19.404 205.823 18.3189L204.316 19.6331C204.82 20.212 205.158 21.1723 205.158 22.688H207.158ZM205.841 18.3396C204.903 17.2028 203.553 16.696 201.965 16.696V18.696C203.109 18.696 203.828 19.0425 204.298 19.6124L205.841 18.3396ZM201.965 16.696C200.836 16.696 199.805 16.9748 198.915 17.5679L200.024 19.232C200.543 18.8865 201.175 18.696 201.965 18.696V16.696ZM198.933 17.5563C198.058 18.1131 197.392 18.8922 196.934 19.8599L198.741 20.7161C199.051 20.0624 199.473 19.5829 200.006 19.2437L198.933 17.5563ZM196.925 19.8796C196.491 20.8488 196.294 21.9657 196.294 23.2H198.294C198.294 22.173 198.459 21.3486 198.75 20.6964L196.925 19.8796ZM197.76 22.3154L196 21.3874L195.067 23.1566L196.827 24.0846L197.76 22.3154ZM196.527 22.3824C196.729 20.5655 197.188 19.0854 197.87 17.9101L196.141 16.9059C195.287 18.3759 194.764 20.1385 194.54 22.1616L196.527 22.3824ZM197.87 17.9101C198.566 16.7119 199.415 15.8276 200.407 15.2213L199.364 13.5147C198.052 14.3164 196.981 15.4588 196.141 16.9059L197.87 17.9101ZM200.4 15.2255C201.413 14.6175 202.525 14.312 203.758 14.312V12.312C202.174 12.312 200.704 12.7105 199.371 13.5105L200.4 15.2255ZM219.746 31.296L219.313 32.1972L219.319 32.2004L219.326 32.2036L219.746 31.296ZM215.746 27.904L214.912 28.4559L214.918 28.4643L215.746 27.904ZM215.682 17.856L214.846 17.307L214.84 17.3159L215.682 17.856ZM219.522 14.528L219.96 15.4272L219.969 15.4224L219.522 14.528ZM230.498 14.72L229.971 15.5701L229.98 15.5754L230.498 14.72ZM233.986 18.624L233.085 19.0575L233.089 19.0667L233.986 18.624ZM235.234 24.576V25.576H236.234V24.576H235.234ZM218.594 24.576H217.594V25.576H218.594V24.576ZM218.594 21.024V20.024H217.594V21.024H218.594ZM232.354 21.024L232.878 21.8757L235.887 20.024H232.354V21.024ZM230.274 22.304L229.277 22.3837L229.407 24.0115L230.798 23.1557L230.274 22.304ZM229.474 19.584L228.606 20.0801L228.611 20.0894L228.617 20.0985L229.474 19.584ZM227.714 17.856L228.191 16.9771L227.714 17.856ZM222.242 17.92L222.718 18.7997L222.726 18.7952L222.242 17.92ZM220.386 19.744L219.516 19.2504L219.512 19.2584L220.386 19.744ZM220.578 25.696L221.428 25.1696L220.578 25.696ZM223.01 27.744L222.607 28.6593H222.607L223.01 27.744ZM231.01 27.872L231.277 28.8357L231.284 28.8338L231.291 28.8318L231.01 27.872ZM234.754 26.176H235.754V24.3274L234.207 25.339L234.754 26.176ZM234.754 29.76L235.335 30.5737L235.754 30.2746V29.76H234.754ZM230.562 31.776L230.847 32.7346L230.855 32.7321L230.562 31.776ZM225.538 31.48C223.507 31.48 221.723 31.1086 220.166 30.3884L219.326 32.2036C221.182 33.0621 223.259 33.48 225.538 33.48V31.48ZM220.179 30.3948C218.642 29.6555 217.45 28.6378 216.574 27.3437L214.918 28.4643C216.005 30.0715 217.479 31.3152 219.313 32.1972L220.179 30.3948ZM216.58 27.3521C215.739 26.0819 215.306 24.5929 215.306 22.848H213.306C213.306 24.9431 213.833 26.8247 214.912 28.4559L216.58 27.3521ZM215.306 22.848C215.306 21.1175 215.722 19.6457 216.524 18.3961L214.84 17.3159C213.808 18.9249 213.306 20.7812 213.306 22.848H215.306ZM216.518 18.4049C217.352 17.1343 218.491 16.1421 219.96 15.4271L219.084 13.6289C217.31 14.4925 215.889 15.719 214.846 17.3071L216.518 18.4049ZM219.969 15.4224C221.433 14.6904 223.122 14.312 225.058 14.312V12.312C222.855 12.312 220.853 12.7442 219.075 13.6336L219.969 15.4224ZM225.058 14.312C227.019 14.312 228.642 14.7463 229.971 15.57L231.025 13.87C229.325 12.8164 227.321 12.312 225.058 12.312V14.312ZM229.98 15.5754C231.319 16.3864 232.353 17.5366 233.085 19.0575L234.887 18.1905C233.997 16.3407 232.706 14.8882 231.016 13.8646L229.98 15.5754ZM233.089 19.0667C233.84 20.5879 234.234 22.4144 234.234 24.576H236.234C236.234 22.1722 235.796 20.0307 234.883 18.1813L233.089 19.0667ZM235.234 23.576H218.594V25.576H235.234V23.576ZM219.594 24.576V21.024H217.594V24.576H219.594ZM218.594 22.024H232.354V20.024H218.594V22.024ZM231.83 20.1723L229.75 21.4523L230.798 23.1557L232.878 21.8757L231.83 20.1723ZM231.271 22.2243C231.176 21.0384 230.875 19.9752 230.331 19.0695L228.617 20.0985C228.969 20.6861 229.201 21.4363 229.277 22.3837L231.271 22.2243ZM230.342 19.0879C229.825 18.1818 229.103 17.4723 228.191 16.9771L227.237 18.7349C227.818 19.0503 228.27 19.4928 228.606 20.0801L230.342 19.0879ZM228.191 16.9771C227.274 16.4791 226.229 16.248 225.09 16.248V18.248C225.956 18.248 226.661 18.4222 227.237 18.7349L228.191 16.9771ZM225.09 16.248C223.862 16.248 222.741 16.5017 221.758 17.0448L222.726 18.7952C223.364 18.4423 224.142 18.248 225.09 18.248V16.248ZM221.766 17.0403C220.81 17.5572 220.056 18.2999 219.516 19.2504L221.256 20.2376C221.612 19.6094 222.095 19.1361 222.718 18.7997L221.766 17.0403ZM219.512 19.2584C218.988 20.2008 218.746 21.281 218.746 22.464H220.746C220.746 21.5563 220.93 20.8232 221.26 20.2296L219.512 19.2584ZM218.746 22.464C218.746 23.8722 219.058 25.1399 219.728 26.2224L221.428 25.1696C220.989 24.4601 220.746 23.5732 220.746 22.464H218.746ZM219.728 26.2224C220.4 27.3083 221.376 28.1175 222.607 28.6593L223.413 26.8287C222.511 26.4318 221.865 25.8757 221.428 25.1696L219.728 26.2224ZM222.607 28.6593C223.833 29.1985 225.268 29.448 226.882 29.448V27.448C225.466 27.448 224.321 27.2281 223.413 26.8287L222.607 28.6593ZM226.882 29.448C228.342 29.448 229.808 29.2425 231.277 28.8357L230.743 26.9083C229.439 27.2695 228.152 27.448 226.882 27.448V29.448ZM231.291 28.8318C232.763 28.4014 234.102 27.7968 235.301 27.013L234.207 25.339C233.187 26.0059 232.03 26.532 230.729 26.9122L231.291 28.8318ZM233.754 26.176V29.76H235.754V26.176H233.754ZM234.173 28.9463C233.077 29.7289 231.78 30.3565 230.269 30.8199L230.855 32.7321C232.544 32.2141 234.042 31.4978 235.335 30.5737L234.173 28.9463ZM230.277 30.8175C228.798 31.2573 227.219 31.48 225.538 31.48V33.48C227.398 33.48 229.169 33.2334 230.847 32.7345L230.277 30.8175ZM237.56 36.576L236.655 36.1491L235.982 37.576H237.56V36.576ZM240.536 30.272L241.525 30.126L241.043 26.856L239.631 29.8451L240.536 30.272ZM240.824 32.224V33.224H241.982L241.813 32.078L240.824 32.224ZM239.224 31.808L238.687 32.6517L238.709 32.6657L238.732 32.6786L239.224 31.808ZM238.104 30.656L238.965 30.1473L238.104 30.656ZM238.104 27.52L238.965 28.0287L238.104 27.52ZM239.224 26.432L239.703 27.3099L239.709 27.3063L239.716 27.3026L239.224 26.432ZM243.576 27.584L242.705 28.0761L242.71 28.0844L242.715 28.0927L243.576 27.584ZM243.576 31.008L242.658 30.6104L242.653 30.6234L242.647 30.6366L243.576 31.008ZM242.232 33.472L241.389 32.934L241.385 32.9399L241.381 32.9459L242.232 33.472ZM240.312 36.576V37.576H240.869L241.162 37.1021L240.312 36.576ZM238.464 37.0029L241.44 30.6989L239.631 29.8451L236.655 36.1491L238.464 37.0029ZM239.546 30.418L239.834 32.37L241.813 32.078L241.525 30.126L239.546 30.418ZM240.824 31.224C240.416 31.224 240.053 31.128 239.716 30.9374L238.732 32.6786C239.376 33.0427 240.079 33.224 240.824 33.224V31.224ZM239.761 30.9643C239.421 30.7484 239.16 30.4781 238.965 30.1473L237.243 31.1647C237.602 31.7725 238.087 32.2702 238.687 32.6517L239.761 30.9643ZM238.965 30.1473C238.784 29.8408 238.688 29.4956 238.688 29.088H236.688C236.688 29.8324 236.869 30.5325 237.243 31.1647L238.965 30.1473ZM238.688 29.088C238.688 28.6804 238.784 28.3352 238.965 28.0287L237.243 27.0113C236.869 27.6435 236.688 28.3436 236.688 29.088H238.688ZM238.965 28.0287C239.152 27.7114 239.395 27.4778 239.703 27.3099L238.745 25.5541C238.114 25.8982 237.61 26.3899 237.243 27.0113L238.965 28.0287ZM239.716 27.3026C240.053 27.112 240.416 27.016 240.824 27.016V25.016C240.079 25.016 239.376 25.1973 238.732 25.5614L239.716 27.3026ZM240.824 27.016C241.288 27.016 241.652 27.1184 241.947 27.2929L242.964 25.5711C242.321 25.1909 241.597 25.016 240.824 25.016V27.016ZM241.947 27.2929C242.26 27.478 242.511 27.7325 242.705 28.0761L244.446 27.0919C244.086 26.4541 243.59 25.9406 242.964 25.5711L241.947 27.2929ZM242.715 28.0927C242.889 28.3881 242.992 28.7517 242.992 29.216H244.992C244.992 28.443 244.817 27.7186 244.437 27.0753L242.715 28.0927ZM242.992 29.216C242.992 29.6035 242.895 30.0647 242.658 30.6104L244.493 31.4056C244.811 30.6713 244.992 29.9378 244.992 29.216H242.992ZM242.647 30.6366C242.425 31.1915 242.016 31.952 241.389 32.934L243.075 34.01C243.728 32.9866 244.214 32.1045 244.504 31.3794L242.647 30.6366ZM241.381 32.9459L239.461 36.0499L241.162 37.1021L243.082 33.9981L241.381 32.9459ZM240.312 35.576H237.56V37.576H240.312V35.576Z" fill="black"/>
<path d="M246.513 214.936H295.768V233.721H246.513V214.936ZM297.565 188.421V207.116H247.681L258.018 197.049V255.832H235.637V188.421H297.565Z" fill="black"/>
<path d="M344.671 257.45C336.522 257.45 329.361 255.981 323.189 253.045C317.078 250.109 312.314 246.005 308.898 240.732C305.543 235.399 303.865 229.197 303.865 222.126C303.865 215.055 305.543 208.884 308.898 203.61C312.314 198.278 317.078 194.143 323.189 191.207C329.361 188.271 336.522 186.803 344.671 186.803C352.82 186.803 359.951 188.271 366.063 191.207C372.235 194.143 376.999 198.278 380.354 203.61C383.77 208.884 385.477 215.055 385.477 222.126C385.477 229.197 383.77 235.399 380.354 240.732C376.999 246.005 372.235 250.109 366.063 253.045C359.951 255.981 352.82 257.45 344.671 257.45ZM344.671 237.406C348.446 237.406 351.682 236.807 354.378 235.608C357.135 234.41 359.232 232.672 360.67 230.395C362.168 228.058 362.917 225.302 362.917 222.126C362.917 218.95 362.168 216.224 360.67 213.947C359.232 211.61 357.135 209.842 354.378 208.644C351.682 207.445 348.446 206.846 344.671 206.846C340.896 206.846 337.63 207.445 334.874 208.644C332.178 209.842 330.08 211.61 328.582 213.947C327.144 216.224 326.425 218.95 326.425 222.126C326.425 225.302 327.144 228.058 328.582 230.395C330.08 232.672 332.178 234.41 334.874 235.608C337.63 236.807 340.896 237.406 344.671 237.406Z" fill="black"/>
<path d="M407.196 217.362H430.115C432.512 217.362 434.37 216.823 435.688 215.744C437.066 214.606 437.755 212.958 437.755 210.801C437.755 208.704 437.066 207.086 435.688 205.947C434.37 204.809 432.512 204.24 430.115 204.24H404.05L414.117 194.083V255.832H391.736V188.421H433.531C438.924 188.421 443.628 189.379 447.642 191.297C451.657 193.154 454.773 195.761 456.99 199.116C459.207 202.412 460.316 206.307 460.316 210.801C460.316 215.235 459.207 219.13 456.99 222.486C454.773 225.841 451.657 228.448 447.642 230.305C443.628 232.163 438.924 233.092 433.531 233.092H407.196V217.362ZM415.465 224.283H440.272L462.922 255.832H437.306L415.465 224.283Z" fill="black"/>
<path d="M415.54 136.704L405.147 139.265V51H441.447V163.967H394.453L336.765 75.8527L347.158 73.4427V163.967H310.858V51H359.358L415.54 136.704Z" fill="black"/>
<path d="M93.0005 100.165H176.535C180.542 100.165 183.647 99.2636 185.85 97.4607C188.154 95.5577 189.306 92.8033 189.306 89.1976C189.306 85.692 188.154 82.9877 185.85 81.0847C183.647 79.1817 180.542 78.2301 176.535 78.2301L87.7421 78.2301L104.569 61.2531V164.467H67.1594V51.7881L182.244 51.7881C191.259 51.7881 199.121 53.3906 205.832 56.5957C212.542 59.7007 217.751 64.0576 221.457 69.6665C225.163 75.1753 227.015 81.6856 227.015 89.1976C227.015 96.6094 225.163 103.12 221.457 108.729C217.751 114.338 212.542 118.694 205.832 121.799C199.121 124.904 191.259 126.457 182.244 126.457L93.0005 126.457V100.165ZM152.046 111.733H193.512L231.372 164.467H188.554L152.046 111.733Z" fill="black"/>
<path d="M268.064 165.848C258.314 165.848 245.137 162.66 240.528 157.394C235.918 152.084 233.614 144.292 233.614 134.016V51.7881H262.347V130.749C262.347 132.633 262.458 134.453 262.68 136.208C262.901 137.921 263.411 139.334 264.209 140.447C265.006 141.56 266.291 142.117 268.064 142.117C269.881 142.117 271.189 141.582 271.986 140.511C272.784 139.398 273.272 137.964 273.449 136.208C273.67 134.453 273.781 132.633 273.781 130.749V51.7881H303.271V134.016C303.271 144.292 300.966 152.084 296.357 157.394C291.748 162.66 277.814 165.848 268.064 165.848Z" fill="black"/>
<path d="M236.1 391.82V365.431L304.086 301.768L331.966 308.477H236.547V279.852H345.981V306.241L278.144 369.904L254.289 363.194H346.428V391.82H236.1Z" fill="black"/>
<path d="M447.076 327.381H479.78C483.78 327.381 486.881 326.481 489.081 324.681C491.381 322.781 492.531 320.03 492.531 316.43C492.531 312.929 491.381 310.229 489.081 308.329C486.881 306.429 483.78 305.479 479.78 305.479H441.825L458.627 288.527V391.589H421.272V279.075H485.48C494.482 279.075 502.333 280.676 509.033 283.876C515.734 286.976 520.935 291.327 524.635 296.928C528.336 302.428 530.186 308.929 530.186 316.43C530.186 323.831 528.336 330.332 524.635 335.932C520.935 341.533 515.734 345.883 509.033 348.984C502.333 352.084 494.482 353.634 485.48 353.634H447.076V327.381ZM455.327 338.933H496.732L534.536 391.589H491.781L455.327 338.933Z" fill="black"/>
<path d="M353.972 391.56L359.941 335.412L353.972 279.598H411.895V304.002H382.297L385.056 320.272H411.004V346.879H385.056L382.297 366.965H413.358V391.56H353.972Z" fill="black"/>
<path d="M597.33 391.56C584.365 391.56 572.973 389.225 563.154 384.554C553.43 379.882 545.851 373.352 540.418 364.963C535.079 356.479 532.41 346.612 532.41 335.363C532.41 324.114 535.079 314.295 540.418 305.906C545.851 297.421 553.43 290.844 563.154 286.172C572.973 281.501 584.365 279.166 597.33 279.166C597.38 279.166 632.807 279.166 632.857 279.166C645.76 279.184 657.055 281.519 666.741 286.172C676.56 290.844 684.139 297.421 689.477 305.906C694.911 314.295 697.628 324.114 697.628 335.363C697.628 346.612 694.911 356.479 689.477 364.963C684.139 373.352 676.56 379.882 666.741 384.554C657.035 389.216 645.714 391.552 632.779 391.56C632.755 391.56 597.354 391.56 597.33 391.56ZM597.33 359.672C597.347 359.672 632.742 359.672 632.758 359.672C638.743 359.667 643.874 358.714 648.152 356.812C652.537 354.906 655.873 352.141 658.161 348.519C660.544 344.801 661.736 340.415 661.736 335.363C661.736 330.31 660.544 325.973 658.161 322.35C655.873 318.632 652.537 315.82 648.152 313.914C643.89 312.019 638.781 311.066 632.825 311.054C632.786 311.054 597.369 311.054 597.33 311.054C591.324 311.054 586.129 312.007 581.743 313.914C577.454 315.82 574.117 318.632 571.734 322.35C569.446 325.973 568.302 330.31 568.302 335.363C568.302 340.415 569.446 344.801 571.734 348.519C574.117 352.141 577.454 354.906 581.743 356.812C586.129 358.719 591.324 359.672 597.33 359.672Z" fill="black"/>
<path d="M237 530.229V417.279H266.459L278.886 468.268V417.279H306.657V530.229H278.579L265.079 476.866V530.229H237Z" fill="black"/>
<path d="M559.494 460.906V487.009H475.184V460.906H559.494ZM500.837 473.958L493.786 516.413L479.384 500.511H564.895V530.214H456.732L465.133 473.958L456.732 417.701H564.145V447.404H479.384L493.786 431.503L500.837 473.958Z" fill="black"/>
<path d="M606.989 466.007H645.243C649.244 466.007 652.344 465.107 654.545 463.306C656.845 461.406 657.995 458.656 657.995 455.055C657.995 451.555 656.845 448.855 654.545 446.954C652.344 445.054 649.244 444.104 645.243 444.104H601.738L618.54 427.152V530.214H581.186V417.701H650.944C659.945 417.701 667.796 419.301 674.497 422.501C681.198 425.602 686.398 429.952 690.099 435.553C693.799 441.054 695.649 447.554 695.649 455.055C695.649 462.456 693.799 468.957 690.099 474.558C686.398 480.158 681.198 484.509 674.497 487.609C667.796 490.71 659.945 492.26 650.944 492.26H606.989V466.007ZM620.79 477.558H662.195L700 530.214H657.245L620.79 477.558Z" fill="black"/>
<path d="M194.856 531.894C185.106 531.894 171.928 529.248 167.319 523.957C162.71 518.622 160.405 510.791 160.405 500.466V417.279H189.139V496.625C189.139 498.518 189.25 500.347 189.471 502.111C189.693 503.832 190.202 505.251 191 506.37C191.798 507.489 193.083 508.048 194.856 508.048C196.673 508.048 197.98 507.51 198.778 506.434C199.576 505.316 200.063 503.875 200.24 502.111C200.462 500.347 200.573 498.518 200.573 496.625V417.279H230.063V500.466C230.063 510.791 227.758 518.622 223.149 523.957C218.54 529.248 204.606 531.894 194.856 531.894Z" fill="black"/>
<path d="M439.04 482.217C438.65 488.653 437.285 494.893 434.945 500.938C432.702 506.886 429.338 512.249 424.853 517.026C420.368 521.707 414.713 525.412 407.887 528.142C401.062 530.872 393.018 532.237 383.755 532.237C375.272 532.237 359.944 531.018 352.338 528.581C344.831 526.045 338.152 522.389 332.301 517.611C326.549 512.736 322.015 506.74 318.699 499.622C315.482 492.504 313.873 484.216 313.873 474.758C313.873 465.3 315.482 457.012 318.699 449.895C322.015 442.777 326.646 436.829 332.594 432.051C338.542 427.176 345.416 423.52 353.216 421.082C361.016 418.547 376.686 417.279 385.656 417.279C398.234 417.279 409.009 419.181 417.979 422.983C427.047 426.689 434.311 431.808 439.771 438.34C445.232 444.873 448.839 452.43 450.594 461.01H413.884C413.006 458.085 411.251 455.599 408.619 453.551C405.986 451.503 402.72 449.943 398.819 448.871C395.017 447.798 390.727 447.262 385.949 447.262C380.099 447.262 367.744 448.286 363.454 450.333C359.261 452.283 355.995 455.257 353.655 459.255C351.412 463.253 350.291 468.42 350.291 474.758C350.291 481.096 351.558 486.41 354.093 490.7C356.726 494.893 360.431 498.013 365.209 500.061C369.987 502.108 382.878 503.132 389.313 503.132C395.651 503.132 401.257 502.401 406.132 500.938C411.008 499.378 414.956 497.038 417.979 493.918C421.002 490.798 422.854 486.849 423.537 482.071L439.04 482.217ZM391.653 492.309V471.102H451.472V529.604H426.023L420.758 487.336L427.193 492.309H391.653Z" fill="black"/>
<path d="M0 417.279H38.8401V530.187H0V417.279ZM112.385 417.279H151.225V530.187H112.385V417.279ZM21.9793 455.367H127.589V489.691H21.9793V455.367Z" fill="black"/>
</svg>
