<svg width="3843" height="364" viewBox="0 0 3843 364" fill="none" xmlns="http://www.w3.org/2000/svg">
<g clip-path="url(#clip0_1_145)">
<rect x="584.32" y="142.639" width="85.482" height="85.482" transform="rotate(135 584.32 142.639)" fill="#DE5952"/>
<rect x="441.855" y="285.107" width="85.482" height="85.482" transform="rotate(-135 441.855 285.107)" fill="#DE5952"/>
<rect x="420.27" y="142.639" width="85.482" height="85.482" transform="rotate(135 420.27 142.639)" fill="#DE5952"/>
<rect x="441.855" y="121.054" width="85.482" height="85.482" transform="rotate(-135 441.855 121.054)" fill="#DE5952"/>
</g>
<g clip-path="url(#clip1_1_145)">
<rect x="2505.32" y="142.639" width="85.482" height="85.482" transform="rotate(135 2505.32 142.639)" fill="#D7FD8A"/>
<rect x="2362.86" y="285.107" width="85.482" height="85.482" transform="rotate(-135 2362.86 285.107)" fill="#D7FD8A"/>
<rect x="2341.27" y="142.639" width="85.482" height="85.482" transform="rotate(135 2341.27 142.639)" fill="#D7FD8A"/>
<rect x="2362.86" y="121.054" width="85.482" height="85.482" transform="rotate(-135 2362.86 121.054)" fill="#D7FD8A"/>
</g>
<g clip-path="url(#clip2_1_145)">
<circle cx="149.801" cy="0.964227" r="149.809" transform="rotate(-90 149.801 0.964227)" fill="#DE5952"/>
<circle cx="149.801" cy="300.581" r="149.809" transform="rotate(-90 149.801 300.581)" fill="#DE5952"/>
</g>
<g clip-path="url(#clip3_1_145)">
<circle cx="2070.8" cy="0.964227" r="149.809" transform="rotate(-90 2070.8 0.964227)" fill="#D7FD8A"/>
<circle cx="2070.8" cy="300.581" r="149.809" transform="rotate(-90 2070.8 300.581)" fill="#D7FD8A"/>
</g>
<rect x="1921.02" y="-6.10352e-05" width="67.6682" height="67.6682" transform="rotate(90 1921.02 -6.10352e-05)" fill="#DE5952"/>
<rect x="1921.02" y="270.671" width="67.6682" height="67.6682" transform="rotate(90 1921.02 270.671)" fill="#DE5952"/>
<rect x="1921.02" y="135.333" width="67.6682" height="67.6682" transform="rotate(90 1921.02 135.333)" fill="#DE5952"/>
<rect x="1853.36" y="67.6691" width="67.6682" height="67.6682" transform="rotate(90 1853.36 67.6691)" fill="#DE5952"/>
<rect x="1853.36" y="203.013" width="67.6682" height="67.6682" transform="rotate(90 1853.36 203.013)" fill="#DE5952"/>
<rect x="1785.68" y="-6.10352e-05" width="67.6682" height="67.6682" transform="rotate(90 1785.68 -6.10352e-05)" fill="#DE5952"/>
<rect x="1785.68" y="270.671" width="67.6682" height="67.6682" transform="rotate(90 1785.68 270.671)" fill="#DE5952"/>
<rect x="1785.68" y="135.333" width="67.6682" height="67.6682" transform="rotate(90 1785.68 135.333)" fill="#DE5952"/>
<rect x="1718.01" y="67.6691" width="67.6682" height="67.6682" transform="rotate(90 1718.01 67.6691)" fill="#DE5952"/>
<rect x="1718.01" y="203.013" width="67.6682" height="67.6682" transform="rotate(90 1718.01 203.013)" fill="#DE5952"/>
<rect x="1650.34" y="-6.10352e-05" width="67.6682" height="67.6682" transform="rotate(90 1650.34 -6.10352e-05)" fill="#DE5952"/>
<rect x="1650.34" y="270.671" width="67.6682" height="67.6682" transform="rotate(90 1650.34 270.671)" fill="#DE5952"/>
<rect x="1650.34" y="135.333" width="67.6682" height="67.6682" transform="rotate(90 1650.34 135.333)" fill="#DE5952"/>
<rect x="3842.02" y="-6.10352e-05" width="67.6682" height="67.6682" transform="rotate(90 3842.02 -6.10352e-05)" fill="#DE5952"/>
<rect x="3842.02" y="270.671" width="67.6682" height="67.6682" transform="rotate(90 3842.02 270.671)" fill="#DE5952"/>
<rect x="3842.02" y="135.333" width="67.6682" height="67.6682" transform="rotate(90 3842.02 135.333)" fill="#DE5952"/>
<rect x="3774.36" y="67.6691" width="67.6682" height="67.6682" transform="rotate(90 3774.36 67.6691)" fill="#DE5952"/>
<rect x="3774.36" y="203.013" width="67.6682" height="67.6682" transform="rotate(90 3774.36 203.013)" fill="#DE5952"/>
<rect x="3706.68" y="-6.10352e-05" width="67.6682" height="67.6682" transform="rotate(90 3706.68 -6.10352e-05)" fill="#DE5952"/>
<rect x="3706.68" y="270.671" width="67.6682" height="67.6682" transform="rotate(90 3706.68 270.671)" fill="#DE5952"/>
<rect x="3706.68" y="135.333" width="67.6682" height="67.6682" transform="rotate(90 3706.68 135.333)" fill="#DE5952"/>
<rect x="3639.01" y="67.6691" width="67.6682" height="67.6682" transform="rotate(90 3639.01 67.6691)" fill="#DE5952"/>
<rect x="3639.01" y="203.013" width="67.6682" height="67.6682" transform="rotate(90 3639.01 203.013)" fill="#DE5952"/>
<rect x="3571.34" y="-6.10352e-05" width="67.6682" height="67.6682" transform="rotate(90 3571.34 -6.10352e-05)" fill="#DE5952"/>
<rect x="3571.34" y="270.671" width="67.6682" height="67.6682" transform="rotate(90 3571.34 270.671)" fill="#DE5952"/>
<rect x="3571.34" y="135.333" width="67.6682" height="67.6682" transform="rotate(90 3571.34 135.333)" fill="#DE5952"/>
<path fill-rule="evenodd" clip-rule="evenodd" d="M979 363.06L979 -6.10352e-05L612.001 -7.70772e-05L612.001 363.06L979 363.06ZM615.56 181.522C615.56 280.675 696.03 361.054 795.296 361.054C894.561 361.054 975.031 280.675 975.031 181.522C975.031 82.3683 894.561 1.9887 795.296 1.9887C696.03 1.9887 615.56 82.3683 615.56 181.522Z" fill="#DE5952"/>
<path fill-rule="evenodd" clip-rule="evenodd" d="M2899.34 363.227L2899.34 0.166473L2532.76 0.166457L2532.76 363.226L2899.34 363.227ZM2536.31 181.688C2536.31 280.841 2616.69 361.221 2715.85 361.221C2815 361.221 2895.38 280.841 2895.38 181.688C2895.38 82.5348 2815 2.15524 2715.85 2.15524C2616.69 2.15523 2536.31 82.5348 2536.31 181.688Z" fill="#DE5952"/>
<circle cx="1417.64" cy="167.643" r="138.646" transform="rotate(90 1417.64 167.643)" stroke="#DE5952" stroke-width="57.9955"/>
<rect x="1478.36" y="168.01" width="86.9933" height="86.9933" transform="rotate(135 1478.36 168.01)" fill="#DE5952"/>
<circle cx="3337.05" cy="167.643" r="138.646" transform="rotate(90 3337.05 167.643)" stroke="#D7FD8A" stroke-width="57.9955"/>
<rect x="3397.77" y="168.01" width="86.9933" height="86.9933" transform="rotate(135 3397.77 168.01)" fill="#D7FD8A"/>
<g clip-path="url(#clip4_1_145)">
<path d="M1058.77 386.643C1034.91 355.986 1001.5 272.887 1058.77 185.749C1116.05 98.6118 1082.64 7.77012 1058.77 -26.7585" stroke="#D7FD8A" stroke-width="22.2981" stroke-linecap="round" stroke-linejoin="round"/>
<path d="M1005.64 386.643C981.772 355.986 948.36 272.887 1005.64 185.749C1062.92 98.6118 1029.5 7.77012 1005.64 -26.7585" stroke="#D7FD8A" stroke-width="22.2981" stroke-linecap="round" stroke-linejoin="round"/>
<path d="M953.138 386.643C929.75 355.986 897.005 272.887 953.138 185.749C1009.27 98.6117 976.527 7.77008 953.138 -26.7585" stroke="#D7FD8A" stroke-width="22.2981" stroke-linecap="round" stroke-linejoin="round"/>
<path d="M1110.63 392.51C1087.72 361.744 1055.65 278.351 1110.63 190.904C1165.62 103.457 1133.55 12.2934 1110.63 -22.3576" stroke="#D7FD8A" stroke-width="22.2981" stroke-linecap="round" stroke-linejoin="round"/>
<path d="M1161.87 396.905C1138.48 366.248 1105.74 283.149 1161.87 196.012C1218.01 108.874 1185.26 18.0323 1161.87 -16.4963" stroke="#D7FD8A" stroke-width="22.2981" stroke-linecap="round" stroke-linejoin="round"/>
<path d="M1214.37 396.905C1190.51 366.248 1157.09 283.149 1214.37 196.012C1271.65 108.874 1238.24 18.0323 1214.37 -16.4963" stroke="#D7FD8A" stroke-width="22.2981" stroke-linecap="round" stroke-linejoin="round"/>
<path d="M1266.87 396.905C1243.48 366.248 1210.74 283.149 1266.87 196.012C1323.01 108.874 1290.26 18.0323 1266.87 -16.4963" stroke="#D7FD8A" stroke-width="22.2981" stroke-linecap="round" stroke-linejoin="round"/>
</g>
<g clip-path="url(#clip5_1_145)">
<path d="M2978.1 386.643C2954.23 355.986 2920.82 272.887 2978.1 185.749C3035.38 98.6117 3001.97 7.77006 2978.1 -26.7585" stroke="#DE5952" stroke-width="22.2981" stroke-linecap="round" stroke-linejoin="round"/>
<path d="M2924.96 386.643C2901.1 355.986 2867.68 272.887 2924.96 185.749C2982.24 98.6117 2948.83 7.77006 2924.96 -26.7585" stroke="#DE5952" stroke-width="22.2981" stroke-linecap="round" stroke-linejoin="round"/>
<path d="M2872.46 386.643C2849.07 355.986 2816.33 272.887 2872.46 185.749C2928.6 98.6117 2895.85 7.77002 2872.46 -26.7586" stroke="#DE5952" stroke-width="22.2981" stroke-linecap="round" stroke-linejoin="round"/>
<path d="M3029.96 392.51C3007.05 361.744 2974.97 278.35 3029.96 190.904C3084.95 103.457 3052.87 12.2934 3029.96 -22.3577" stroke="#DE5952" stroke-width="22.2981" stroke-linecap="round" stroke-linejoin="round"/>
<path d="M3081.2 396.905C3057.81 366.248 3025.06 283.149 3081.2 196.012C3137.33 108.874 3104.59 18.0323 3081.2 -16.4963" stroke="#DE5952" stroke-width="22.2981" stroke-linecap="round" stroke-linejoin="round"/>
<path d="M3133.7 396.905C3109.83 366.248 3076.42 283.149 3133.7 196.012C3190.98 108.874 3157.56 18.0323 3133.7 -16.4963" stroke="#DE5952" stroke-width="22.2981" stroke-linecap="round" stroke-linejoin="round"/>
<path d="M3186.2 396.905C3162.81 366.248 3130.06 283.149 3186.2 196.012C3242.33 108.874 3209.59 18.0323 3186.2 -16.4963" stroke="#DE5952" stroke-width="22.2981" stroke-linecap="round" stroke-linejoin="round"/>
</g>
<defs>
<clipPath id="clip0_1_145">
<rect width="284.922" height="284.922" fill="white" transform="translate(584.32 0.160828) rotate(90)"/>
</clipPath>
<clipPath id="clip1_1_145">
<rect width="284.922" height="284.922" fill="white" transform="translate(2505.32 0.160828) rotate(90)"/>
</clipPath>
<clipPath id="clip2_1_145">
<rect width="301.236" height="299.618" fill="white" transform="translate(0 301.397) rotate(-90)"/>
</clipPath>
<clipPath id="clip3_1_145">
<rect width="301.236" height="299.618" fill="white" transform="translate(1921 301.397) rotate(-90)"/>
</clipPath>
<clipPath id="clip4_1_145">
<rect width="270.922" height="270.922" fill="white" transform="translate(979 270.922) rotate(-90)"/>
</clipPath>
<clipPath id="clip5_1_145">
<rect width="270.922" height="270.922" fill="white" transform="translate(2898.32 270.922) rotate(-90)"/>
</clipPath>
</defs>
</svg>
