<svg width="1917" height="324" viewBox="0 0 1917 324" fill="none" xmlns="http://www.w3.org/2000/svg">
<rect width="1917" height="324" fill="#1E1E1E"/>
<g clip-path="url(#clip0_0_1)">
<rect width="1920" height="6278" transform="translate(0 -978)" fill="#FEFCF0"/>
<rect y="-978" width="1920" height="980" fill="#DE5952"/>
<g clip-path="url(#clip1_0_1)">
<rect x="277.758" y="142.131" width="84.0739" height="84.0739" transform="rotate(135 277.758 142.131)" fill="#DE5952"/>
<rect x="137.633" y="282.252" width="84.0739" height="84.0739" transform="rotate(-135 137.633 282.252)" fill="#DE5952"/>
<rect x="116.406" y="142.131" width="84.0739" height="84.0739" transform="rotate(135 116.406 142.131)" fill="#DE5952"/>
<rect x="137.633" y="120.9" width="84.0739" height="84.0739" transform="rotate(-135 137.633 120.9)" fill="#DE5952"/>
</g>
<g clip-path="url(#clip2_0_1)">
<circle cx="455.818" cy="2.88273" r="151.647" transform="rotate(-90 455.818 2.88273)" fill="#D7FD8A"/>
<circle cx="455.818" cy="306.174" r="151.647" transform="rotate(-90 455.818 306.174)" fill="#D7FD8A"/>
</g>
<rect x="1919.98" y="2.00391" width="59.3021" height="59.3021" transform="rotate(90 1919.98 2.00391)" fill="#D7FD8A"/>
<rect x="1919.98" y="239.211" width="59.3021" height="59.3021" transform="rotate(90 1919.98 239.211)" fill="#D7FD8A"/>
<rect x="1919.98" y="120.605" width="59.3021" height="59.3021" transform="rotate(90 1919.98 120.605)" fill="#D7FD8A"/>
<rect x="1860.69" y="61.3066" width="59.3021" height="59.3021" transform="rotate(90 1860.69 61.3066)" fill="#D7FD8A"/>
<rect x="1860.69" y="179.918" width="59.3021" height="59.3021" transform="rotate(90 1860.69 179.918)" fill="#D7FD8A"/>
<rect x="1801.38" y="2.00391" width="59.3021" height="59.3021" transform="rotate(90 1801.38 2.00391)" fill="#D7FD8A"/>
<rect x="1801.38" y="239.211" width="59.3021" height="59.3021" transform="rotate(90 1801.38 239.211)" fill="#D7FD8A"/>
<rect x="1801.38" y="120.605" width="59.3021" height="59.3021" transform="rotate(90 1801.38 120.605)" fill="#D7FD8A"/>
<rect x="1742.07" y="61.3066" width="59.3021" height="59.3021" transform="rotate(90 1742.07 61.3066)" fill="#D7FD8A"/>
<rect x="1742.07" y="179.918" width="59.3021" height="59.3021" transform="rotate(90 1742.07 179.918)" fill="#D7FD8A"/>
<rect x="1682.77" y="2.00391" width="59.3021" height="59.3021" transform="rotate(90 1682.77 2.00391)" fill="#D7FD8A"/>
<rect x="1682.77" y="239.211" width="59.3021" height="59.3021" transform="rotate(90 1682.77 239.211)" fill="#D7FD8A"/>
<rect x="1682.77" y="120.605" width="59.3021" height="59.3021" transform="rotate(90 1682.77 120.605)" fill="#D7FD8A"/>
<path fill-rule="evenodd" clip-rule="evenodd" d="M937.734 304.531L937.734 1.03516L631.292 1.03514L631.292 304.531L937.734 304.531ZM634.258 152.775C634.258 235.661 701.45 302.854 784.336 302.854C867.222 302.854 934.414 235.661 934.414 152.775C934.414 69.8896 867.222 2.69726 784.336 2.69726C701.45 2.69726 634.258 69.8896 634.258 152.775Z" fill="#DE5952"/>
<circle cx="1445.32" cy="153.65" r="125.416" transform="rotate(90 1445.32 153.65)" stroke="#DE5952" stroke-width="52.4615"/>
<rect x="1500.24" y="153.982" width="78.6923" height="78.6923" transform="rotate(135 1500.24 153.982)" fill="#DE5952"/>
<g clip-path="url(#clip3_0_1)">
<path d="M1140.18 -108.057C1166.8 -73.8668 1204.06 18.8076 1140.18 115.986C1076.3 213.165 1113.57 314.474 1140.18 352.981" stroke="#DE5952" stroke-width="24.8675" stroke-linecap="round" stroke-linejoin="round"/>
<path d="M1199.44 -108.055C1226.06 -73.8648 1263.32 18.8095 1199.44 115.988C1135.56 213.167 1172.82 314.476 1199.44 352.983" stroke="#DE5952" stroke-width="24.8675" stroke-linecap="round" stroke-linejoin="round"/>
<path d="M1257.99 -108.055C1284.07 -73.8648 1320.59 18.8095 1257.99 115.988C1195.39 213.167 1231.9 314.476 1257.99 352.983" stroke="#DE5952" stroke-width="24.8675" stroke-linecap="round" stroke-linejoin="round"/>
<path d="M1082.34 -114.6C1107.89 -80.2885 1143.67 12.7145 1082.34 110.238C1021.02 207.761 1056.79 309.429 1082.34 348.073" stroke="#DE5952" stroke-width="24.8675" stroke-linecap="round" stroke-linejoin="round"/>
<path d="M1025.2 -119.5C1051.28 -85.3101 1087.8 7.3642 1025.2 104.543C962.598 201.721 999.116 303.031 1025.2 341.538" stroke="#DE5952" stroke-width="24.8675" stroke-linecap="round" stroke-linejoin="round"/>
<path d="M966.651 -119.5C993.267 -85.3101 1030.53 7.3642 966.651 104.543C902.772 201.721 940.034 303.031 966.651 341.538" stroke="#DE5952" stroke-width="24.8675" stroke-linecap="round" stroke-linejoin="round"/>
<path d="M908.106 -119.5C934.19 -85.3101 970.707 7.3642 908.106 104.543C845.505 201.721 882.022 303.031 908.106 341.538" stroke="#DE5952" stroke-width="24.8675" stroke-linecap="round" stroke-linejoin="round"/>
</g>
</g>
<defs>
<clipPath id="clip0_0_1">
<rect width="1920" height="6278" fill="white" transform="translate(0 -978)"/>
</clipPath>
<clipPath id="clip1_0_1">
<rect width="280.229" height="280.229" fill="white" transform="translate(277.758 2) rotate(90)"/>
</clipPath>
<clipPath id="clip2_0_1">
<rect width="304.931" height="303.293" fill="white" transform="translate(304.18 307) rotate(-90)"/>
</clipPath>
<clipPath id="clip3_0_1">
<rect width="302.14" height="302.14" fill="white" transform="translate(1229.14 21) rotate(90)"/>
</clipPath>
</defs>
</svg>
