<svg width="209" height="167" viewBox="0 0 209 167" fill="none" xmlns="http://www.w3.org/2000/svg">
<path d="M205.033 21.3994H118.367V14.4661C118.367 9.51211 115.723 4.93413 111.433 2.45675C107.143 -0.0194384 101.857 -0.0194384 97.5667 2.45675C93.2767 4.93449 90.6333 9.51251 90.6333 14.4661V21.3994H3.96667C2.05227 21.3994 0.5 22.9517 0.5 24.8661V163.533C0.5 164.452 0.86524 165.334 1.51524 165.984C2.16524 166.634 3.04739 166.999 3.96667 166.999H205.033C205.953 166.999 206.835 166.634 207.485 165.984C208.135 165.334 208.5 164.452 208.5 163.533V24.8661C208.5 23.9468 208.135 23.0646 207.485 22.4146C206.835 21.7647 205.953 21.3994 205.033 21.3994ZM28.729 49.1327H47.2417H54.6138H41.6714H28.729ZM97.5691 14.4661C97.5691 11.9883 98.8907 9.69951 101.036 8.46142C103.181 7.22332 105.824 7.22332 107.969 8.46142C110.114 9.69951 111.436 11.9884 111.436 14.4661V35.2661H97.5691V14.4661Z" fill="black"/>
<path d="M53.7452 70.342C52.3291 69.8715 50.7707 70.359 49.8761 71.5523L42.2495 81.7201L34.6228 71.5523C33.7283 70.359 32.1683 69.8715 30.7538 70.3436C29.3377 70.8156 28.3828 72.1404 28.3828 73.6323V97.8989C28.3828 99.8133 29.9351 101.366 31.8495 101.366C33.7639 101.366 35.3161 99.8133 35.3161 97.8989V84.0323L39.4761 89.5789C40.1587 90.4085 41.1754 90.8882 42.2495 90.8882C43.3235 90.8882 44.3403 90.4085 45.0228 89.5789L49.1828 84.0323V97.8989C49.1828 99.8133 50.7351 101.366 52.6495 101.366C54.5639 101.366 56.1161 99.8133 56.1161 97.8989V73.6323C56.1161 72.1388 55.1613 70.814 53.7452 70.342Z" fill="#FEFCF0"/>
<path d="M73.4469 84.0303H66.5135C64.5991 84.0303 63.0469 85.5825 63.0469 87.4969C63.0469 89.4113 64.5991 90.9636 66.5135 90.9636H73.4469C75.3613 90.9636 76.9135 89.4113 76.9135 87.4969C76.9135 85.5825 75.3613 84.0303 73.4469 84.0303Z" fill="#FEFCF0"/>
<path d="M121.98 70.1636C118.303 70.1636 114.776 71.6245 112.174 74.2245C109.574 76.8261 108.113 80.3532 108.113 84.0302V87.4969C108.113 92.4509 110.757 97.0289 115.047 99.5062C119.337 101.982 124.623 101.982 128.913 99.5062C133.203 97.0285 135.847 92.4505 135.847 87.4969V84.0302C135.847 80.3531 134.386 76.8259 131.786 74.2245C129.184 71.6245 125.657 70.1636 121.98 70.1636ZM128.913 87.4969C128.913 89.9746 127.592 92.2635 125.447 93.5016C123.302 94.7397 120.658 94.7397 118.513 93.5016C116.368 92.2635 115.047 89.9746 115.047 87.4969V84.0302C115.047 81.5525 116.368 79.2637 118.513 78.0256C120.658 76.7875 123.302 76.7875 125.447 78.0256C127.592 79.2637 128.913 81.5526 128.913 84.0302V87.4969Z" fill="#FEFCF0"/>
<path d="M101.186 94.4302H97.7198V73.6302C97.7198 72.711 97.3545 71.8288 96.7045 71.1788C96.0545 70.5288 95.1724 70.1636 94.2531 70.1636H90.7864C89.4725 70.1636 88.2715 70.9049 87.6835 72.0811L84.2168 79.0144C83.8067 79.8362 83.7386 80.7895 84.0295 81.6624C84.322 82.5337 84.9473 83.2549 85.7706 83.6665C87.4838 84.5224 89.5669 83.8275 90.4227 82.1127L90.7864 81.3822V94.4304H87.3197C85.4053 94.4304 83.853 95.9826 83.853 97.897C83.853 99.8114 85.4053 101.364 87.3197 101.364H101.186C103.101 101.364 104.653 99.8114 104.653 97.897C104.653 95.9826 103.101 94.4302 101.186 94.4302Z" fill="#FEFCF0"/>
<line x1="163.203" y1="64.9863" x2="163.203" y2="106.544" stroke="#DE5952" stroke-width="4" stroke-linecap="round"/>
<line x1="179.594" y1="64.9863" x2="179.594" y2="106.544" stroke="#DE5952" stroke-width="4" stroke-linecap="round"/>
<line x1="191.563" y1="93.9512" x2="151.225" y2="93.9512" stroke="#DE5952" stroke-width="4" stroke-linecap="round"/>
<rect x="157.531" y="71.9004" width="27.7305" height="27.7305" rx="2" fill="#DE5952"/>
<mask id="path-10-inside-1_1_51" fill="white">
<rect x="161.203" y="75.5645" width="20.4023" height="20.4023" rx="2"/>
</mask>
<rect x="161.203" y="75.5645" width="20.4023" height="20.4023" rx="2" stroke="black" stroke-width="8" mask="url(#path-10-inside-1_1_51)"/>
<path d="M10.6094 136.497H198.398V155.265C198.398 156.37 197.503 157.265 196.398 157.265H12.6094C11.5048 157.265 10.6094 156.37 10.6094 155.265V136.497Z" fill="#FEFCF0"/>
</svg>
