<svg width="185" height="184" viewBox="0 0 185 184" fill="none" xmlns="http://www.w3.org/2000/svg">
<circle cx="92.5668" cy="91.641" r="91.641" fill="#DE5952"/>
<g clip-path="url(#clip0_1_445)">
<path d="M143.481 92.0842C143.481 64.2109 120.885 41.6152 93.0119 41.6152C65.1387 41.6152 42.543 64.2109 42.543 92.0842C42.543 117.274 60.9986 138.154 85.1262 141.94V106.673H72.3118V92.0842H85.1262V80.9653C85.1262 68.3165 92.661 61.3297 104.189 61.3297C109.709 61.3297 115.486 62.3154 115.486 62.3154V74.7355H109.123C102.853 74.7355 100.898 78.6261 100.898 82.6213V92.0842H114.895L112.657 106.673H100.898V141.94C125.025 138.154 143.481 117.274 143.481 92.0842Z" fill="#FEFCF0"/>
</g>
<defs>
<clipPath id="clip0_1_445">
<rect width="100.938" height="100.938" fill="white" transform="translate(42.543 41.6152)"/>
</clipPath>
</defs>
</svg>
