<svg width="1702" height="258" viewBox="0 0 1702 258" fill="none" xmlns="http://www.w3.org/2000/svg">
<path d="M265.103 145.889C264.229 160.299 261.173 174.273 255.933 187.809C250.911 201.128 243.378 213.136 233.335 223.835C223.51 234.315 210.955 242.612 195.672 248.725C180.388 254.838 162.267 257.895 141.306 257.895C122.311 257.895 104.299 255.166 87.2684 249.707C70.4566 244.249 55.5006 236.171 42.4005 225.472C29.5187 214.555 19.3661 201.128 11.9427 185.189C4.5193 169.033 0.807603 150.365 0.807603 129.186C0.807603 108.008 4.5193 89.4493 11.9427 73.5108C19.3661 57.354 29.737 43.9263 43.0555 33.2279C56.374 22.3111 71.7666 14.1236 89.2334 8.66518C106.7 3.2068 125.586 0.477607 145.891 0.477607C174.275 0.477607 198.51 4.73514 218.597 13.2502C238.902 21.547 255.168 33.0096 267.395 47.6381C279.84 62.2665 288.028 79.1875 291.958 98.401H207.135C205.17 92.2876 201.24 87.1568 195.344 83.0084C189.668 78.6417 182.681 75.3667 174.384 73.1833C166.088 70.7816 156.808 69.5808 146.546 69.5808C133.883 69.5808 122.966 71.7641 113.796 76.1308C104.626 80.2792 97.5302 86.7201 92.5085 95.4535C87.7051 104.187 85.3034 115.431 85.3034 129.186C85.3034 143.16 88.0326 154.732 93.491 163.902C99.1677 173.072 107.137 179.84 117.399 184.207C127.879 188.574 140.215 190.757 154.407 190.757C168.162 190.757 180.388 189.229 191.087 186.172C201.785 182.897 210.41 177.984 216.96 171.434C223.728 164.666 227.876 156.151 229.405 145.889H265.103ZM159.647 168.487V120.671H293.923V252H235.3L222.855 158.007L237.592 168.487H159.647ZM395.756 210.735V143.596H563.11V210.735H395.756ZM537.237 6.37265L644.986 252H554.922L470.099 43.708H491.714L406.891 252H316.828L424.576 6.37265H537.237ZM761.28 6.37265V214.665L723.29 176.674H906.036V252H676.784V6.37265H761.28ZM1030.24 6.37265V214.665L992.252 176.674H1175V252H945.746V6.37265H1030.24ZM1433.81 100.039V158.334H1248.77V100.039H1433.81ZM1306.74 129.186L1291.67 220.56L1259.58 185.189H1445.93V252H1208.16L1226.17 129.186L1208.16 6.37265H1444.29V73.1833H1259.58L1291.67 37.8129L1306.74 129.186ZM1551.88 111.501H1634.41C1642.71 111.501 1649.15 109.536 1653.73 105.606C1658.32 101.676 1660.61 95.9993 1660.61 88.5759C1660.61 81.1525 1658.32 75.4758 1653.73 71.5458C1649.15 67.6157 1642.71 65.6507 1634.41 65.6507H1540.09L1578.08 27.6603V252H1493.58V6.37265H1647.51C1667.16 6.37265 1684.3 9.86601 1698.93 16.8527C1713.78 23.6211 1725.24 33.1187 1733.32 45.3455C1741.61 57.5723 1745.76 71.9824 1745.76 88.5759C1745.76 104.733 1741.61 119.034 1733.32 131.479C1725.24 143.706 1713.78 153.203 1698.93 159.972C1684.3 166.74 1667.16 170.124 1647.51 170.124H1551.88V111.501ZM1580.7 137.046H1674.04L1755.59 252H1658.97L1580.7 137.046ZM1865.84 252V130.824H1950.33V252H1865.84ZM1751.21 6.37265H1843.9L1925.44 111.501H1890.4L1971.62 6.37265H2064.3L1935.27 172.089L1880.58 173.072L1751.21 6.37265Z" fill="#DE5952"/>
</svg>
