<svg width="874" height="664" viewBox="0 0 874 664" fill="none" xmlns="http://www.w3.org/2000/svg">
<path d="M306.329 225.713H367.537V249.057H306.329V225.713ZM369.771 192.764V215.996H307.781L320.626 203.486V276.533H292.815V192.764H369.771ZM428.307 278.544C418.18 278.544 409.282 276.719 401.612 273.071C394.017 269.422 388.098 264.322 383.853 257.769C379.683 251.142 377.599 243.435 377.599 234.649C377.599 225.862 379.683 218.193 383.853 211.64C388.098 205.013 394.017 199.875 401.612 196.227C409.282 192.578 418.18 190.754 428.307 190.754C438.434 190.754 447.294 192.578 454.89 196.227C462.559 199.875 468.479 205.013 472.649 211.64C476.893 218.193 479.015 225.862 479.015 234.649C479.015 243.435 476.893 251.142 472.649 257.769C468.479 264.322 462.559 269.422 454.89 273.071C447.294 276.719 438.434 278.544 428.307 278.544ZM428.307 253.636C432.998 253.636 437.019 252.892 440.37 251.402C443.795 249.913 446.401 247.754 448.188 244.924C450.05 242.02 450.98 238.595 450.98 234.649C450.98 230.702 450.05 227.314 448.188 224.485C446.401 221.581 443.795 219.384 440.37 217.895C437.019 216.406 432.998 215.661 428.307 215.661C423.616 215.661 419.558 216.406 416.132 217.895C412.782 219.384 410.175 221.581 408.314 224.485C406.527 227.314 405.633 230.702 405.633 234.649C405.633 238.595 406.527 242.02 408.314 244.924C410.175 247.754 412.782 249.913 416.132 251.402C419.558 252.892 423.616 253.636 428.307 253.636ZM506.004 228.729H534.485C537.464 228.729 539.772 228.059 541.41 226.718C543.123 225.304 543.979 223.256 543.979 220.575C543.979 217.969 543.123 215.959 541.41 214.544C539.772 213.129 537.464 212.422 534.485 212.422H502.094L514.604 199.801V276.533H486.793V192.764H538.729C545.431 192.764 551.276 193.955 556.265 196.338C561.254 198.646 565.126 201.886 567.881 206.055C570.636 210.151 572.014 214.991 572.014 220.575C572.014 226.086 570.636 230.926 567.881 235.095C565.126 239.265 561.254 242.504 556.265 244.813C551.276 247.121 545.431 248.275 538.729 248.275H506.004V228.729ZM516.279 237.329H547.106L575.253 276.533H543.42L516.279 237.329Z" fill="#101010"/>
<path d="M516.445 130.122L503.53 133.304V23.6206H548.638V164H490.241L418.554 54.5041L431.468 51.5093V164H386.36V23.6206H446.629L516.445 130.122Z" fill="#101010"/>
<path d="M115.568 83.9115H219.374C224.352 83.9115 228.21 82.7914 230.949 80.551C233.811 78.1862 235.243 74.7634 235.243 70.2827C235.243 65.9265 233.811 62.566 230.949 60.2011C228.21 57.8363 224.352 56.6539 219.374 56.6539H109.034L129.944 35.5573V163.817H83.4564V23.7954L226.468 23.7954C237.67 23.7954 247.44 25.7868 255.779 29.7697C264.118 33.6281 270.59 39.0423 275.196 46.0122C279.801 52.8578 282.103 60.9479 282.103 70.2827C282.103 79.4931 279.801 87.5832 275.196 94.5532C270.59 101.523 264.118 106.937 255.779 110.796C247.44 114.654 237.67 116.583 226.468 116.583L115.568 116.583V83.9115ZM188.942 98.2871H240.47L287.517 163.817H234.309L188.942 98.2871Z" fill="#101010"/>
<path d="M333.114 165.533C320.998 165.533 304.623 161.571 298.895 155.027C293.168 148.43 290.304 138.747 290.304 125.977V23.7954H326.01V121.918C326.01 124.259 326.147 126.52 326.423 128.701C326.698 130.829 327.332 132.585 328.323 133.969C329.314 135.352 330.911 136.044 333.114 136.044C335.372 136.044 336.997 135.378 337.988 134.048C338.979 132.665 339.585 130.883 339.806 128.701C340.081 126.52 340.219 124.259 340.219 121.918V23.7954H376.864V125.977C376.864 138.747 374 148.43 368.273 155.027C362.545 161.571 345.23 165.533 333.114 165.533Z" fill="#101010"/>
<path d="M293.393 445.99V413.197L377.877 334.086L412.523 342.423H293.949V306.851H429.938V339.644L345.64 418.755L315.996 410.418H430.494V445.99H293.393Z" fill="#101010"/>
<path d="M555.563 366.265H596.204C601.175 366.265 605.028 365.146 607.762 362.909C610.62 360.548 612.049 357.13 612.049 352.656C612.049 348.306 610.62 344.95 607.762 342.589C605.028 340.228 601.175 339.047 596.204 339.047H549.039L569.918 317.981V446.053H523.499V306.237H603.288C614.473 306.237 624.229 308.225 632.556 312.202C640.883 316.055 647.345 321.461 651.944 328.421C656.542 335.256 658.841 343.335 658.841 352.656C658.841 361.853 656.542 369.931 651.944 376.891C647.345 383.85 640.883 389.257 632.556 393.109C624.229 396.962 614.473 398.888 603.288 398.888H555.563V366.265ZM565.817 380.619H617.269L664.248 446.053H611.117L565.817 380.619Z" fill="#101010"/>
<path d="M439.867 446.017L447.285 376.243L439.867 306.886H511.846V337.212H475.065L478.494 357.43H510.739V390.493H478.494L475.065 415.454H513.664V446.017H439.867Z" fill="#101010"/>
<path d="M742.28 446.017C726.169 446.017 712.012 443.115 699.811 437.31C687.727 431.505 678.31 423.391 671.557 412.966C664.923 402.423 661.606 390.162 661.606 376.183C661.606 362.204 664.923 350.002 671.557 339.578C678.31 329.034 687.727 320.86 699.811 315.056C712.012 309.251 726.169 306.349 742.28 306.349C742.342 306.349 786.366 306.349 786.428 306.349C802.462 306.371 816.497 309.273 828.534 315.056C840.736 320.86 850.154 329.034 856.788 339.578C863.54 350.002 866.916 362.204 866.916 376.183C866.916 390.162 863.54 402.423 856.788 412.966C850.154 423.391 840.736 431.505 828.534 437.31C816.473 443.104 802.405 446.007 786.331 446.017C786.302 446.017 742.309 446.017 742.28 446.017ZM742.28 406.391C742.301 406.391 786.285 406.391 786.305 406.391C793.742 406.384 800.118 405.2 805.434 402.837C810.883 400.468 815.029 397.033 817.873 392.531C820.834 387.911 822.315 382.461 822.315 376.183C822.315 369.904 820.834 364.514 817.873 360.013C815.029 355.393 810.883 351.898 805.434 349.529C800.138 347.175 793.789 345.99 786.388 345.975C786.34 345.975 742.328 345.975 742.28 345.975C734.817 345.975 728.36 347.159 722.911 349.529C717.58 351.898 713.434 355.393 710.472 360.013C707.629 364.514 706.208 369.904 706.208 376.183C706.208 382.461 707.629 387.911 710.472 392.531C713.434 397.033 717.58 400.468 722.911 402.837C728.36 405.207 734.817 406.391 742.28 406.391Z" fill="#101010"/>
<path d="M294.511 618.335V477.977H331.119L346.561 541.339V477.977H381.071V618.335H346.18L329.403 552.023V618.335H294.511Z" fill="#101010"/>
<path d="M695.261 531.329V563.766H590.493V531.329H695.261ZM622.371 547.547L613.609 600.305L595.712 580.544H701.973V617.456H567.563L578.002 547.547L567.563 477.639H701.04V514.551H595.712L613.609 494.79L622.371 547.547ZM754.281 537.667H801.819C806.79 537.667 810.643 536.549 813.377 534.312C816.235 531.95 817.665 528.532 817.665 524.058C817.665 519.709 816.235 516.353 813.377 513.992C810.643 511.63 806.79 510.45 801.819 510.45H747.757L768.636 489.384V617.456H722.217V477.639H808.903C820.088 477.639 829.844 479.628 838.171 483.605C846.498 487.458 852.96 492.864 857.559 499.824C862.157 506.659 864.456 514.737 864.456 524.058C864.456 533.255 862.157 541.333 857.559 548.293C852.96 555.253 846.498 560.659 838.171 564.512C829.844 568.365 820.088 570.291 808.903 570.291H754.281V537.667ZM771.432 552.022H822.884L869.863 617.456H816.732L771.432 552.022Z" fill="#101010"/>
<path d="M242.14 620.405C230.024 620.405 213.648 617.117 207.921 610.541C202.193 603.911 199.33 594.181 199.33 581.349V477.977H235.035V576.577C235.035 578.929 235.173 581.201 235.448 583.393C235.724 585.532 236.357 587.296 237.348 588.686C238.34 590.076 239.937 590.771 242.14 590.771C244.398 590.771 246.022 590.103 247.014 588.767C248.005 587.376 248.611 585.585 248.831 583.393C249.106 581.201 249.244 578.929 249.244 576.577V477.977H285.89V581.349C285.89 594.181 283.026 603.911 277.298 610.541C271.571 617.117 254.256 620.405 242.14 620.405Z" fill="#101010"/>
<path d="M545.578 558.673C545.093 566.67 543.397 574.424 540.489 581.936C537.702 589.328 533.522 595.992 527.948 601.929C522.375 607.745 515.347 612.349 506.866 615.741C498.384 619.134 488.388 620.83 476.877 620.83C466.336 620.83 447.288 619.316 437.837 616.287C428.507 613.136 420.208 608.593 412.938 602.656C405.789 596.597 400.155 589.146 396.035 580.301C392.037 571.456 390.038 561.157 390.038 549.404C390.038 537.651 392.037 527.352 396.035 518.507C400.155 509.662 405.91 502.271 413.301 496.334C420.692 490.275 429.234 485.732 438.928 482.702C448.621 479.552 468.093 477.977 479.24 477.977C494.87 477.977 508.259 480.34 519.406 485.065C530.675 489.669 539.701 496.031 546.487 504.149C553.272 512.267 557.755 521.657 559.936 532.319H514.317C513.227 528.685 511.046 525.595 507.774 523.05C504.503 520.506 500.444 518.567 495.597 517.234C490.872 515.902 485.541 515.235 479.604 515.235C472.334 515.235 456.981 516.507 451.65 519.052C446.44 521.475 442.381 525.171 439.473 530.138C436.686 535.106 435.293 541.528 435.293 549.404C435.293 557.279 436.868 563.883 440.018 569.214C443.29 574.424 447.894 578.302 453.831 580.846C459.768 583.39 475.787 584.663 483.784 584.663C491.659 584.663 498.626 583.754 504.685 581.936C510.743 579.998 515.65 577.09 519.406 573.213C523.162 569.335 525.464 564.428 526.313 558.491L545.578 558.673ZM486.692 571.213V544.86H561.026V617.559H529.402L522.859 565.034L530.856 571.213H486.692Z" fill="#101010"/>
<path d="M0 477.977H48.265V618.282H0V477.977ZM139.656 477.977H187.921V618.282H139.656V477.977ZM27.3128 525.307H158.55V567.959H27.3128V525.307Z" fill="#101010"/>
</svg>
