<svg width="172" height="173" viewBox="0 0 172 173" fill="none" xmlns="http://www.w3.org/2000/svg">
<path d="M121.063 53.8842C134.031 41.5779 139.537 20.4921 126.302 6.50989C122.346 2.334 117.201 0.0829247 111.418 0.00135895C103.759 0.0381228 95.32 3.61918 88.9833 9.95342L85.7985 13.1369L82.6137 9.95206C76.3638 3.70218 68.1236 0 60.4986 0H60.1786C54.3958 0.0789723 49.2502 2.33379 45.295 6.50853C32.0615 20.4922 37.5664 41.5783 50.5863 53.9317L80.8848 81.3451C82.2845 82.6141 84.041 83.2486 85.799 83.2486C87.5555 83.2486 89.3119 82.6141 90.7131 81.3451L121.063 53.8842ZM84.9751 76.8258L54.7309 49.4574C43.9332 39.2153 39.1094 21.916 49.723 10.6997C52.5592 7.70416 56.1036 6.15469 60.2579 6.09753H60.4921C66.445 6.09753 73.2477 9.21152 78.2978 14.2618L83.6379 19.6019C84.8307 20.7947 86.7587 20.7947 87.9501 19.6019L93.2902 14.2618C98.4086 9.14334 105.249 6.10031 111.332 6.09753C115.486 6.15608 119.03 7.70151 121.866 10.6997C132.48 21.914 127.656 39.2146 116.913 49.4086L86.6227 76.8258C86.1502 77.2465 85.4476 77.2465 84.9751 76.8258ZM69.0945 103.776L65.9737 100.35L57 74.252C55.7283 68.6884 53.8553 64.7959 47.9595 64.7959C44.5896 64.7959 41.3353 66.2147 39.041 68.6873C36.7481 71.1614 37.0231 74.0615 37.2764 77.4262L44.2116 107.887L29.364 78.7227L25.8169 49.2726C25.0816 43.167 19.8912 38.5634 13.742 38.5634C7.21851 38.5634 1.88362 43.6693 1.59361 50.1876L0.0386682 85.2051C-0.324892 93.3937 1.88094 101.331 6.41369 108.156L28.3709 141.224V169.813C28.3709 171.5 29.7339 172.863 31.4209 172.863H77.9691C78.8024 172.863 79.5976 172.521 80.1777 171.918C80.7509 171.317 81.0559 170.503 81.0164 169.67L79.0734 127.859C78.654 118.937 75.1126 110.381 69.0955 103.776L69.0945 103.776ZM171.56 85.2145L170.005 50.1901C169.712 43.6749 164.377 38.5701 157.857 38.5701C151.707 38.5701 146.517 43.1723 145.782 49.2793L142.235 78.7294L127.272 109.372L134.319 77.4262C134.573 74.0617 134.85 71.1681 132.558 68.694C130.265 66.2172 127.013 64.8025 123.45 64.8025C117.743 64.8025 115.772 68.686 114.5 74.252L105.625 100.35L102.504 103.776C96.4856 110.379 92.9455 118.937 92.5276 127.861L90.5846 169.672C90.5451 170.506 90.8501 171.32 91.4233 171.92C91.9993 172.521 92.7958 172.865 93.6318 172.865H140.18C141.867 172.865 143.23 171.502 143.23 169.815V141.227L165.187 108.162C169.723 101.337 171.923 93.3979 171.56 85.2145Z" fill="black"/>
</svg>
