<svg width="184" height="184" viewBox="0 0 184 184" fill="none" xmlns="http://www.w3.org/2000/svg">
<circle cx="91.641" cy="91.641" r="91.641" fill="#DE5952"/>
<g clip-path="url(#clip0_358_58)">
<path d="M91.1994 50.7026C104.684 50.7026 106.281 50.7618 111.584 50.9983C116.513 51.2152 119.174 52.0432 120.949 52.7332C123.295 53.6401 124.99 54.7441 126.745 56.4987C128.519 58.273 129.603 59.9487 130.51 62.2947C131.2 64.069 132.028 66.7502 132.245 71.6591C132.481 76.982 132.541 78.5788 132.541 92.0438C132.541 105.528 132.481 107.125 132.245 112.429C132.028 117.357 131.2 120.019 130.51 121.793C129.603 124.139 128.499 125.834 126.745 127.589C124.97 129.363 123.295 130.448 120.949 131.354C119.174 132.044 116.493 132.872 111.584 133.089C106.261 133.326 104.664 133.385 91.1994 133.385C77.7148 133.385 76.1179 133.326 70.8147 133.089C65.8861 132.872 63.2246 132.044 61.4503 131.354C59.1043 130.448 57.4089 129.344 55.6543 127.589C53.88 125.815 52.7957 124.139 51.8888 121.793C51.1988 120.019 50.3708 117.337 50.154 112.429C49.9174 107.106 49.8583 105.509 49.8583 92.0438C49.8583 78.5591 49.9174 76.9622 50.154 71.6591C50.3708 66.7304 51.1988 64.069 51.8888 62.2947C52.7957 59.9487 53.8997 58.2532 55.6543 56.4987C57.4286 54.7244 59.1043 53.6401 61.4503 52.7332C63.2246 52.0432 65.9058 51.2152 70.8147 50.9983C76.1179 50.7618 77.7148 50.7026 91.1994 50.7026ZM91.1994 41.6143C77.4979 41.6143 75.7827 41.6734 70.4007 41.91C65.0384 42.1465 61.3518 43.014 58.158 44.256C54.8263 45.5571 52.0071 47.2723 49.2077 50.0915C46.3885 52.8909 44.6734 55.7101 43.3722 59.0221C42.1302 62.2356 41.2628 65.9024 41.0262 71.2648C40.7896 76.6665 40.7305 78.3817 40.7305 92.0832C40.7305 105.785 40.7896 107.5 41.0262 112.882C41.2628 118.244 42.1302 121.931 43.3722 125.125C44.6734 128.456 46.3885 131.276 49.2077 134.075C52.0071 136.874 54.8263 138.609 58.1383 139.891C61.3518 141.133 65.0187 142 70.381 142.237C75.763 142.473 77.4782 142.532 91.1797 142.532C104.881 142.532 106.596 142.473 111.978 142.237C117.341 142 121.027 141.133 124.221 139.891C127.533 138.609 130.352 136.874 133.152 134.075C135.951 131.276 137.686 128.456 138.968 125.144C140.21 121.931 141.077 118.264 141.314 112.902C141.55 107.52 141.609 105.804 141.609 92.1029C141.609 78.4014 141.55 76.6862 141.314 71.3042C141.077 65.9419 140.21 62.2553 138.968 59.0615C137.726 55.7101 136.01 52.8909 133.191 50.0915C130.392 47.292 127.573 45.5571 124.261 44.2757C121.047 43.0337 117.38 42.1663 112.018 41.9297C106.616 41.6734 104.901 41.6143 91.1994 41.6143Z" fill="#FEFCF0"/>
<path d="M91.1994 66.1587C76.8867 66.1587 65.2749 77.7705 65.2749 92.0832C65.2749 106.396 76.8867 118.008 91.1994 118.008C105.512 118.008 117.124 106.396 117.124 92.0832C117.124 77.7705 105.512 66.1587 91.1994 66.1587ZM91.1994 108.9C81.9139 108.9 74.383 101.369 74.383 92.0832C74.383 82.7977 81.9139 75.2668 91.1994 75.2668C100.485 75.2668 108.016 82.7977 108.016 92.0832C108.016 101.369 100.485 108.9 91.1994 108.9Z" fill="#FEFCF0"/>
<path d="M124.201 65.1334C124.201 68.4849 121.481 71.1857 118.149 71.1857C114.798 71.1857 112.097 68.4651 112.097 65.1334C112.097 61.7819 114.817 59.0811 118.149 59.0811C121.481 59.0811 124.201 61.8017 124.201 65.1334Z" fill="#FEFCF0"/>
</g>
<defs>
<clipPath id="clip0_358_58">
<rect width="100.938" height="100.938" fill="white" transform="translate(40.7305 41.6143)"/>
</clipPath>
</defs>
</svg>
