<svg width="185" height="184" viewBox="0 0 185 184" fill="none" xmlns="http://www.w3.org/2000/svg">
<circle cx="92.4965" cy="91.641" r="91.641" fill="#DE5952"/>
<g clip-path="url(#clip0_1_437)">
<path d="M135.939 41.6152H49.9247C45.8044 41.6152 42.4727 44.8681 42.4727 48.8899V135.259C42.4727 139.281 45.8044 142.553 49.9247 142.553H135.939C140.059 142.553 143.411 139.281 143.411 135.279V48.8899C143.411 44.8681 140.059 41.6152 135.939 41.6152ZM72.4189 127.629H57.4359V79.4472H72.4189V127.629ZM64.9274 72.8823C60.1171 72.8823 56.2333 68.9986 56.2333 64.208C56.2333 59.4174 60.1171 55.5336 64.9274 55.5336C69.718 55.5336 73.6018 59.4174 73.6018 64.208C73.6018 68.9789 69.718 72.8823 64.9274 72.8823ZM128.487 127.629H113.523V104.209C113.523 98.6294 113.425 91.4336 105.736 91.4336C97.9491 91.4336 96.7662 97.5254 96.7662 103.814V127.629H81.8227V79.4472H96.1748V86.0319H96.3719C98.3631 82.2467 103.252 78.2447 110.527 78.2447C125.687 78.2447 128.487 88.2202 128.487 101.192V127.629Z" fill="#FEFCF0"/>
</g>
<defs>
<clipPath id="clip0_1_437">
<rect width="100.938" height="100.938" fill="white" transform="translate(42.4727 41.6152)"/>
</clipPath>
</defs>
</svg>
