<svg width="65" height="64" viewBox="0 0 65 64" fill="none" xmlns="http://www.w3.org/2000/svg">
<path d="M9.56407 54.3721C9.42252 54.3723 9.2824 54.3437 9.15229 54.288C9.02217 54.2323 8.90479 54.1506 8.80733 54.048C3.14102 48.1076 -0.0139634 40.2095 4.64597e-05 32C4.64597e-05 14.3557 14.3557 0 32 0C32.2772 0 32.5431 0.110115 32.7391 0.30612C32.9351 0.502125 33.0452 0.767966 33.0452 1.04516C33.0452 1.32235 32.9351 1.58819 32.7391 1.7842C32.5431 1.9802 32.2772 2.09032 32 2.09032C15.5079 2.09032 2.09036 15.5079 2.09036 32C2.07675 39.6732 5.02571 47.0554 10.3223 52.6073C10.4652 52.7548 10.5612 52.9413 10.5983 53.1432C10.6355 53.3452 10.612 53.5536 10.531 53.7422C10.4499 53.9309 10.3149 54.0914 10.1428 54.2034C9.97075 54.3155 9.76939 54.3742 9.56407 54.3721Z" fill="#FEFCF0"/>
<path d="M32.002 63.9997C28.8729 64.0023 25.7604 63.5465 22.7635 62.6468C22.498 62.5668 22.2751 62.3845 22.1439 62.1402C22.0127 61.8958 21.984 61.6093 22.064 61.3437C22.1441 61.0782 22.3263 60.8553 22.5707 60.7241C22.8151 60.5929 23.1016 60.5642 23.3671 60.6442C26.1681 61.4857 29.0773 61.912 32.002 61.9094C48.4941 61.9094 61.9116 48.4919 61.9116 31.9998C61.921 27.7707 61.0268 23.5884 59.2891 19.7329C59.2331 19.6077 59.2024 19.4728 59.1986 19.3358C59.1948 19.1987 59.2181 19.0623 59.267 18.9343C59.3159 18.8062 59.3896 18.6891 59.4838 18.5895C59.5781 18.4899 59.691 18.4099 59.8161 18.354C59.9413 18.298 60.0762 18.2673 60.2132 18.2635C60.3503 18.2597 60.4867 18.283 60.6147 18.3319C60.7428 18.3808 60.8599 18.4545 60.9595 18.5487C61.0591 18.643 61.1391 18.7559 61.195 18.881C63.0554 23.0059 64.0124 27.4808 64.002 32.0057C64.002 49.6455 49.6477 63.9997 32.002 63.9997ZM56.9787 14.7613C56.8143 14.762 56.652 14.7237 56.5052 14.6495C56.3584 14.5753 56.2313 14.4674 56.1343 14.3346C55.8577 13.957 55.5678 13.5809 55.272 13.2137C55.1858 13.1069 55.1215 12.9841 55.0827 12.8525C55.0439 12.7208 55.0315 12.5828 55.046 12.4464C55.0606 12.3099 55.1019 12.1776 55.1676 12.0571C55.2333 11.9366 55.322 11.8302 55.4288 11.744C55.6445 11.57 55.9205 11.4887 56.1961 11.5181C56.4717 11.5475 56.7244 11.6852 56.8984 11.9009C57.2136 12.2919 57.5243 12.6948 57.8202 13.0992C57.9358 13.2544 58.0058 13.4388 58.0223 13.6316C58.0389 13.8244 58.0013 14.018 57.9139 14.1907C57.8265 14.3634 57.6927 14.5082 57.5275 14.609C57.3623 14.7098 57.1722 14.7626 56.9787 14.7613ZM51.5225 9.02113C51.2824 9.02113 51.0497 8.93815 50.8639 8.78623C50.4996 8.48888 50.1205 8.19154 49.7459 7.91947C49.6358 7.83796 49.543 7.73558 49.4725 7.61817C49.4021 7.50076 49.3554 7.37063 49.3353 7.2352C49.3151 7.09977 49.3218 6.96169 49.355 6.82886C49.3883 6.69602 49.4473 6.57103 49.5288 6.46101C49.6103 6.35099 49.7127 6.25811 49.8301 6.18766C49.9475 6.11721 50.0777 6.07058 50.2131 6.05042C50.3485 6.03027 50.4866 6.03698 50.6194 6.07019C50.7523 6.10339 50.8773 6.16244 50.9873 6.24395C51.3917 6.54129 51.7931 6.8535 52.1766 7.17017C52.3472 7.30502 52.4712 7.48988 52.5313 7.6988C52.5914 7.90773 52.5845 8.13022 52.5117 8.33506C52.4389 8.5399 52.3038 8.71679 52.1253 8.8409C51.9468 8.96502 51.7339 9.03012 51.5165 9.02708L51.5225 9.02113Z" fill="#FEFCF0"/>
<path d="M23.3929 31.0722C21.0142 31.0722 18.5611 30.5271 16.0337 29.4368C15.8883 29.374 15.7591 29.2788 15.656 29.1585C15.553 29.0382 15.4787 28.8959 15.439 28.7426C15.3528 28.414 13.3903 20.6355 18.5715 13.7669C23.2903 7.5123 32.2493 4.19991 45.1837 3.92338C45.3421 3.92203 45.4989 3.95618 45.6424 4.02332C45.786 4.09047 45.9127 4.18891 46.0132 4.31141C46.1139 4.43679 46.1841 4.5838 46.2185 4.74089C46.2528 4.89798 46.2502 5.06088 46.211 5.21682C46.0207 5.97653 41.4163 23.9137 30.1783 29.4636C28.0724 30.5204 25.749 31.0712 23.3929 31.0722ZM17.3598 27.7212C21.6118 29.4324 25.6096 29.3893 29.2535 27.5918C37.9404 23.2982 42.518 10.2806 43.7995 6.05086C32.3236 6.51026 24.4068 9.5149 20.2574 14.9964C16.3741 20.1241 17.0536 26.0085 17.3598 27.7182V27.7212Z" fill="#FEFCF0"/>
<path d="M16.0551 59.2963C15.5705 59.2963 15.1468 59.3855 15.0368 58.9083C11.9042 45.2231 12.3874 34.4266 16.4699 26.3998C19.592 20.2686 23.6939 18.4043 23.8663 18.3225C24.3897 18.0787 25.0126 18.3582 25.2564 18.8815C25.3736 19.136 25.3869 19.4262 25.2933 19.6903C25.1997 19.9544 25.0067 20.1715 24.7554 20.2954C24.6885 20.3281 21.0178 22.1627 18.2495 27.7111C15.9035 32.4165 13.7894 40.7436 16.1681 54.3456C16.7218 52.6549 17.3975 51.0068 18.1901 49.4141C20.5435 44.6789 25.0944 38.298 33.3813 34.7893C33.5082 34.736 33.6444 34.7083 33.782 34.7076C33.9196 34.7069 34.0561 34.7333 34.1835 34.7854C34.3109 34.8374 34.4268 34.9141 34.5247 35.0109C34.6225 35.1078 34.7002 35.2229 34.7535 35.3498C34.8068 35.4767 34.8346 35.6129 34.8353 35.7505C34.836 35.8882 34.8095 36.0246 34.7575 36.152C34.7054 36.2795 34.6288 36.3954 34.532 36.4932C34.4351 36.591 34.3199 36.6688 34.193 36.7221C19.4449 42.9663 17.1152 58.6526 17.0958 58.8146C17.0289 59.3156 16.6127 59.2963 16.1087 59.2963H16.0551Z" fill="#FEFCF0"/>
<path d="M36.1979 44.1553C32.9272 44.1553 29.7397 42.9526 26.683 40.5605C26.5544 40.4605 26.4511 40.3317 26.3814 40.1845C26.3117 40.0373 26.2775 39.8758 26.2816 39.713C26.2816 39.4499 26.4912 33.231 31.9088 29.2124C37.0335 25.4227 44.9012 24.9559 55.3081 27.8535C55.4614 27.8951 55.6032 27.9712 55.7225 28.0761C55.8419 28.1809 55.9356 28.3116 55.9966 28.4583C56.0576 28.605 56.0842 28.7637 56.0744 28.9222C56.0646 29.0807 56.0186 29.2349 55.94 29.3729C55.6516 29.8844 48.7815 41.9148 38.9008 43.8877C38.0108 44.0653 37.1055 44.155 36.1979 44.1553ZM28.415 39.2492C31.6709 41.6487 35.0576 42.5199 38.4905 41.8331C45.7397 40.385 51.4561 32.504 53.4007 29.5038C44.3318 27.186 37.5211 27.6513 33.1546 30.8909C29.3814 33.6933 28.5815 37.8219 28.415 39.2492Z" fill="#FEFCF0"/>
</svg>
