<svg width="166" height="173" viewBox="0 0 166 173" fill="none" xmlns="http://www.w3.org/2000/svg">
<path d="M128.292 72.8259L165.91 0.000305176H121.539L93.5667 54.4984C107.071 56.9101 119.127 63.4211 128.291 72.8255L128.292 72.8259Z" fill="#DE5952"/>
<path d="M72.3435 54.4981L44.3713 0H0L37.6185 72.8256C46.7822 63.4212 58.8387 56.9102 72.3427 54.4985L72.3435 54.4981Z" fill="#DE5952"/>
<path d="M137.551 118.406C137.551 148.557 113.109 173 82.9569 173C52.8054 173 28.3627 148.557 28.3627 118.406C28.3627 88.254 52.8054 63.8113 82.9569 63.8113C113.109 63.8113 137.551 88.254 137.551 118.406Z" fill="#181818"/>
<path d="M128.292 72.8259L165.91 0.000305176H121.539L93.5667 54.4984C107.071 56.9101 119.127 63.4211 128.291 72.8255L128.292 72.8259Z" fill="#DE5952"/>
<path d="M72.3435 54.4981L44.3713 0H0L37.6185 72.8256C46.7822 63.4212 58.8387 56.9102 72.3427 54.4985L72.3435 54.4981Z" fill="#DE5952"/>
<path d="M137.551 118.406C137.551 148.557 113.109 173 82.9569 173C52.8054 173 28.3627 148.557 28.3627 118.406C28.3627 88.254 52.8054 63.8113 82.9569 63.8113C113.109 63.8113 137.551 88.254 137.551 118.406Z" fill="#181818"/>
<circle cx="82.9586" cy="118.405" r="34.6305" stroke="#FEFCF0" stroke-width="6"/>
<circle cx="82.957" cy="118.405" r="8.01172" stroke="#FEFCF0" stroke-width="16"/>
</svg>
