<svg width="296" height="296" viewBox="0 0 296 296" fill="none" xmlns="http://www.w3.org/2000/svg">
<mask id="mask0_1_69" style="mask-type:alpha" maskUnits="userSpaceOnUse" x="0" y="0" width="296" height="296">
<rect x="295.479" width="295.479" height="295.479" transform="rotate(90 295.479 0)" fill="#E93223"/>
</mask>
<g mask="url(#mask0_1_69)">
<path d="M195.037 -8.32252L253.789 147.875L195.037 304.072M278.121 -8.32252L336.873 147.875L278.121 304.072M361.205 -8.32252L419.958 147.875L361.205 304.072M444.289 -8.32251L503.042 147.875L444.289 304.072M-130.772 -8.32254L-72.0194 147.875L-130.772 304.072M-47.6876 -8.32253L11.0648 147.875L-47.6876 304.072M35.3966 -8.32253L94.1489 147.875L35.3966 304.072M118.481 -8.32253L177.233 147.875L118.481 304.072" stroke="#DE5952" stroke-width="34.8072"/>
</g>
</svg>
