<svg width="514" height="508" viewBox="0 0 514 508" fill="none" xmlns="http://www.w3.org/2000/svg">
<g clip-path="url(#clip0_479_58)">
<path d="M364.133 -216.808C408.847 -159.371 471.447 -3.68218 364.133 159.573C256.82 322.829 319.419 493.024 364.133 557.715" stroke="#DE5952" stroke-width="41.7763" stroke-linecap="round" stroke-linejoin="round"/>
<path d="M463.684 -216.808C508.398 -159.371 570.998 -3.68218 463.684 159.573C356.371 322.829 418.97 493.024 463.684 557.715" stroke="#DE5952" stroke-width="41.7763" stroke-linecap="round" stroke-linejoin="round"/>
<path d="M562.045 -216.808C605.865 -159.371 667.212 -3.68218 562.045 159.573C456.878 322.829 518.225 493.024 562.045 557.715" stroke="#DE5952" stroke-width="41.7763" stroke-linecap="round" stroke-linejoin="round"/>
<path d="M266.968 -227.801C309.894 -170.16 369.989 -13.9189 266.968 149.916C163.947 313.75 224.043 484.549 266.968 549.469" stroke="#DE5952" stroke-width="41.7763" stroke-linecap="round" stroke-linejoin="round"/>
<path d="M170.975 -236.035C214.794 -178.598 276.142 -22.9092 170.975 140.346C65.8074 303.602 127.155 473.797 170.975 538.488" stroke="#DE5952" stroke-width="41.7763" stroke-linecap="round" stroke-linejoin="round"/>
<path d="M72.6099 -236.035C117.324 -178.598 179.923 -22.9092 72.6099 140.346C-34.7036 303.602 27.8959 473.797 72.6099 538.488" stroke="#DE5952" stroke-width="41.7763" stroke-linecap="round" stroke-linejoin="round"/>
<path d="M-25.748 -236.035C18.0717 -178.598 79.4193 -22.9092 -25.748 140.346C-130.915 303.602 -69.5677 473.797 -25.748 538.488" stroke="#DE5952" stroke-width="41.7763" stroke-linecap="round" stroke-linejoin="round"/>
</g>
<rect y="151.053" width="514" height="218.18" fill="#FFFEF8"/>
<defs>
<clipPath id="clip0_479_58">
<rect width="508" height="507.581" fill="white" transform="translate(513.578) rotate(90)"/>
</clipPath>
</defs>
</svg>
