<svg width="127" height="104" viewBox="0 0 127 104" fill="none" xmlns="http://www.w3.org/2000/svg">
<path d="M124.411 59.9503L124.411 102.048L61.063 102.048L64.4215 59.9503L124.411 59.9503Z" fill="#101010" stroke="#FFFEF8" stroke-width="3.52168"/>
<path d="M59.6826 16.0288C59.3164 15.1087 58.4247 14.5053 57.4346 14.506H40.2207L46.7725 4.83557H52.599C53.9342 4.83557 55.0164 3.75257 55.0164 2.41742C55.0164 1.08228 53.9341 3.76162e-06 52.599 3.76162e-06H45.4913C44.6866 -0.00141284 43.9351 0.397358 43.4847 1.06387L34.3944 14.506H13.9174C12.9265 14.5053 12.0355 15.1088 11.6686 16.0288L8.4048 24.1765H62.9472L59.6826 16.0288ZM7.04958 43.5176H64.2991L59.8504 99.3166C59.7491 100.575 58.6958 101.545 57.4329 101.541H13.9151C12.6515 101.545 11.5983 100.575 11.4969 99.3166L7.04958 43.5176Z" fill="#101010"/>
<rect y="27.666" width="71.3415" height="12.2611" rx="3.52168" fill="#DE5952"/>
</svg>
