<svg width="1870" height="1070" viewBox="0 0 1870 1070" fill="none" xmlns="http://www.w3.org/2000/svg">
<mask id="mask0_400_58" style="mask-type:alpha" maskUnits="userSpaceOnUse" x="750" y="387" width="296" height="296">
<rect x="1045.48" y="387" width="295.479" height="295.479" transform="rotate(90 1045.48 387)" fill="#E93223"/>
</mask>
<g mask="url(#mask0_400_58)">
<path d="M945.037 378.677L1003.79 534.875L945.037 691.072M1028.12 378.677L1086.87 534.875L1028.12 691.072M1111.21 378.677L1169.96 534.875L1111.21 691.072M1194.29 378.677L1253.04 534.875L1194.29 691.072M619.228 378.677L677.981 534.875L619.228 691.072M702.312 378.677L761.065 534.875L702.312 691.072M785.397 378.677L844.149 534.875L785.397 691.072M868.481 378.677L927.233 534.875L868.481 691.072" stroke="#DE5952" stroke-width="34.8072"/>
</g>
<circle cx="81.7253" cy="81.7253" r="81.7253" fill="#D7FD8A"/>
<circle cx="81.7253" cy="245.175" r="81.7253" fill="#D7FD8A"/>
<circle cx="81.7253" cy="408.625" r="81.7253" fill="#D7FD8A"/>
<circle cx="245.175" cy="81.7253" r="81.7253" fill="#D7FD8A"/>
<circle cx="245.175" cy="245.175" r="81.7253" fill="#D7FD8A"/>
<circle cx="245.175" cy="408.625" r="81.7253" fill="#D7FD8A"/>
<circle cx="408.69" cy="81.7253" r="81.7253" fill="#D7FD8A"/>
<circle cx="408.69" cy="245.175" r="81.7253" fill="#D7FD8A"/>
<circle cx="408.69" cy="408.625" r="81.7253" fill="#D7FD8A"/>
<rect x="1871.14" y="26.0063" width="79.9301" height="79.9301" transform="rotate(90 1871.14 26.0063)" fill="#DE5952"/>
<rect x="1871.14" y="345.724" width="79.9301" height="79.9301" transform="rotate(90 1871.14 345.724)" fill="#DE5952"/>
<rect x="1871.14" y="185.862" width="79.9301" height="79.9301" transform="rotate(90 1871.14 185.862)" fill="#DE5952"/>
<rect x="1791.21" y="105.938" width="79.9301" height="79.9301" transform="rotate(90 1791.21 105.938)" fill="#DE5952"/>
<rect x="1791.21" y="265.806" width="79.9301" height="79.9301" transform="rotate(90 1791.21 265.806)" fill="#DE5952"/>
<rect x="1711.28" y="26.0063" width="79.9301" height="79.9301" transform="rotate(90 1711.28 26.0063)" fill="#DE5952"/>
<rect x="1711.28" y="345.724" width="79.9301" height="79.9301" transform="rotate(90 1711.28 345.724)" fill="#DE5952"/>
<rect x="1711.28" y="185.862" width="79.9301" height="79.9301" transform="rotate(90 1711.28 185.862)" fill="#DE5952"/>
<rect x="1631.34" y="105.937" width="79.9301" height="79.9301" transform="rotate(90 1631.34 105.937)" fill="#DE5952"/>
<rect x="1631.34" y="265.806" width="79.9301" height="79.9301" transform="rotate(90 1631.34 265.806)" fill="#DE5952"/>
<rect x="1551.42" y="26.0063" width="79.9301" height="79.9301" transform="rotate(90 1551.42 26.0063)" fill="#DE5952"/>
<rect x="1551.42" y="345.724" width="79.9301" height="79.9301" transform="rotate(90 1551.42 345.724)" fill="#DE5952"/>
<rect x="1551.42" y="185.862" width="79.9301" height="79.9301" transform="rotate(90 1551.42 185.862)" fill="#DE5952"/>
<g clip-path="url(#clip0_400_58)">
<path d="M1567.31 727.272C1567.31 747.165 1571.23 766.863 1578.84 785.242C1586.46 803.621 1597.61 820.32 1611.68 834.386C1625.75 848.453 1642.45 859.611 1660.82 867.224C1679.2 874.836 1698.9 878.755 1718.79 878.755L1718.79 727.272L1567.31 727.272Z" fill="#DE5952"/>
<path d="M1870.28 727.272C1850.39 727.272 1830.69 731.19 1812.31 738.803C1793.93 746.415 1777.23 757.574 1763.17 771.64C1749.1 785.707 1737.94 802.406 1730.33 820.785C1722.72 839.163 1718.8 858.862 1718.8 878.755L1870.28 878.755L1870.28 727.272Z" fill="#DE5952"/>
<path d="M1870.28 1029.42C1870.28 1009.53 1866.36 989.828 1858.75 971.449C1851.13 953.07 1839.98 936.371 1825.91 922.304C1811.84 908.238 1795.14 897.08 1776.77 889.467C1758.39 881.854 1738.69 877.936 1718.8 877.936L1718.8 1029.42L1870.28 1029.42Z" fill="#DE5952"/>
<path d="M1567.31 1029.42C1587.2 1029.42 1606.9 1025.5 1625.28 1017.89C1643.66 1010.28 1660.36 999.117 1674.42 985.05C1688.49 970.984 1699.65 954.285 1707.26 935.906C1714.87 917.527 1718.79 897.829 1718.79 877.936L1567.31 877.936L1567.31 1029.42Z" fill="#DE5952"/>
</g>
<circle cx="1438" cy="778" r="109.168" transform="rotate(90 1438 778)" stroke="#DE5952" stroke-width="45.6649"/>
<rect x="1485.8" y="778.289" width="68.4973" height="68.4973" transform="rotate(135 1485.8 778.289)" fill="#DE5952"/>
<g clip-path="url(#clip1_400_58)">
<path d="M1259.42 488.819C1283.95 469.725 1350.43 442.993 1420.15 488.819C1489.86 534.645 1562.54 507.913 1590.16 488.819" stroke="#DE5952" stroke-width="17.8398" stroke-linecap="round" stroke-linejoin="round"/>
<path d="M1259.42 446.309C1283.95 427.214 1350.43 400.482 1420.15 446.309C1489.86 492.135 1562.54 465.403 1590.16 446.309" stroke="#DE5952" stroke-width="17.8398" stroke-linecap="round" stroke-linejoin="round"/>
<path d="M1259.42 404.305C1283.95 385.593 1350.43 359.395 1420.15 404.305C1489.86 449.215 1562.54 423.018 1590.16 404.305" stroke="#DE5952" stroke-width="17.8398" stroke-linecap="round" stroke-linejoin="round"/>
<path d="M1254.72 530.313C1279.34 511.982 1346.06 486.32 1416.02 530.313C1485.98 574.306 1558.92 548.644 1586.64 530.313" stroke="#DE5952" stroke-width="17.8398" stroke-linecap="round" stroke-linejoin="round"/>
<path d="M1251.21 571.306C1275.73 552.594 1342.22 526.396 1411.93 571.306C1481.65 616.216 1554.33 590.019 1581.95 571.306" stroke="#DE5952" stroke-width="17.8398" stroke-linecap="round" stroke-linejoin="round"/>
<path d="M1251.21 613.31C1275.73 594.216 1342.22 567.484 1411.93 613.31C1481.65 659.137 1554.33 632.405 1581.95 613.31" stroke="#DE5952" stroke-width="17.8398" stroke-linecap="round" stroke-linejoin="round"/>
<path d="M1251.21 655.311C1275.73 636.599 1342.22 610.401 1411.93 655.311C1481.65 700.221 1554.33 674.023 1581.95 655.311" stroke="#DE5952" stroke-width="17.8398" stroke-linecap="round" stroke-linejoin="round"/>
</g>
<g clip-path="url(#clip2_400_58)">
<circle cx="1871.82" cy="425.819" r="151.5" fill="#DE5952"/>
<circle cx="1871.82" cy="728.819" r="151.5" fill="#DE5952"/>
<circle cx="1568.82" cy="425.819" r="151.5" fill="#DE5952"/>
<circle cx="1568.82" cy="728.819" r="151.5" fill="#DE5952"/>
</g>
<path d="M469.329 517.713H530.537V541.057H469.329V517.713ZM532.771 484.764V507.996H470.781L483.626 495.486V568.533H455.815V484.764H532.771ZM591.307 570.544C581.18 570.544 572.282 568.719 564.612 565.071C557.017 561.422 551.098 556.322 546.853 549.769C542.683 543.142 540.599 535.435 540.599 526.649C540.599 517.862 542.683 510.193 546.853 503.64C551.098 497.013 557.017 491.875 564.612 488.227C572.282 484.578 581.18 482.754 591.307 482.754C601.434 482.754 610.294 484.578 617.89 488.227C625.559 491.875 631.479 497.013 635.649 503.64C639.893 510.193 642.015 517.862 642.015 526.649C642.015 535.435 639.893 543.142 635.649 549.769C631.479 556.322 625.559 561.422 617.89 565.071C610.294 568.719 601.434 570.544 591.307 570.544ZM591.307 545.636C595.998 545.636 600.019 544.892 603.37 543.402C606.795 541.913 609.401 539.754 611.188 536.924C613.05 534.02 613.98 530.595 613.98 526.649C613.98 522.702 613.05 519.314 611.188 516.485C609.401 513.581 606.795 511.384 603.37 509.895C600.019 508.406 595.998 507.661 591.307 507.661C586.616 507.661 582.558 508.406 579.132 509.895C575.782 511.384 573.175 513.581 571.314 516.485C569.527 519.314 568.633 522.702 568.633 526.649C568.633 530.595 569.527 534.02 571.314 536.924C573.175 539.754 575.782 541.913 579.132 543.402C582.558 544.892 586.616 545.636 591.307 545.636ZM669.004 520.729H697.485C700.464 520.729 702.772 520.059 704.41 518.718C706.123 517.304 706.979 515.256 706.979 512.575C706.979 509.969 706.123 507.959 704.41 506.544C702.772 505.129 700.464 504.422 697.485 504.422H665.094L677.604 491.801V568.533H649.793V484.764H701.729C708.431 484.764 714.276 485.955 719.265 488.338C724.254 490.646 728.126 493.886 730.881 498.055C733.636 502.151 735.014 506.991 735.014 512.575C735.014 518.086 733.636 522.926 730.881 527.095C728.126 531.265 724.254 534.504 719.265 536.813C714.276 539.121 708.431 540.275 701.729 540.275H669.004V520.729ZM679.279 529.329H710.106L738.253 568.533H706.42L679.279 529.329Z" fill="#101010"/>
<path d="M679.445 422.122L666.53 425.304V315.621H711.638V456H653.241L581.554 346.504L594.468 343.509V456H549.36V315.621H609.629L679.445 422.122Z" fill="#101010"/>
<path d="M278.568 375.912H382.374C387.352 375.912 391.21 374.791 393.949 372.551C396.811 370.186 398.243 366.763 398.243 362.283C398.243 357.926 396.811 354.566 393.949 352.201C391.21 349.836 387.352 348.654 382.374 348.654H272.034L292.944 327.557V455.817H246.456V315.795L389.468 315.795C400.67 315.795 410.44 317.787 418.779 321.77C427.118 325.628 433.59 331.042 438.196 338.012C442.801 344.858 445.103 352.948 445.103 362.283C445.103 371.493 442.801 379.583 438.196 386.553C433.59 393.523 427.118 398.937 418.779 402.796C410.44 406.654 400.67 408.583 389.468 408.583L278.568 408.583V375.912ZM351.942 390.287H403.47L450.517 455.817H397.309L351.942 390.287Z" fill="#101010"/>
<path d="M496.114 457.533C483.998 457.533 467.623 453.571 461.895 447.027C456.168 440.43 453.304 430.747 453.304 417.977V315.795H489.01V413.918C489.01 416.259 489.147 418.52 489.423 420.701C489.698 422.829 490.332 424.585 491.323 425.969C492.314 427.352 493.911 428.044 496.114 428.044C498.372 428.044 499.997 427.378 500.988 426.048C501.979 424.665 502.585 422.883 502.806 420.701C503.081 418.52 503.219 416.259 503.219 413.918V315.795H539.864V417.977C539.864 430.747 537 440.43 531.273 447.027C525.545 453.571 508.23 457.533 496.114 457.533Z" fill="#101010"/>
<path d="M456.393 737.99V705.197L540.877 626.086L575.523 634.423H456.949V598.851H592.938V631.644L508.64 710.755L478.996 702.418H593.494V737.99H456.393Z" fill="#101010"/>
<path d="M718.563 658.265H759.204C764.175 658.265 768.028 657.146 770.762 654.909C773.62 652.548 775.049 649.13 775.049 644.656C775.049 640.306 773.62 636.95 770.762 634.589C768.028 632.228 764.175 631.047 759.204 631.047H712.039L732.918 609.981V738.053H686.499V598.237H766.288C777.473 598.237 787.229 600.225 795.556 604.202C803.883 608.055 810.345 613.461 814.944 620.421C819.542 627.256 821.841 635.335 821.841 644.656C821.841 653.853 819.542 661.931 814.944 668.891C810.345 675.85 803.883 681.257 795.556 685.109C787.229 688.962 777.473 690.888 766.288 690.888H718.563V658.265ZM728.817 672.619H780.269L827.248 738.053H774.117L728.817 672.619Z" fill="#101010"/>
<path d="M602.867 738.017L610.285 668.243L602.867 598.886H674.846V629.212H638.065L641.494 649.43H673.739V682.493H641.494L638.065 707.454H676.664V738.017H602.867Z" fill="#101010"/>
<path d="M905.28 738.017C889.169 738.017 875.012 735.115 862.811 729.31C850.727 723.505 841.31 715.391 834.557 704.966C827.923 694.423 824.606 682.162 824.606 668.183C824.606 654.204 827.923 642.002 834.557 631.578C841.31 621.034 850.727 612.86 862.811 607.056C875.012 601.251 889.169 598.349 905.28 598.349C905.342 598.349 949.366 598.349 949.428 598.349C965.462 598.371 979.497 601.273 991.534 607.056C1003.74 612.86 1013.15 621.034 1019.79 631.578C1026.54 642.002 1029.92 654.204 1029.92 668.183C1029.92 682.162 1026.54 694.423 1019.79 704.966C1013.15 715.391 1003.74 723.505 991.534 729.31C979.473 735.104 965.405 738.007 949.331 738.017C949.302 738.017 905.309 738.017 905.28 738.017ZM905.28 698.391C905.301 698.391 949.285 698.391 949.305 698.391C956.742 698.384 963.118 697.2 968.434 694.837C973.883 692.468 978.029 689.033 980.873 684.531C983.834 679.911 985.315 674.461 985.315 668.183C985.315 661.904 983.834 656.514 980.873 652.013C978.029 647.393 973.883 643.898 968.434 641.529C963.138 639.175 956.789 637.99 949.388 637.975C949.34 637.975 905.328 637.975 905.28 637.975C897.817 637.975 891.36 639.159 885.911 641.529C880.58 643.898 876.434 647.393 873.472 652.013C870.629 656.514 869.208 661.904 869.208 668.183C869.208 674.461 870.629 679.911 873.472 684.531C876.434 689.033 880.58 692.468 885.911 694.837C891.36 697.207 897.817 698.391 905.28 698.391Z" fill="#101010"/>
<path d="M457.511 910.335V769.977H494.119L509.561 833.339V769.977H544.071V910.335H509.18L492.403 844.023V910.335H457.511Z" fill="#101010"/>
<path d="M858.261 823.329V855.766H753.493V823.329H858.261ZM785.371 839.547L776.609 892.305L758.712 872.544H864.973V909.456H730.563L741.002 839.547L730.563 769.639H864.04V806.551H758.712L776.609 786.79L785.371 839.547ZM917.281 829.667H964.819C969.79 829.667 973.643 828.549 976.377 826.312C979.235 823.95 980.665 820.532 980.665 816.058C980.665 811.709 979.235 808.353 976.377 805.992C973.643 803.63 969.79 802.45 964.819 802.45H910.757L931.636 781.384V909.456H885.217V769.639H971.903C983.088 769.639 992.844 771.628 1001.17 775.605C1009.5 779.458 1015.96 784.864 1020.56 791.824C1025.16 798.659 1027.46 806.737 1027.46 816.058C1027.46 825.255 1025.16 833.333 1020.56 840.293C1015.96 847.253 1009.5 852.659 1001.17 856.512C992.844 860.365 983.088 862.291 971.903 862.291H917.281V829.667ZM934.432 844.022H985.884L1032.86 909.456H979.732L934.432 844.022Z" fill="#101010"/>
<path d="M405.14 912.405C393.024 912.405 376.648 909.117 370.921 902.541C365.193 895.911 362.33 886.181 362.33 873.349V769.977H398.035V868.577C398.035 870.929 398.173 873.201 398.448 875.393C398.724 877.532 399.357 879.296 400.348 880.686C401.34 882.076 402.937 882.771 405.14 882.771C407.398 882.771 409.022 882.103 410.014 880.767C411.005 879.376 411.611 877.585 411.831 875.393C412.106 873.201 412.244 870.929 412.244 868.577V769.977H448.89V873.349C448.89 886.181 446.026 895.911 440.298 902.541C434.571 909.117 417.256 912.405 405.14 912.405Z" fill="#101010"/>
<path d="M708.578 850.673C708.093 858.67 706.397 866.424 703.489 873.936C700.702 881.328 696.522 887.992 690.948 893.929C685.375 899.745 678.347 904.349 669.866 907.741C661.384 911.134 651.388 912.83 639.877 912.83C629.336 912.83 610.288 911.316 600.837 908.287C591.507 905.136 583.208 900.593 575.938 894.656C568.789 888.597 563.155 881.146 559.035 872.301C555.037 863.456 553.038 853.157 553.038 841.404C553.038 829.651 555.037 819.352 559.035 810.507C563.155 801.662 568.91 794.271 576.301 788.334C583.692 782.275 592.234 777.732 601.928 774.702C611.621 771.552 631.093 769.977 642.24 769.977C657.87 769.977 671.259 772.34 682.406 777.065C693.675 781.669 702.701 788.031 709.487 796.149C716.272 804.267 720.755 813.657 722.936 824.319H677.317C676.227 820.685 674.046 817.595 670.774 815.05C667.503 812.506 663.444 810.567 658.597 809.234C653.872 807.902 648.541 807.235 642.604 807.235C635.334 807.235 619.981 808.507 614.65 811.052C609.44 813.475 605.381 817.171 602.473 822.138C599.686 827.106 598.293 833.528 598.293 841.404C598.293 849.279 599.868 855.883 603.018 861.214C606.29 866.424 610.894 870.302 616.831 872.846C622.768 875.39 638.787 876.663 646.784 876.663C654.659 876.663 661.626 875.754 667.685 873.936C673.743 871.998 678.65 869.09 682.406 865.213C686.162 861.335 688.464 856.428 689.313 850.491L708.578 850.673ZM649.692 863.213V836.86H724.026V909.559H692.402L685.859 857.034L693.856 863.213H649.692Z" fill="#101010"/>
<path d="M163 769.977H211.265V910.282H163V769.977ZM302.656 769.977H350.921V910.282H302.656V769.977ZM190.313 817.307H321.55V859.959H190.313V817.307Z" fill="#101010"/>
<defs>
<clipPath id="clip0_400_58">
<rect width="302.966" height="302.966" fill="white" transform="translate(1568.13 726.453)"/>
</clipPath>
<clipPath id="clip1_400_58">
<rect width="216.754" height="216.754" fill="white" transform="translate(1352 425)"/>
</clipPath>
<clipPath id="clip2_400_58">
<rect width="303" height="303" fill="white" transform="translate(1568 425)"/>
</clipPath>
</defs>
</svg>
