<svg width="67" height="66" viewBox="0 0 67 66" fill="none" xmlns="http://www.w3.org/2000/svg">
<path fill-rule="evenodd" clip-rule="evenodd" d="M33.5 66C51.7254 66 66.5 51.2254 66.5 33C66.5 14.7746 51.7254 0 33.5 0C15.2746 0 0.5 14.7746 0.5 33C0.5 51.2254 15.2746 66 33.5 66ZM42.3516 13.7178C42.4957 13.399 42.8994 13.2989 43.1754 13.5134L52.0984 20.1542C52.3612 20.3584 52.558 21.0261 52.315 21.2536L37.0644 35.7983C36.292 36.5349 35.014 35.9781 35.0275 34.9109L35.0379 34.0931C35.0617 33.9558 35.4004 33.164 35.4492 33.0632L42.2614 20.6828C42.33 20.5651 42.3518 20.426 42.3225 20.293L41.3959 16.093C41.3707 15.9787 41.3832 15.8594 41.4313 15.7529L42.3516 13.7178ZM38.3412 21.9449C38.7586 21.9449 39.0185 22.3985 38.8079 22.7594L32.7105 34.0931C32.656 34.1866 32.6307 34.2943 32.6379 34.4023L32.5018 37.8695C32.5703 38.4187 32.5407 39.7233 32.159 40.1353C31.1409 41.2338 30.0336 41.8518 29.348 42.1951L12.9726 49.0611C12.6349 49.1972 12.2622 48.9669 12.2321 48.6037L11.9003 45.2096C11.8868 45.0463 11.9478 44.8857 12.0662 44.7727L21.2235 35.4299C21.2986 35.3583 21.3515 35.2666 21.376 35.1658L22.5731 30.2353C22.6456 29.9368 22.9514 29.7584 23.2465 29.8426L26.9277 30.8933C27.2122 30.9745 27.5091 30.8115 27.5938 30.5276L27.724 30.091C27.8102 29.802 27.6439 29.4981 27.3542 29.4154L23.569 28.3351C23.2899 28.2554 23.1234 27.9691 23.192 27.6866L23.611 25.9609C23.6834 25.6625 23.989 25.4842 24.284 25.5681L28.2659 26.7016C28.5502 26.7825 28.8467 26.6197 28.9315 26.3362L29.0619 25.9002C29.1484 25.6109 28.9819 25.3067 28.6919 25.2242L24.6071 24.0615C24.3277 23.9819 24.161 23.6955 24.2297 23.4128L25.528 18.0657C25.5701 17.8921 25.695 17.7506 25.8617 17.6873L31.9393 15.3818C32.278 15.2533 32.6446 15.4883 32.67 15.8501L33.0626 21.4415C33.0825 21.7251 33.318 21.9449 33.6018 21.9449H38.3412ZM16.3526 52.5808L16.3528 52.5807C16.3866 52.5642 16.4221 52.5469 16.46 52.5292L35.7926 45.1475L35.8071 45.1422C35.8942 45.1105 36.2182 44.9928 36.4254 44.7406L58.3693 25.5681C58.8682 25.0416 59.1533 24.5427 57.7278 23.8299L54.8768 22.2376C54.6701 22.1187 54.2751 22.2107 54.1017 22.3746L31.5373 43.7138C31.4863 43.762 31.4263 43.7999 31.3609 43.8252L14.5498 50.6804C14.2283 50.8048 14.1036 51.1948 14.2932 51.4831L15.6047 52.6004C15.9217 52.7906 16.0802 52.7134 16.3526 52.5808Z" fill="#FEFCF0"/>
</svg>
