<svg width="673" height="276" viewBox="0 0 673 276" fill="none" xmlns="http://www.w3.org/2000/svg">
<path d="M314.646 71.3941L319.388 57.8573H351.411L356.153 71.3941H314.646ZM346.481 13.3232L360.982 86.8927H343.233L333.046 20.0916H338.538L328.351 86.8927H310.602L325.103 13.3232H346.481Z" fill="#FEFCF0"/>
<path d="M577.232 12.6926H601.902V87H577.232V12.6926Z" fill="#FEFCF0"/>
<path d="M432.809 74.5761V55.0566H483.03V74.5761H432.809ZM474.693 13.6634L507.16 87.2295H481.068L455.173 24.4531H461.549L435.752 87.2295H409.66L442.127 13.6634H474.693Z" fill="#FEFCF0"/>
<path d="M283.339 75.8838L276.585 75.9818L291.665 13.1045H316.09L296.291 86.6739H266.593L248.275 26.4451H257.249L238.93 86.6739H209.232L189.434 13.1045H213.951L229.031 75.8838L222.277 75.7857L240.688 13.1045H264.835L283.339 75.8838Z" fill="#FEFCF0"/>
<path d="M120.497 54.0983C120.243 58.2893 119.354 62.3533 117.831 66.2902C116.371 70.1637 114.181 73.6562 111.261 76.7677C108.341 79.8156 104.659 82.2286 100.215 84.0066C95.7718 85.7846 90.5347 86.6736 84.5042 86.6736C78.9814 86.6736 69.0019 85.8798 64.0505 84.2924C59.1626 82.6414 54.8142 80.2601 51.0055 77.1487C47.2602 73.9737 44.3084 70.0685 42.1501 65.433C40.0552 60.7975 39.0078 55.4001 39.0078 49.2406C39.0078 43.0811 40.0552 37.6837 42.1501 33.0482C44.3084 28.4127 47.3236 24.5393 51.1959 21.4278C55.0682 18.2528 59.5435 15.8716 64.6218 14.2841C69.7002 12.6331 79.9019 11.8076 85.742 11.8076C93.9309 11.8076 100.945 13.0459 106.786 15.5223C112.689 17.9353 117.418 21.269 120.973 25.5235C124.528 29.778 126.877 34.6992 128.019 40.2872H104.119C103.548 38.3822 102.405 36.7629 100.691 35.4294C98.9775 34.096 96.851 33.08 94.3118 32.3815C91.8361 31.683 89.043 31.3337 85.9325 31.3337C82.1237 31.3337 74.0803 32.0005 71.2872 33.334C68.5576 34.604 66.431 36.5407 64.9075 39.1442C63.4475 41.7477 62.7175 45.1131 62.7175 49.2406C62.7175 53.3681 63.5427 56.8288 65.1932 59.6228C66.9071 62.3533 69.3193 64.3852 72.4298 65.7187C75.5403 67.0522 83.9329 67.719 88.1225 67.719C92.2487 67.719 95.8988 67.2427 99.0727 66.2902C102.247 65.2742 104.818 63.7502 106.786 61.7183C108.753 59.6863 109.96 57.1145 110.404 54.0031L120.497 54.0983ZM89.646 60.6705V46.8594H128.591V84.9591H112.023L108.595 57.432L112.784 60.6705H89.646Z" fill="#FEFCF0"/>
<path d="M161.154 87.154C154.819 87.154 146.257 85.4445 143.262 82.0255C140.267 78.5788 138.77 73.5199 138.77 66.8487V13.1045H157.439V64.3674C157.439 65.5905 157.511 66.7718 157.655 67.9115C157.799 69.0233 158.13 69.9406 158.649 70.6633C159.167 71.386 160.002 71.7474 161.154 71.7474C162.335 71.7474 163.184 71.3999 163.703 70.705C164.221 69.9823 164.538 69.0511 164.653 67.9115C164.797 66.7718 164.869 65.5905 164.869 64.3674V13.1045H184.03V66.8487C184.03 73.5199 182.533 78.5788 179.538 82.0255C176.543 85.4445 167.489 87.154 161.154 87.154Z" fill="#FEFCF0"/>
<path d="M365.309 87.2388V12.7075H382.052V39.344H389.08V12.7075H405.823V87.2388H389.08V56.3365H382.052V87.2388H365.309Z" fill="#FEFCF0"/>
<path d="M520.909 22.5395H544.056V87.0337H520.909V54.7866V22.5395ZM493.828 12.5024L570.997 12.5024V33.073H493.828V12.5024Z" fill="#FEFCF0"/>
<g filter="url(#filter0_dd_1_112)">
<path d="M182.953 103.251H206.177V170.785H182.953V103.251ZM261.736 103.251H284.96V170.785H261.736V103.251ZM196.095 126.033H270.828V146.563L196.095 146.563V126.033Z" fill="#FEFCF0"/>
<path d="M382.148 170.649V103.251H397.366V157.418H410.353V170.649H382.148Z" fill="#FEFCF0"/>
<path d="M310.449 159.301V141.373H356.575V159.301H310.449ZM348.917 103.356L378.737 170.922H354.773L330.99 113.266H336.845L313.152 170.922H289.189L319.008 103.356H348.917Z" fill="#FEFCF0"/>
<path d="M426.939 129.932H476.307V148.761H426.939V129.932ZM478.109 103.356V122.094H428.11L438.47 112.004V170.922H416.038V103.356H478.109Z" fill="#FEFCF0"/>
</g>
<path d="M648.654 245.374L641.886 247.041V189.562H665.525V263.128H634.922L597.354 205.746L604.122 204.177V263.128H580.483V189.562H612.067L648.654 245.374Z" fill="#FEFCF0"/>
<path d="M388.395 189.897H411.243V263.467H388.395V189.897ZM438.661 189.897H461.509V263.467H438.661V189.897ZM401.241 215.892H447.878V236.099H401.241V215.892Z" fill="#FEFCF0"/>
<path d="M509.771 262.993C501.138 262.993 493.552 261.437 487.014 258.326C480.54 255.214 475.493 250.865 471.875 245.277C468.32 239.626 466.543 233.054 466.543 225.561C466.543 218.069 468.32 211.528 471.875 205.941C475.493 200.29 480.54 195.908 487.014 192.797C493.552 189.686 501.138 188.13 509.771 188.13C509.804 188.13 533.394 188.13 533.427 188.13C542.018 188.142 549.539 189.697 555.989 192.797C562.527 195.908 567.573 200.29 571.128 205.941C574.746 211.528 576.555 218.069 576.555 225.561C576.555 233.054 574.746 239.626 571.128 245.277C567.573 250.865 562.527 255.214 555.989 258.326C549.526 261.431 541.988 262.987 533.375 262.993C533.359 262.993 509.787 262.993 509.771 262.993ZM509.771 241.753C509.782 241.753 533.35 241.753 533.361 241.753C537.346 241.749 540.762 241.114 543.611 239.848C546.531 238.578 548.753 236.737 550.276 234.324C551.863 231.847 552.656 228.927 552.656 225.561C552.656 222.196 551.863 219.307 550.276 216.894C548.753 214.418 546.531 212.544 543.611 211.274C540.773 210.013 537.371 209.378 533.405 209.37C533.38 209.37 509.797 209.37 509.771 209.37C505.772 209.37 502.312 210.005 499.392 211.274C496.536 212.544 494.314 214.418 492.727 216.894C491.204 219.307 490.442 222.196 490.442 225.561C490.442 228.927 491.204 231.847 492.727 234.324C494.314 236.737 496.536 238.578 499.392 239.848C502.312 241.118 505.772 241.753 509.771 241.753Z" fill="#FEFCF0"/>
<path d="M357.036 263.304V205.912H348.324V189.922H382.316V205.912H373.604V263.304H357.036Z" fill="#FEFCF0"/>
<path d="M116.969 263.384L124.055 190.001H152.732L159.693 263.384H143.916L142.874 252.491H134.038L133.121 263.384H116.969ZM135.08 238.878H141.749L138.539 207.254H137.872L135.08 238.878Z" fill="#FEFCF0"/>
<path d="M110.418 189.814V263.384H88.6479V198.25L93.1588 198.741L66.584 263.384H43.8336L17.1608 198.937L21.6717 198.348V263.384H0V189.814H35.2042L59.4255 251.318H51.0902L75.1154 189.814H110.418Z" fill="#FEFCF0"/>
<path d="M182.832 221.358H222.617C225.226 221.358 227.247 220.771 228.682 219.597C230.182 218.358 230.932 216.564 230.932 214.216C230.932 211.933 230.182 210.172 228.682 208.932C227.247 207.693 225.226 207.073 222.617 207.073H179.408L190.363 196.017V263.235H166.008V189.853H226.334C232.203 189.853 237.322 190.897 241.691 192.984C246.06 195.006 249.451 197.844 251.863 201.496C254.276 205.084 255.482 209.324 255.482 214.216C255.482 219.043 254.276 223.283 251.863 226.935C249.451 230.588 246.06 233.426 241.691 235.448C237.322 237.47 232.203 238.481 226.334 238.481H182.832V221.358ZM206.674 228.892H233.67L258.319 263.235H230.442L206.674 228.892Z" fill="#FEFCF0"/>
<path d="M282.145 250.865V231.592H331.73V250.865H282.145ZM323.498 190.724L355.554 263.358H329.793L304.226 201.377H310.521L285.05 263.358H259.289L291.345 190.724H323.498Z" fill="#FEFCF0"/>
<defs>
<filter id="filter0_dd_1_112" x="178.953" y="103.251" width="303.156" height="75.6709" filterUnits="userSpaceOnUse" color-interpolation-filters="sRGB">
<feFlood flood-opacity="0" result="BackgroundImageFix"/>
<feColorMatrix in="SourceAlpha" type="matrix" values="0 0 0 0 0 0 0 0 0 0 0 0 0 0 0 0 0 0 127 0" result="hardAlpha"/>
<feOffset dy="4"/>
<feGaussianBlur stdDeviation="2"/>
<feComposite in2="hardAlpha" operator="out"/>
<feColorMatrix type="matrix" values="0 0 0 0 0 0 0 0 0 0 0 0 0 0 0 0 0 0 0.25 0"/>
<feBlend mode="normal" in2="BackgroundImageFix" result="effect1_dropShadow_1_112"/>
<feColorMatrix in="SourceAlpha" type="matrix" values="0 0 0 0 0 0 0 0 0 0 0 0 0 0 0 0 0 0 127 0" result="hardAlpha"/>
<feOffset dy="4"/>
<feGaussianBlur stdDeviation="2"/>
<feComposite in2="hardAlpha" operator="out"/>
<feColorMatrix type="matrix" values="0 0 0 0 0 0 0 0 0 0 0 0 0 0 0 0 0 0 0.25 0"/>
<feBlend mode="normal" in2="effect1_dropShadow_1_112" result="effect2_dropShadow_1_112"/>
<feBlend mode="normal" in="SourceGraphic" in2="effect2_dropShadow_1_112" result="shape"/>
</filter>
</defs>
</svg>
