<svg width="185" height="184" viewBox="0 0 185 184" fill="none" xmlns="http://www.w3.org/2000/svg">
<circle cx="92.4223" cy="91.641" r="91.641" fill="#DE5952"/>
<g clip-path="url(#clip0_1_442)">
<path d="M74.1525 133.09C112.233 133.09 133.067 101.533 133.067 74.1757C133.067 73.2885 133.047 72.3816 133.008 71.4945C137.061 68.5635 140.558 64.9331 143.336 60.7738C139.562 62.4531 135.554 63.5499 131.451 64.0267C135.771 61.4366 139.007 57.3679 140.557 52.5745C136.492 54.9836 132.046 56.6829 127.411 57.5998C124.288 54.2812 120.158 52.0839 115.661 51.3477C111.164 50.6114 106.549 51.3771 102.531 53.5264C98.5127 55.6758 95.3143 59.089 93.4303 63.2384C91.5464 67.3878 91.0818 72.0423 92.1084 76.4822C83.8776 76.0692 75.8254 73.9311 68.474 70.2064C61.1225 66.4818 54.6359 61.2538 49.4345 54.8614C46.7909 59.4193 45.982 64.8128 47.1721 69.9456C48.3622 75.0785 51.4621 79.5657 55.8417 82.4951C52.5538 82.3908 49.3378 81.5055 46.4596 79.9126V80.1688C46.4567 84.952 48.1103 89.5886 51.1393 93.2904C54.1683 96.9922 58.3858 99.5308 63.0749 100.475C60.0292 101.308 56.8325 101.429 53.7323 100.83C55.0554 104.943 57.6299 108.541 61.0962 111.121C64.5626 113.701 68.748 115.134 73.0682 115.221C65.7337 120.982 56.6735 124.107 47.3468 124.093C45.6927 124.09 44.0404 123.989 42.3984 123.789C51.8734 129.868 62.8953 133.096 74.1525 133.09Z" fill="#FEFCF0"/>
</g>
<defs>
<clipPath id="clip0_1_442">
<rect width="100.938" height="100.938" fill="white" transform="translate(42.3984 41.6152)"/>
</clipPath>
</defs>
</svg>
