<svg width="184" height="184" viewBox="0 0 184 184" fill="none" xmlns="http://www.w3.org/2000/svg">
<circle cx="92.3598" cy="91.641" r="91.641" fill="#DE5952"/>
<g clip-path="url(#clip0_1_448)">
<path d="M142.261 71.8958C142.261 71.8958 141.275 64.9366 138.239 61.8808C134.395 57.8591 130.097 57.8394 128.125 57.6028C114.01 56.5776 92.8168 56.5776 92.8168 56.5776H92.7774C92.7774 56.5776 71.5844 56.5776 57.4688 57.6028C55.4974 57.8394 51.1996 57.8591 47.3553 61.8808C44.3193 64.9366 43.3533 71.8958 43.3533 71.8958C43.3533 71.8958 42.3281 80.0772 42.3281 88.239V95.8882C42.3281 104.05 43.3336 112.232 43.3336 112.232C43.3336 112.232 44.3193 119.191 47.3356 122.246C51.1799 126.268 56.2268 126.13 58.4743 126.564C66.5572 127.333 92.7971 127.569 92.7971 127.569C92.7971 127.569 114.01 127.53 128.125 126.524C130.097 126.288 134.395 126.268 138.239 122.246C141.275 119.191 142.261 112.232 142.261 112.232C142.261 112.232 143.266 104.07 143.266 95.8882V88.239C143.266 80.0772 142.261 71.8958 142.261 71.8958ZM82.3682 105.174V76.8047L109.633 91.0385L82.3682 105.174Z" fill="#FEFCF0"/>
</g>
<defs>
<clipPath id="clip0_1_448">
<rect width="100.938" height="100.938" fill="white" transform="translate(42.3281 41.6143)"/>
</clipPath>
</defs>
</svg>
